<?xml version="1.0" standalone="no"?>
<!DOCTYPE svg PUBLIC "-//W3C//DTD SVG 20010904//EN"
 "http://www.w3.org/TR/2001/REC-SVG-20010904/DTD/svg10.dtd">
<svg version="1.0" xmlns="http://www.w3.org/2000/svg"
 width="1080.000000pt" height="1080.000000pt" viewBox="0 0 1080.000000 1080.000000"
 preserveAspectRatio="xMidYMid meet">
<metadata>
Created by potrace 1.14, written by Peter Selinger 2001-2017
</metadata>
<g transform="translate(0.000000,1080.000000) scale(0.100000,-0.100000)"
fill="#000000" stroke="none">
<path d="M2427 10794 c-1 -1 -47 -4 -102 -8 -126 -7 -186 -14 -255 -26 -30 -5
-75 -13 -100 -16 -52 -6 -271 -54 -283 -61 -4 -2 -17 -6 -30 -8 -58 -11 -266
-85 -382 -137 -74 -33 -225 -114 -279 -149 -32 -22 -62 -39 -67 -39 -5 0 -9
-5 -9 -12 0 -6 -3 -8 -6 -5 -4 4 -15 -3 -25 -15 -11 -11 -19 -18 -19 -14 0 9
-98 -69 -118 -93 -6 -8 -12 -12 -12 -9 0 13 -153 -132 -225 -213 -16 -19 -62
-77 -102 -129 -40 -52 -77 -100 -83 -107 -5 -7 -10 -17 -10 -23 0 -5 -4 -10
-9 -10 -5 0 -11 -8 -15 -17 -3 -10 -22 -45 -41 -78 -20 -33 -43 -73 -51 -90
-8 -16 -18 -37 -23 -45 -21 -38 -42 -80 -42 -85 1 -3 -10 -29 -24 -58 -13 -30
-45 -116 -70 -191 l-45 -138 2 -3681 c3 -3511 4 -3684 21 -3727 10 -25 20 -54
22 -64 6 -24 52 -149 75 -201 10 -22 18 -42 18 -45 0 -19 171 -318 196 -342 7
-7 13 -17 14 -21 2 -15 85 -127 93 -127 5 0 9 -4 9 -10 0 -9 13 -26 93 -112
20 -22 37 -44 37 -49 0 -5 4 -9 8 -9 5 0 33 -24 63 -53 59 -57 152 -136 178
-151 9 -5 22 -16 29 -23 21 -21 100 -73 110 -73 6 0 12 -7 16 -15 3 -8 12 -15
21 -15 8 0 26 -10 41 -22 14 -13 29 -23 32 -23 4 0 13 -4 21 -9 14 -9 213
-111 221 -113 16 -5 68 -25 85 -32 26 -12 137 -53 150 -55 6 -1 15 -4 20 -8 8
-4 64 -20 85 -23 3 0 10 -4 17 -8 6 -4 1660 -6 3675 -4 l3663 2 120 42 c66 22
143 51 170 64 28 12 52 23 55 24 39 12 290 141 300 154 3 4 29 22 59 40 30 18
60 38 67 44 7 7 38 30 68 51 31 22 56 43 56 48 0 4 7 8 15 8 8 0 15 7 15 15 0
8 7 15 15 15 9 0 18 7 21 15 4 8 10 12 15 9 5 -3 9 -1 9 4 0 5 42 51 93 103
51 52 110 116 132 144 22 27 45 55 50 62 16 19 29 38 40 55 6 9 25 37 43 62
17 26 32 49 32 52 0 3 13 24 29 47 25 37 131 248 151 302 5 11 16 38 26 60 28
64 98 285 110 350 2 11 7 31 10 45 12 47 44 225 50 270 2 25 7 61 9 80 2 19 8
76 12 125 10 124 9 5975 -1 6100 -5 55 -10 116 -11 135 -2 19 -4 37 -5 40 -1
3 -2 8 -1 13 1 4 -3 26 -8 50 -5 23 -12 60 -15 82 -5 32 -25 137 -40 210 -1 6
-5 16 -10 23 -4 7 -6 16 -3 18 3 3 -3 29 -13 57 -10 29 -21 69 -25 90 -4 20
-11 40 -16 43 -5 3 -9 16 -9 30 0 13 -4 24 -8 24 -5 0 -9 6 -9 13 -2 18 -52
148 -63 162 -5 6 -7 15 -3 18 3 4 1 7 -5 7 -7 0 -11 3 -10 8 5 15 -115 240
-136 254 -6 4 -7 8 -3 8 4 0 -3 15 -17 33 -15 19 -26 39 -26 45 0 7 -4 12 -8
12 -4 0 -15 12 -24 28 -9 15 -25 37 -35 49 -10 12 -27 34 -38 49 -39 53 -248
274 -260 274 -2 0 -15 10 -28 23 -13 12 -38 33 -56 47 -18 14 -39 31 -46 38
-8 6 -18 12 -24 12 -6 0 -11 3 -11 8 0 4 -25 23 -55 42 -30 19 -55 39 -55 43
0 5 -4 6 -9 3 -5 -3 -14 1 -21 9 -7 8 -19 15 -26 15 -8 0 -14 5 -14 10 0 6 -5
10 -11 10 -6 0 -37 16 -70 35 -33 19 -61 35 -64 35 -3 0 -33 13 -67 29 -115
52 -326 130 -398 146 -8 2 -53 13 -100 25 -47 12 -98 24 -115 26 -16 3 -50 10
-75 15 -25 5 -63 11 -85 14 -22 2 -56 7 -75 10 -19 3 -62 8 -95 11 -33 3 -73
8 -90 10 -28 5 -5963 13 -5968 8z"/>
</g>
</svg>
