<svg width="537" height="343" viewBox="0 0 537 343" fill="none" xmlns="http://www.w3.org/2000/svg">
<g clip-path="url(#clip0_604_3725)">
<path d="M499.522 342.419C504.516 342.419 509.458 341.428 514.05 339.505C518.642 337.582 522.789 334.767 526.241 331.231C529.693 327.694 532.379 323.509 534.136 318.928C535.892 314.346 536.684 309.464 536.463 304.574C535.244 277.607 521.176 239.529 465.717 201.475C398.087 155.07 428.59 21.4617 284.894 30.6825C141.198 39.9034 154.898 138.639 66.7879 183.895C10.7013 212.703 0.503749 269.069 0.5 306.236C0.509194 315.839 4.40979 325.046 11.344 331.831C18.2783 338.617 27.6783 342.425 37.4771 342.419H499.522Z" fill="#F3F5FD"/>
<path d="M82.5507 135.687C82.479 128.858 86.1702 123.707 89.9044 121.383C93.589 119.09 104.206 117.094 108.586 125.418C111.445 130.849 110.316 132.791 111.126 141.49C111.936 150.189 115.047 151.102 118.203 161.646C120.677 169.917 106.815 174.308 94.8118 173.928C82.809 173.549 75.198 170.943 74.5015 163.462C73.5005 152.724 82.6918 149.071 82.5507 135.687Z" fill="#0F1011"/>
<path d="M102.938 152.039L89.7026 153.651C89.7026 153.651 91.8397 152.517 92.4115 147.593C92.5849 146.822 92.7583 145.94 92.927 144.966C93.091 144.024 93.2457 142.991 93.3722 141.888L99.8819 140.644C99.8819 140.644 99.1227 149.32 102.938 152.039Z" fill="#E98862"/>
<g opacity="0.15">
<path d="M101.386 150.243L95.1221 145.634L100.007 145.542C100.164 147.18 100.632 148.774 101.386 150.243Z" fill="black"/>
</g>
<path d="M88.1265 138.36C88.672 141.289 90.332 144.055 92.9818 144.977C95.8708 146.071 98.9889 146.455 102.064 146.097C110.255 145.362 108.462 127.114 104.538 123.601C100.613 120.088 89.2128 122.437 87.8804 128.384C87.1906 131.457 87.6067 135.571 88.1265 138.36Z" fill="#E98862"/>
<path d="M99.8236 135.994C100.199 135.994 100.503 135.696 100.503 135.329C100.503 134.961 100.199 134.663 99.8236 134.663C99.4486 134.663 99.1445 134.961 99.1445 135.329C99.1445 135.696 99.4486 135.994 99.8236 135.994Z" fill="#0F1011"/>
<path d="M105.177 135.515C105.552 135.515 105.856 135.217 105.856 134.849C105.856 134.482 105.552 134.184 105.177 134.184C104.802 134.184 104.498 134.482 104.498 134.849C104.498 135.217 104.802 135.515 105.177 135.515Z" fill="#0F1011"/>
<path d="M106.337 133.421L104.538 133.415C104.455 133.412 104.377 133.378 104.32 133.319C104.263 133.261 104.231 133.183 104.231 133.102C104.231 133.021 104.263 132.944 104.32 132.885C104.377 132.827 104.455 132.793 104.538 132.79V132.79L106.337 132.795C106.422 132.795 106.503 132.828 106.563 132.887C106.623 132.946 106.656 133.025 106.656 133.108C106.656 133.191 106.623 133.271 106.563 133.329C106.503 133.388 106.422 133.421 106.337 133.421V133.421Z" fill="#0F1011"/>
<path d="M98.3436 134.136C98.2656 134.136 98.1903 134.108 98.1318 134.057C98.0734 134.007 98.0358 133.937 98.0263 133.861C98.0168 133.785 98.036 133.708 98.0802 133.645C98.1244 133.583 98.1906 133.538 98.2663 133.519L100.036 133.085C100.118 133.066 100.203 133.08 100.275 133.123C100.346 133.165 100.398 133.234 100.418 133.314C100.439 133.393 100.426 133.478 100.384 133.548C100.341 133.619 100.272 133.671 100.191 133.692L98.4214 134.126C98.396 134.132 98.3698 134.136 98.3436 134.136V134.136Z" fill="#0F1011"/>
<path d="M100.187 140.567C100.187 140.567 102.696 140.804 104.447 140.186C104.447 140.186 104.447 141.804 102.467 141.981C100.486 142.159 100.187 140.567 100.187 140.567Z" fill="white"/>
<path d="M93.7332 133.12C93.7004 132.325 93.6441 131.522 93.5692 130.709L91.9991 133.386C91.9991 133.386 92.6646 133.295 93.7332 133.12C93.8454 136.048 93.7248 138.979 93.3723 141.888C93.2458 142.991 93.0911 144.024 92.9271 144.966C92.7584 145.94 92.585 146.822 92.4116 147.593C91.9289 149.812 85.6863 141.526 84.7209 133.492C83.8117 125.964 89.4403 121.462 93.2598 120.589C107.779 117.273 108.786 127.65 108.786 127.65C108.041 130.465 97.8761 132.431 93.7332 133.12Z" fill="#0F1011"/>
<path d="M93.7331 133.12C92.6645 133.295 91.999 133.386 91.999 133.386L93.569 130.709C93.644 131.522 93.7003 132.325 93.7331 133.12Z" fill="#0F1011"/>
<path d="M96.4219 138.227C96.4878 138.971 96.2505 139.709 95.7621 140.282C95.2736 140.854 94.5737 141.214 93.8155 141.281C93.0572 141.349 92.3025 141.12 91.7163 140.644C91.1302 140.167 90.7604 139.483 90.6878 138.74C90.6469 138.37 90.6825 137.995 90.7924 137.639C90.9023 137.282 91.0843 136.951 91.3275 136.665C91.5707 136.379 91.8702 136.144 92.2082 135.973C92.5461 135.803 92.9156 135.701 93.2945 135.674C95.3444 135.591 96.2775 136.676 96.4219 138.227Z" fill="#E98862"/>
<g opacity="0.15">
<path d="M102.871 138.992C102.814 138.993 102.76 138.973 102.718 138.938C102.675 138.902 102.647 138.852 102.638 138.798C102.629 138.744 102.641 138.688 102.671 138.642C102.7 138.595 102.746 138.56 102.799 138.544L104.177 138.116L103.193 136.016C103.179 135.989 103.17 135.959 103.169 135.928C103.167 135.897 103.171 135.867 103.182 135.838C103.192 135.809 103.208 135.782 103.229 135.759C103.251 135.737 103.276 135.718 103.305 135.705C103.333 135.693 103.364 135.686 103.395 135.685C103.426 135.684 103.458 135.689 103.487 135.7C103.516 135.711 103.543 135.728 103.565 135.749C103.588 135.77 103.606 135.796 103.618 135.824L104.715 138.16C104.729 138.19 104.736 138.222 104.736 138.254C104.737 138.287 104.73 138.319 104.717 138.348C104.703 138.378 104.684 138.405 104.659 138.427C104.635 138.448 104.606 138.465 104.574 138.475L102.944 138.98C102.921 138.988 102.896 138.992 102.871 138.992Z" fill="black"/>
</g>
<path d="M380.125 0H162.985V276.071H380.125V0Z" fill="#DEE8F5"/>
<path d="M360.111 64.2161H183V70.7889H360.111V64.2161Z" fill="white"/>
<path d="M360.111 161.701H183V168.274H360.111V161.701Z" fill="white"/>
<path d="M360.111 83.7129H183V90.2858H360.111V83.7129Z" fill="white"/>
<path d="M360.111 103.21H183V109.783H360.111V103.21Z" fill="white"/>
<path d="M360.111 122.707H183V129.28H360.111V122.707Z" fill="white"/>
<path d="M360.111 142.203H183V148.776H360.111V142.203Z" fill="white"/>
<path d="M336.678 239.688H206.432V246.261H336.678V239.688Z" fill="white"/>
<path d="M360.111 181.197H183V187.77H360.111V181.197Z" fill="white"/>
<path d="M360.111 200.694H183V207.267H360.111V200.694Z" fill="white"/>
<path d="M360.111 220.191H183V226.764H360.111V220.191Z" fill="white"/>
<path d="M360.111 29.8098H183V47.7334H360.111V29.8098Z" fill="#C1D8ED"/>
<path d="M156.387 190.489C157.746 190.801 162.461 191.141 162.515 192.347C162.548 193.071 158.969 193.095 158.969 193.095" fill="#E98862"/>
<path d="M170.057 198.205C170.518 196.276 166.336 193.665 160.715 192.375C155.094 191.084 150.163 191.603 149.702 193.532C149.241 195.462 153.424 198.073 159.045 199.363C164.666 200.653 169.596 200.135 170.057 198.205Z" fill="#E98862"/>
<path d="M67.5378 215.926C67.5378 217.295 68.2755 221.871 67.0893 222.198C66.3779 222.394 65.5381 218.982 65.5381 218.982" fill="#E98862"/>
<path d="M61.9409 215.206C61.9409 215.206 57.9296 219.442 60.6563 224.467C61.0345 225.164 64.7205 225.573 64.7205 224.719C64.7205 221.134 65.0045 218.327 67.412 219.185V213.415" fill="#E98862"/>
<path d="M243.285 153.44C243.285 153.44 239.66 151.557 240.47 141.886L232.982 140.525C232.982 140.525 233.823 149.196 230.036 151.949L243.285 153.44Z" fill="#E98862"/>
<path d="M244.718 138.135C244.2 141.069 242.566 143.848 239.925 144.795C236.79 145.92 234.467 145.997 230.853 145.997C225.92 145.997 226.083 140.955 225.945 135.874C225.804 130.773 226.22 125.301 228.169 123.523C232.059 119.976 243.482 122.223 244.871 128.157C245.589 131.228 245.211 135.342 244.718 138.135Z" fill="#E98862"/>
<path d="M222.525 121.411C222.525 118.985 225.606 115.01 233.825 120.493L233.833 120.498C235.968 120.439 238.102 120.668 240.174 121.177C243.932 122.28 248.645 125.368 247.438 132.856C246.717 137.316 245.432 140.229 244.069 142.361C243.224 143.666 242.147 144.81 240.888 145.74C238.887 146.934 230.594 147.393 227.672 145.565C225.536 144.228 225.179 138.644 225.985 138.644C226.543 138.644 226.589 138.62 227.216 138.62C228.363 138.62 228.477 131.929 228.693 128.97C228.517 128.946 228.339 128.934 228.161 128.933C222.767 128.931 222.525 123.672 222.525 121.411Z" fill="#0F1011"/>
<path d="M229.655 138.764C230.389 138.783 231.103 138.525 231.649 138.044C232.196 137.563 232.534 136.896 232.594 136.178C232.632 135.81 232.594 135.438 232.482 135.084C232.371 134.73 232.189 134.402 231.946 134.119C231.703 133.835 231.404 133.602 231.068 133.434C230.732 133.265 230.365 133.165 229.988 133.137C229.923 135.14 229.815 137.248 229.655 138.764Z" fill="#E98862"/>
<path d="M211.096 337.45C210.058 328.898 210.058 328.018 210.058 327.729H219.9C219.9 327.7 219.9 327.663 219.9 327.617C219.935 328.331 220.431 332.685 220.871 336.311L211.096 337.45Z" fill="#E98862"/>
<path d="M250.311 338.603C250.311 338.603 250.278 328.614 250.278 327.729H260.12C260.12 328.611 260.152 338.571 260.152 338.571L250.311 338.603Z" fill="#E98862"/>
<path d="M258.724 275.898C257.774 261.485 256.118 237.307 255.325 223.12C255.007 217.413 254.071 200.291 254.071 200.291L218.828 200.828C214.649 222.537 211.967 250.576 208.579 272.441C208.342 292.702 208.276 313.904 207.467 334.115L224.805 334.404C224.75 314.661 225.248 294.02 225.843 274.244C228.564 258.743 232.378 241.54 235.443 226.209C238.215 256.078 242.348 305.014 245.413 335.288L262.692 333.857L258.724 275.898Z" fill="#262626"/>
<path d="M238.347 342.334C238.082 342.332 237.821 342.278 237.578 342.173C237.336 342.068 237.119 341.916 236.94 341.725C236.76 341.534 236.623 341.309 236.537 341.064C236.45 340.819 236.416 340.559 236.436 340.3C236.465 339.942 236.597 339.599 236.818 339.311C237.039 339.024 237.338 338.805 237.682 338.679L249.138 334.919C249.359 334.847 249.595 334.823 249.827 334.848C250.059 334.873 250.283 334.947 250.484 335.065C252.058 336.136 253.942 336.684 255.858 336.627C257.35 336.523 258.783 336.01 259.992 335.147C260.098 335.062 260.227 335.008 260.364 334.991C260.5 334.975 260.639 334.997 260.763 335.054C260.887 335.112 260.992 335.204 261.065 335.318C261.138 335.432 261.177 335.564 261.176 335.698V341.188C261.176 341.35 261.144 341.51 261.08 341.66C261.017 341.81 260.924 341.945 260.807 342.06C260.69 342.174 260.551 342.264 260.398 342.326C260.245 342.387 260.082 342.419 259.916 342.418L238.347 342.334Z" fill="#C1D8ED"/>
<path d="M199.104 342.334C198.84 342.332 198.578 342.278 198.336 342.173C198.094 342.068 197.876 341.916 197.697 341.725C197.518 341.534 197.381 341.309 197.294 341.064C197.207 340.819 197.173 340.559 197.194 340.3V340.3C197.222 339.942 197.355 339.599 197.576 339.311C197.796 339.024 198.096 338.805 198.44 338.679L209.895 334.919C210.117 334.847 210.352 334.823 210.585 334.848C210.817 334.873 211.041 334.947 211.241 335.065C212.816 336.136 214.7 336.684 216.616 336.627C218.108 336.523 219.54 336.01 220.749 335.147C220.856 335.062 220.985 335.008 221.121 334.991C221.257 334.975 221.396 334.997 221.52 335.054C221.644 335.112 221.749 335.204 221.822 335.318C221.896 335.432 221.934 335.564 221.934 335.698V341.188C221.934 341.35 221.901 341.51 221.838 341.66C221.775 341.81 221.682 341.945 221.565 342.06C221.448 342.174 221.309 342.264 221.156 342.326C221.003 342.388 220.839 342.419 220.674 342.418L199.104 342.334Z" fill="#C1D8ED"/>
<path d="M264.564 216.841C264.564 218.21 263.827 222.786 265.013 223.113C265.724 223.309 266.564 219.898 266.564 219.898" fill="#E98862"/>
<path d="M270.166 216.123C270.166 216.123 274.039 225.361 269.621 230.669C269.509 230.804 269.357 230.902 269.186 230.952C269.016 231.001 268.834 230.999 268.664 230.945C268.495 230.891 268.346 230.789 268.237 230.651C268.128 230.513 268.064 230.346 268.053 230.172C267.839 226.594 267.102 219.243 264.695 220.102V214.331" fill="#E98862"/>
<path d="M173.388 191.209C172.026 191.511 167.309 192.272 167.244 193.478C167.206 194.201 173.731 194.253 173.731 194.253" fill="#E98862"/>
<path d="M180.305 194.708C180.75 196.642 176.546 198.76 170.914 200.005C165.283 201.251 160.357 201.154 159.912 199.219C159.467 197.285 163.671 194.709 169.302 193.463C174.934 192.217 179.86 192.776 180.305 194.708Z" fill="#E98862"/>
<path d="M268.01 187.702C267.959 187.364 267.872 187.031 267.751 186.709L256.994 158.041L256.93 158.064C256.461 156.653 255.654 155.373 254.575 154.331C252.434 152.233 248.726 150.875 244.21 150.875C237.487 150.875 228.306 150.889 226.424 150.966C220.894 151.199 218.194 153.546 217.02 157.047L200.635 182.953L172.38 190.869L175.085 200.143L205.168 191.715C206.344 191.385 207.353 190.638 207.998 189.619L217.338 174.851C217.611 177.199 217.833 179.519 217.859 181.703C218.039 196.616 213.931 199.426 215.955 203.985C217.921 208.406 256.505 210.245 257.02 202.461C257.349 197.511 252.896 193.187 252.896 183.539C252.933 181.706 253.181 179.882 253.633 178.103L257.977 189.68L262.242 217.839L272.351 216.369L268.01 187.702Z" fill="#0F233B"/>
<path d="M120.983 337.45L111.21 336.311C111.65 332.685 112.148 328.331 112.182 327.617C112.182 327.663 112.182 327.7 112.182 327.729H122.023C122.023 328.018 122.023 328.898 120.983 337.45Z" fill="#E98862"/>
<path d="M81.7681 338.603L71.9263 338.571C71.9263 338.571 71.9591 328.611 71.9591 327.729H81.8009C81.8009 328.614 81.7681 338.603 81.7681 338.603Z" fill="#E98862"/>
<path d="M124.614 334.115C123.799 313.9 123.75 292.67 123.495 272.402C120.11 250.541 118.331 226.565 114.153 204.859L114.028 204.896L113.661 202.447L78.0073 200.291L76.7532 223.119C74.9587 253.701 71.4888 302.864 69.3896 333.856L86.6686 335.287C89.7542 304.807 94.3176 256.249 97.1065 226.208C100.166 241.516 103.521 258.754 106.238 274.243C106.833 294.029 107.33 314.649 107.276 334.403L124.614 334.115Z" fill="#262626"/>
<path d="M93.7326 342.334C93.9972 342.332 94.2588 342.278 94.5009 342.173C94.743 342.068 94.9605 341.916 95.1397 341.725C95.319 341.534 95.4562 341.309 95.5428 341.064C95.6293 340.819 95.6634 340.559 95.6428 340.3V340.3C95.6144 339.942 95.482 339.599 95.2612 339.311C95.0404 339.024 94.7405 338.805 94.3967 338.679L82.9417 334.919C82.7198 334.847 82.4845 334.823 82.2522 334.848C82.0198 334.873 81.7957 334.947 81.5953 335.065C80.0207 336.136 78.1369 336.684 76.2212 336.627C74.7289 336.523 73.2964 336.01 72.0871 335.147C71.9809 335.062 71.852 335.008 71.7156 334.991C71.5791 334.975 71.4407 334.997 71.3166 335.054C71.1924 335.112 71.0876 335.204 71.0143 335.318C70.941 335.432 70.9024 335.564 70.9028 335.698V341.188C70.9028 341.35 70.9354 341.51 70.9987 341.66C71.0621 341.81 71.155 341.946 71.2721 342.06C71.3892 342.174 71.5282 342.265 71.6811 342.326C71.834 342.388 71.9978 342.419 72.1631 342.418L93.7326 342.334Z" fill="#C1D8ED"/>
<path d="M132.975 342.334C133.239 342.332 133.501 342.278 133.743 342.173C133.985 342.068 134.203 341.916 134.382 341.725C134.561 341.534 134.698 341.309 134.785 341.064C134.871 340.819 134.906 340.559 134.885 340.3C134.857 339.942 134.724 339.599 134.504 339.311C134.283 339.024 133.983 338.805 133.639 338.679L122.184 334.919C121.962 334.847 121.727 334.823 121.495 334.848C121.262 334.873 121.038 334.947 120.838 335.065C119.263 336.136 117.379 336.684 115.463 336.627C113.971 336.523 112.539 336.01 111.33 335.147C111.223 335.062 111.095 335.008 110.958 334.991C110.822 334.975 110.683 334.997 110.559 335.055C110.435 335.112 110.33 335.204 110.257 335.318C110.183 335.432 110.145 335.564 110.145 335.698V341.188C110.145 341.35 110.178 341.51 110.241 341.66C110.304 341.81 110.397 341.945 110.514 342.06C110.632 342.174 110.771 342.264 110.923 342.326C111.076 342.387 111.24 342.419 111.405 342.418L132.975 342.334Z" fill="#C1D8ED"/>
<path d="M131.921 180.311L114.469 154.751L114.366 154.818C112.866 152.576 110.289 151.144 106.036 150.966C105.741 150.952 105.268 150.943 104.658 150.934C104.537 153.46 88.5739 153.451 88.2365 150.874C83.7285 150.879 80.0303 152.234 77.8885 154.333C76.8926 155.299 76.1286 156.471 75.6521 157.763L75.5954 157.737L64.267 182.735C64.0702 183.17 63.9375 183.629 63.8728 184.1L59.4717 216.174L69.5989 217.509L73.9026 186.145L78.3666 176.295C79.0822 178.65 79.4855 181.085 79.5663 183.541C79.5663 193.191 75.1141 197.513 75.4421 202.465C75.9577 210.246 114.543 208.409 116.506 203.985C118.531 199.429 114.42 196.618 114.603 181.708C114.677 179.092 114.889 176.481 115.238 173.886L124.364 187.252C124.972 188.142 125.855 188.818 126.883 189.181L155.451 199.24L158.906 189.811L131.921 180.311Z" fill="#0F233B"/>
<path d="M104.658 150.932C104.536 153.459 103.135 157.175 98.8093 157.455C93.0448 157.827 88.5738 153.449 88.2363 150.873H88.2504C93.9258 150.874 101.349 150.883 104.658 150.932Z" fill="#E98862"/>
<path d="M87.0803 229.096H74.4073V225.948C74.4061 224.825 73.9503 223.748 73.1401 222.954C72.3298 222.159 71.2313 221.713 70.0853 221.711H56.132C54.9861 221.713 53.8875 222.159 53.0772 222.954C52.267 223.748 51.8113 224.825 51.81 225.948V229.096H39.1389C37.9126 229.096 36.7365 229.573 35.8694 230.423C35.0023 231.273 34.5151 232.426 34.5151 233.627V263.466C34.5151 264.668 35.0023 265.82 35.8694 266.67C36.7365 267.52 37.9126 267.997 39.1389 267.997H87.0826C88.3089 267.997 89.485 267.52 90.3521 266.67C91.2193 265.82 91.7064 264.668 91.7064 263.466V233.627C91.7064 233.032 91.5867 232.443 91.3542 231.893C91.1217 231.343 90.7809 230.843 90.3513 230.422C89.9217 230.001 89.4117 229.668 88.8505 229.44C88.2892 229.212 87.6877 229.095 87.0803 229.096ZM54.622 225.948C54.6222 225.555 54.7814 225.179 55.0645 224.901C55.3476 224.624 55.7315 224.468 56.132 224.467H70.0872C70.4877 224.468 70.8716 224.624 71.1547 224.901C71.4378 225.179 71.597 225.555 71.5972 225.948V229.096H54.622V225.948Z" fill="#9C1A1A"/>
<path d="M478.516 214.077C476.917 213.564 475.277 214.141 473.708 215.309C475.775 210.194 476.628 205.572 473.094 205.366C470.622 205.219 468.728 207.079 467.288 209.722C466.783 205.075 465.477 201.609 462.552 202.757C459.341 204.02 458.853 208.343 459.34 212.867C457.924 210.556 456.402 209.268 455.019 210.622C450.892 214.667 461.023 226.067 461.023 226.067H463.539L464.975 227.595C464.683 228.197 464.525 228.556 464.525 228.556L466.348 232.193C466.348 232.193 485.149 216.205 478.516 214.077Z" fill="#8DDBE0"/>
<path d="M474.006 240.339H459.767L457.384 224.048H476.39L474.006 240.339Z" fill="#C1D8ED"/>
<path d="M446.832 334.219H439.242V342.419H446.832V334.219Z" fill="#C1D8ED"/>
<path d="M519.045 334.219H511.455V342.419H519.045V334.219Z" fill="#C1D8ED"/>
<path d="M525.58 240.722H493.734V335.17H525.58V240.722Z" fill="#C1D8ED"/>
<path d="M439.145 242.813H406.533V334.219H439.145V242.813Z" fill="#C1D8ED"/>
<path d="M495.879 335.17H404.39V240.722H495.881L495.879 335.17ZM408.678 330.965H491.589V244.926H408.678V330.965Z" fill="#DEE8F5"/>
<path d="M495.879 335.17H404.39V283.097H495.881L495.879 335.17ZM408.678 330.965H491.589V287.302H408.678V330.965Z" fill="#DEE8F5"/>
<path d="M445.863 252.418V258.432V283.063H484.729V258.432V252.418H445.863Z" fill="#C1D8ED"/>
<path d="M471.99 258.432H433.125V283.063H471.99V258.432Z" fill="#DEE8F5"/>
<path d="M471.99 258.432H433.125V260.279H471.99V258.432Z" fill="#C1D8ED"/>
<path d="M433.124 258.432H471.99V252.418H433.124V258.432Z" fill="#DEE8F5"/>
<path d="M456.864 263.379H448.25C447.755 263.379 447.354 263.772 447.354 264.257V266.2C447.354 266.685 447.755 267.078 448.25 267.078H456.864C457.359 267.078 457.76 266.685 457.76 266.2V264.257C457.76 263.772 457.359 263.379 456.864 263.379Z" fill="white"/>
<path d="M417.822 334.219H410.231V342.419H417.822V334.219Z" fill="#DEE8F5"/>
<path d="M490.035 334.219H482.445V342.419H490.035V334.219Z" fill="#DEE8F5"/>
<path d="M481.4 321.588H439.147V330.965H481.4V321.588Z" fill="#C1D8ED"/>
<path d="M482.126 302.855H439.873V312.232H482.126V302.855Z" fill="#C1D8ED"/>
<path d="M466.982 321.588H422.299V330.965H466.982V321.588Z" fill="#DEE8F5"/>
<g opacity="0.62">
<path d="M463.335 321.588H461.166V330.965H463.335V321.588Z" fill="#C1D8ED"/>
</g>
<g opacity="0.62">
<path d="M458.997 321.588H456.828V330.965H458.997V321.588Z" fill="#C1D8ED"/>
</g>
<path d="M427.422 329.3C429.126 329.3 430.507 327.946 430.507 326.276C430.507 324.606 429.126 323.252 427.422 323.252C425.717 323.252 424.336 324.606 424.336 326.276C424.336 327.946 425.717 329.3 427.422 329.3Z" fill="#F3F5FD"/>
<path d="M467.708 302.855H423.025V312.232H467.708V302.855Z" fill="#DEE8F5"/>
<path d="M457.083 304.967H425.902V310.12H457.083V304.967Z" fill="#F3F5FD"/>
<g opacity="0.62">
<path d="M464.061 302.855H459.957V312.232H464.061V302.855Z" fill="#C1D8ED"/>
</g>
<path d="M442.594 321.599H484.847V312.222H442.594V321.599Z" fill="#C1D8ED"/>
<path d="M425.745 321.599H470.428V312.222H425.745V321.599Z" fill="#F3F5FD"/>
<path d="M429.393 321.599H431.562V312.222H429.393V321.599Z" fill="#DEE8F5"/>
<path d="M433.73 321.599H435.899V312.222H433.73V321.599Z" fill="#DEE8F5"/>
<path d="M465.306 319.934C467.01 319.934 468.392 318.58 468.392 316.91C468.392 315.24 467.01 313.886 465.306 313.886C463.602 313.886 462.22 315.24 462.22 316.91C462.22 318.58 463.602 319.934 465.306 319.934Z" fill="#DEE8F5"/>
<path d="M458.967 314.611H439.242V319.208H458.967V314.611Z" fill="#DEE8F5"/>
</g>
<defs>
<clipPath id="clip0_604_3725">
<rect width="536" height="342.419" fill="white" transform="translate(0.5)"/>
</clipPath>
</defs>
</svg>
