<svg width="537" height="426" viewBox="0 0 537 426" fill="none" xmlns="http://www.w3.org/2000/svg">
<g clip-path="url(#clip0_604_3347)">
<path d="M204.875 54.2803C207.496 46.7494 205.575 39.2812 200.583 37.5995C195.591 35.9179 189.419 40.6596 186.798 48.1905C184.177 55.7214 186.098 63.1897 191.09 64.8713C196.082 66.553 202.254 61.8112 204.875 54.2803Z" fill="#F4F4F4"/>
<path d="M187.1 48.1719C190.656 46.5952 191.552 40.9835 189.102 35.6378C186.653 30.2921 181.785 27.2367 178.23 28.8134C174.674 30.3901 173.778 36.0018 176.228 41.3475C178.677 46.6932 183.545 49.7486 187.1 48.1719Z" fill="#F4F4F4"/>
<path d="M180.376 60.5953H199.393C201.066 60.5953 202.67 61.249 203.853 62.4125C205.036 63.576 205.7 65.1541 205.7 66.7996V75.3113C205.7 76.9568 205.036 78.5349 203.853 79.6984C202.67 80.862 201.066 81.5156 199.393 81.5156H180.376V60.5953Z" fill="#F4F4F4"/>
<g opacity="0.05">
<path d="M180.376 60.5953H199.393C201.066 60.5953 202.67 61.249 203.853 62.4125C205.036 63.576 205.7 65.1541 205.7 66.7996V75.3113C205.7 76.9568 205.036 78.5349 203.853 79.6984C202.67 80.862 201.066 81.5156 199.393 81.5156H180.376V60.5953Z" fill="#292A2E"/>
</g>
<g opacity="0.05">
<path d="M203.271 46.1526H203.247C203.209 46.1487 203.172 46.1357 203.14 46.1146C203.109 46.0935 203.082 46.065 203.064 46.0316C202.994 45.8643 202.989 45.677 203.051 45.5064C203.16 45.0542 203.133 44.5806 202.972 44.1434C202.962 44.115 202.957 44.0848 202.958 44.0545C202.959 44.0242 202.966 43.9944 202.979 43.9668C202.991 43.9392 203.01 43.9144 203.032 43.8937C203.055 43.8731 203.081 43.857 203.11 43.8464C203.139 43.8358 203.17 43.8309 203.2 43.8319C203.231 43.833 203.261 43.84 203.29 43.8526C203.318 43.8652 203.343 43.8831 203.364 43.9052C203.385 43.9274 203.401 43.9535 203.412 43.9818C203.566 44.3991 203.619 44.8458 203.566 45.2867C203.839 45.0427 204.143 44.8358 204.471 44.6714C204.526 44.6461 204.589 44.643 204.647 44.6627C204.704 44.6825 204.752 44.7235 204.779 44.777C204.807 44.8306 204.812 44.8926 204.794 44.9498C204.775 45.007 204.735 45.055 204.682 45.0836C204.207 45.326 203.789 45.6619 203.452 46.0704C203.43 46.0964 203.402 46.1172 203.371 46.1314C203.34 46.1456 203.306 46.1528 203.271 46.1526Z" fill="#292A2E"/>
<path d="M196.159 40.6577C196.129 40.6576 196.098 40.6516 196.07 40.6401C195.907 40.5556 195.784 40.4136 195.723 40.2427C195.525 39.8275 195.204 39.4804 194.803 39.2462C194.749 39.2156 194.71 39.1651 194.694 39.1059C194.677 39.0467 194.686 38.9836 194.717 38.9305C194.748 38.8774 194.799 38.8386 194.859 38.8226C194.92 38.8067 194.984 38.815 195.038 38.8456C195.421 39.0674 195.744 39.376 195.981 39.7456C196.036 39.3821 196.14 39.0271 196.288 38.6896C196.314 38.6354 196.36 38.5933 196.417 38.5722C196.475 38.5512 196.538 38.5529 196.594 38.5769C196.649 38.6009 196.694 38.6453 196.717 38.7008C196.74 38.7563 196.74 38.8185 196.717 38.8742C196.505 39.366 196.396 39.8945 196.395 40.4287C196.395 40.4899 196.37 40.5486 196.326 40.5919C196.282 40.6352 196.222 40.6595 196.16 40.6595L196.159 40.6577Z" fill="#292A2E"/>
<path d="M190.163 48.1008C190.132 48.1007 190.102 48.0949 190.073 48.0837C189.912 48.0001 189.789 47.8592 189.729 47.6896C189.53 47.2729 189.208 46.9245 188.806 46.6893C188.752 46.6587 188.713 46.6083 188.697 46.5491C188.68 46.4899 188.689 46.4268 188.72 46.3736C188.751 46.3205 188.802 46.2817 188.862 46.2658C188.923 46.2499 188.987 46.2581 189.041 46.2887C189.424 46.5107 189.747 46.8194 189.984 47.1892C190.039 46.8255 190.142 46.4704 190.29 46.1327C190.316 46.0785 190.363 46.0364 190.42 46.0154C190.477 45.9944 190.54 45.996 190.596 46.02C190.652 46.044 190.696 46.0885 190.719 46.144C190.742 46.1995 190.743 46.2616 190.72 46.3173C190.508 46.809 190.399 47.3374 190.398 47.8714C190.398 47.9326 190.373 47.9913 190.329 48.0346C190.285 48.0779 190.226 48.1022 190.163 48.1022L190.163 48.1008Z" fill="#292A2E"/>
<path d="M196.528 46.9755C196.498 46.9754 196.468 46.9696 196.439 46.9584C196.277 46.8742 196.153 46.7323 196.093 46.5615C195.894 46.1461 195.573 45.7987 195.172 45.5636C195.145 45.5485 195.122 45.5283 195.103 45.5042C195.084 45.4802 195.071 45.4527 195.063 45.4234C195.055 45.3941 195.053 45.3636 195.057 45.3335C195.061 45.3034 195.071 45.2744 195.086 45.2481C195.101 45.2219 195.122 45.1988 195.146 45.1803C195.171 45.1619 195.199 45.1483 195.229 45.1404C195.258 45.1326 195.289 45.1306 195.32 45.1345C195.351 45.1384 195.38 45.1483 195.407 45.1634C195.789 45.3854 196.112 45.6938 196.349 46.063C196.404 45.6996 196.507 45.3447 196.655 45.0074C196.667 44.9787 196.684 44.9527 196.706 44.9307C196.729 44.9088 196.755 44.8914 196.784 44.8797C196.813 44.868 196.844 44.8621 196.876 44.8625C196.907 44.8628 196.938 44.8694 196.967 44.8817C196.996 44.8941 197.022 44.912 197.043 44.9345C197.065 44.9569 197.082 44.9834 197.093 45.0123C197.104 45.0412 197.109 45.0721 197.107 45.1029C197.106 45.1338 197.098 45.1641 197.085 45.1921C196.873 45.6837 196.763 46.2124 196.763 46.7466C196.763 46.8078 196.738 46.8665 196.694 46.9098C196.65 46.9531 196.59 46.9774 196.528 46.9774V46.9755Z" fill="#292A2E"/>
<path d="M200.577 53.4817C200.52 53.4821 200.464 53.4616 200.421 53.4242C200.377 53.3867 200.35 53.3349 200.343 53.2786C200.337 53.0984 200.401 52.9227 200.52 52.7861C200.787 52.4036 200.934 51.9525 200.943 51.4887C200.943 51.4275 200.967 51.3688 201.011 51.3255C201.055 51.2822 201.115 51.2579 201.177 51.2579C201.239 51.2579 201.299 51.2822 201.343 51.3255C201.387 51.3688 201.412 51.4275 201.412 51.4887C201.404 51.9346 201.29 52.3725 201.078 52.7668C201.422 52.6394 201.783 52.5587 202.15 52.5267C202.181 52.5242 202.212 52.5277 202.241 52.537C202.271 52.5463 202.298 52.5611 202.321 52.5808C202.345 52.6004 202.364 52.6245 202.379 52.6515C202.393 52.6785 202.401 52.7081 202.404 52.7384C202.406 52.7687 202.403 52.7992 202.393 52.8281C202.384 52.8571 202.369 52.884 202.349 52.9072C202.329 52.9304 202.305 52.9495 202.277 52.9634C202.25 52.9773 202.22 52.9858 202.189 52.9883C201.661 53.0377 201.15 53.1949 200.687 53.4499C200.654 53.4695 200.616 53.4805 200.577 53.4817V53.4817Z" fill="#292A2E"/>
<path d="M190.699 57.4918C190.667 57.4913 190.635 57.4844 190.605 57.4715C190.446 57.3815 190.327 57.2356 190.272 57.063C190.086 56.642 189.776 56.2853 189.383 56.0383C189.356 56.0226 189.333 56.0019 189.314 55.9773C189.296 55.9527 189.283 55.9247 189.275 55.895C189.268 55.8653 189.267 55.8345 189.271 55.8043C189.276 55.7741 189.287 55.7452 189.303 55.7192C189.32 55.6931 189.341 55.6706 189.366 55.6528C189.392 55.635 189.42 55.6223 189.451 55.6154C189.481 55.6086 189.512 55.6077 189.543 55.6129C189.573 55.618 189.603 55.6291 189.629 55.6455C190.004 55.8791 190.318 56.1975 190.543 56.5742C190.61 56.2127 190.724 55.8611 190.882 55.5283C190.911 55.4776 190.959 55.4397 191.016 55.4222C191.072 55.4047 191.134 55.409 191.187 55.4342C191.241 55.4593 191.282 55.5035 191.304 55.5578C191.326 55.6121 191.326 55.6725 191.304 55.7268C191.077 56.2116 190.951 56.7363 190.934 57.2698C190.933 57.3075 190.922 57.3444 190.903 57.3771C190.883 57.4097 190.856 57.4372 190.823 57.4572C190.786 57.4797 190.743 57.4917 190.699 57.4918V57.4918Z" fill="#292A2E"/>
<path d="M196.577 59.6339C196.569 59.6343 196.561 59.6343 196.553 59.6339C196.514 59.6301 196.477 59.6171 196.445 59.5959C196.413 59.5747 196.387 59.5461 196.369 59.5125C196.299 59.3459 196.294 59.1599 196.355 58.99C196.465 58.5371 196.438 58.0627 196.277 57.6247C196.255 57.5674 196.257 57.5039 196.283 57.4482C196.309 57.3924 196.356 57.349 196.414 57.3275C196.472 57.3059 196.537 57.308 196.594 57.3333C196.65 57.3586 196.694 57.4049 196.716 57.4622C196.871 57.8797 196.924 58.3268 196.871 58.768C197.143 58.5238 197.447 58.3167 197.775 58.1523C197.831 58.1252 197.895 58.1209 197.954 58.1402C198.012 58.1595 198.061 58.2008 198.089 58.2552C198.117 58.3096 198.122 58.3727 198.102 58.4306C198.083 58.4885 198.042 58.5366 197.986 58.5644C197.512 58.807 197.094 59.143 196.757 59.5517C196.735 59.5776 196.707 59.5984 196.676 59.6126C196.645 59.6268 196.611 59.634 196.577 59.6339Z" fill="#292A2E"/>
</g>
<g opacity="0.05">
<path d="M186.04 37.6123H186.016C185.978 37.6084 185.941 37.5953 185.909 37.5742C185.877 37.553 185.851 37.5244 185.833 37.4909C185.762 37.3235 185.758 37.1362 185.82 36.9656C185.929 36.5134 185.901 36.0397 185.741 35.6026C185.719 35.5453 185.721 35.4818 185.747 35.4261C185.773 35.3704 185.82 35.327 185.879 35.3056C185.937 35.2842 186.001 35.2864 186.058 35.3118C186.115 35.3372 186.159 35.3837 186.181 35.4411C186.335 35.8582 186.388 36.305 186.335 36.7459C186.607 36.5021 186.911 36.2954 187.239 36.1311C187.295 36.1066 187.357 36.104 187.414 36.1238C187.471 36.1436 187.518 36.1844 187.545 36.2375C187.573 36.2906 187.578 36.352 187.56 36.4089C187.543 36.4658 187.503 36.5138 187.451 36.5428C186.976 36.7853 186.558 37.1212 186.221 37.5296C186.199 37.5556 186.171 37.5765 186.14 37.5908C186.109 37.605 186.075 37.6124 186.04 37.6123Z" fill="#292A2E"/>
<path d="M181.109 32.4479C181.078 32.4477 181.048 32.4419 181.02 32.4308C180.857 32.3467 180.734 32.2049 180.674 32.0343C180.475 31.6185 180.154 31.2709 179.752 31.0364C179.698 31.0058 179.659 30.9553 179.643 30.8961C179.627 30.8369 179.635 30.7738 179.666 30.7207C179.697 30.6676 179.749 30.6288 179.809 30.6128C179.869 30.5969 179.933 30.6052 179.987 30.6358C180.369 30.858 180.692 31.1665 180.93 31.5358C180.985 31.1723 181.088 30.8173 181.236 30.4798C181.262 30.4255 181.308 30.3835 181.365 30.3624C181.422 30.3414 181.486 30.3431 181.541 30.3671C181.597 30.3911 181.641 30.4355 181.665 30.491C181.688 30.5465 181.688 30.6087 181.665 30.6644C181.453 31.156 181.344 31.6845 181.343 32.2185C181.343 32.2562 181.333 32.2933 181.315 32.3264C181.297 32.3596 181.27 32.3878 181.238 32.4086C181.2 32.4341 181.155 32.4478 181.109 32.4479Z" fill="#292A2E"/>
<path d="M180.318 37.9404C180.287 37.9405 180.257 37.9346 180.229 37.9229C180.066 37.8384 179.942 37.6963 179.882 37.5255C179.683 37.1105 179.363 36.7634 178.962 36.529C178.908 36.4984 178.869 36.4479 178.853 36.3888C178.837 36.3296 178.845 36.2666 178.876 36.2135C178.907 36.1604 178.959 36.1217 179.019 36.1058C179.079 36.0899 179.143 36.0982 179.197 36.1288C179.58 36.3505 179.903 36.6589 180.14 37.0284C180.195 36.665 180.298 36.3102 180.446 35.9728C180.472 35.9186 180.519 35.8765 180.576 35.8555C180.633 35.8344 180.696 35.8361 180.752 35.8601C180.808 35.8841 180.852 35.9286 180.875 35.9841C180.898 36.0396 180.899 36.1017 180.876 36.1574C180.664 36.6492 180.554 37.1778 180.553 37.712C180.553 37.7728 180.528 37.8309 180.484 37.8737C180.44 37.9164 180.38 37.9404 180.319 37.9404H180.318Z" fill="#292A2E"/>
<path d="M184.368 44.4485C184.31 44.4489 184.254 44.4283 184.211 44.3906C184.168 44.353 184.14 44.3009 184.134 44.2445C184.129 44.0647 184.193 43.8896 184.311 43.7529C184.578 43.3702 184.725 42.9189 184.734 42.455C184.734 42.3938 184.758 42.3351 184.802 42.2918C184.846 42.2485 184.906 42.2242 184.968 42.2242C185.03 42.2242 185.09 42.2485 185.134 42.2918C185.178 42.3351 185.203 42.3938 185.203 42.455C185.195 42.9009 185.081 43.3388 184.869 43.7331C185.213 43.6053 185.574 43.5244 185.941 43.4926C186.002 43.4893 186.063 43.5094 186.11 43.5487C186.157 43.588 186.187 43.6436 186.194 43.704C186.199 43.7649 186.179 43.8254 186.139 43.872C186.099 43.9187 186.041 43.9477 185.979 43.9528C185.452 44.0018 184.94 44.1591 184.478 44.4143C184.445 44.4346 184.407 44.4464 184.368 44.4485V44.4485Z" fill="#292A2E"/>
<path d="M179.461 43.0176C179.295 43.0029 179.139 42.9349 179.016 42.8242C178.649 42.5487 178.205 42.3899 177.744 42.3691C177.682 42.3672 177.623 42.3411 177.581 42.2965C177.538 42.2519 177.515 42.1926 177.517 42.1314C177.518 42.101 177.524 42.0709 177.537 42.0431C177.549 42.0152 177.567 41.9901 177.59 41.9692C177.612 41.9484 177.639 41.9321 177.668 41.9215C177.697 41.911 177.728 41.9062 177.759 41.9076C178.201 41.926 178.631 42.0499 179.014 42.2685C178.894 41.9165 178.822 41.5506 178.798 41.1801C178.795 41.1191 178.816 41.0591 178.858 41.0135C178.899 40.9679 178.957 40.9403 179.019 40.9369C179.051 40.9335 179.082 40.9366 179.112 40.946C179.141 40.9553 179.169 40.9707 179.192 40.9912C179.216 41.0117 179.234 41.0367 179.247 41.0647C179.26 41.0927 179.267 41.1231 179.267 41.1538C179.304 41.6863 179.449 42.2061 179.693 42.6825C179.71 42.7159 179.719 42.7528 179.718 42.7901C179.717 42.8274 179.708 42.8639 179.689 42.8967C179.671 42.9294 179.645 42.9572 179.613 42.9777C179.582 42.9983 179.546 43.0111 179.508 43.0148C179.492 43.0167 179.476 43.0176 179.461 43.0176V43.0176Z" fill="#292A2E"/>
</g>
<path d="M115.8 81.0462H168.117V66.2762H115.8V81.0462Z" fill="#F4F4F4"/>
<path opacity="0.05" d="M115.8 81.0462H168.117V66.2762H115.8V81.0462Z" fill="#292A2E"/>
<path d="M122.826 81.0462H129.681V66.2762H122.826V81.0462Z" fill="white"/>
<path d="M132.928 77.8361H161.432V69.0835H132.928V77.8361Z" fill="white"/>
<path d="M103.326 66.2905H154.924V51.5205L103.326 51.5205V66.2905Z" fill="#F4F4F4"/>
<path opacity="0.05" d="M141.234 66.2905H147.995V51.5205H141.234V66.2905Z" fill="#292A2E"/>
<path d="M109.919 63.0804H138.031V54.3277H109.919V63.0804Z" fill="white"/>
<path d="M78.132 81.046L112.121 41.9187L100.708 32.323L66.7185 71.4503L78.132 81.046Z" fill="#F4F4F4"/>
<path opacity="0.05" d="M82.6965 75.7916L87.1504 70.6645L75.737 61.0688L71.2831 66.196L82.6965 75.7916Z" fill="#292A2E"/>
<path opacity="0.05" d="M86.7791 66.1505L105.297 44.8328L98.5338 39.1465L80.0155 60.4642L86.7791 66.1505Z" fill="#292A2E"/>
<path d="M211.151 80.7767H60.0918V86.6164H211.151V80.7767Z" fill="#F4F4F4"/>
<path d="M446.109 0.461548H248.752C244.539 0.461548 241.124 3.82165 241.124 7.96655V236.565C241.124 240.71 244.539 244.07 248.752 244.07H446.109C450.322 244.07 453.738 240.71 453.738 236.565V7.96655C453.738 3.82165 450.322 0.461548 446.109 0.461548Z" fill="white"/>
<path d="M446.109 244.532H248.752C246.605 244.529 244.547 243.689 243.029 242.196C241.511 240.702 240.657 238.677 240.654 236.565V7.96657C240.657 5.85445 241.511 3.82954 243.029 2.33605C244.547 0.84256 246.605 0.00244317 248.752 0H446.109C448.256 0.00244317 450.314 0.84256 451.832 2.33605C453.35 3.82954 454.204 5.85445 454.207 7.96657V236.565C454.204 238.677 453.35 240.702 451.832 242.196C450.314 243.689 448.256 244.529 446.109 244.532V244.532ZM248.752 0.923125C246.854 0.925324 245.034 1.6681 243.692 2.98853C242.35 4.30896 241.595 6.09921 241.593 7.96657V236.565C241.595 238.432 242.35 240.223 243.692 241.543C245.034 242.864 246.854 243.606 248.752 243.609H446.109C448.007 243.606 449.827 242.864 451.169 241.543C452.511 240.223 453.266 238.432 453.268 236.565V7.96657C453.266 6.09921 452.511 4.30896 451.169 2.98853C449.827 1.6681 448.007 0.925324 446.109 0.923125H248.752Z" fill="#292A2E"/>
<path d="M369.776 37.3183C372.302 37.3183 374.349 35.3041 374.349 32.8194C374.349 30.3348 372.302 28.3206 369.776 28.3206C367.251 28.3206 365.203 30.3348 365.203 32.8194C365.203 35.3041 367.251 37.3183 369.776 37.3183Z" fill="#0F233B"/>
<path d="M369.776 37.3183C372.302 37.3183 374.349 35.3041 374.349 32.8194C374.349 30.3348 372.302 28.3206 369.776 28.3206C367.251 28.3206 365.203 30.3348 365.203 32.8194C365.203 35.3041 367.251 37.3183 369.776 37.3183Z" fill="#0F233B"/>
<path d="M369.776 60.2505C372.302 60.2505 374.349 58.2363 374.349 55.7517C374.349 53.267 372.302 51.2528 369.776 51.2528C367.251 51.2528 365.203 53.267 365.203 55.7517C365.203 58.2363 367.251 60.2505 369.776 60.2505Z" fill="#292A2E"/>
<path opacity="0.5" d="M369.776 83.1828C372.302 83.1828 374.349 81.1686 374.349 78.6839C374.349 76.1993 372.302 74.1851 369.776 74.1851C367.251 74.1851 365.203 76.1993 365.203 78.6839C365.203 81.1686 367.251 83.1828 369.776 83.1828Z" fill="#0F233B"/>
<path opacity="0.2" d="M369.776 106.115C372.302 106.115 374.349 104.101 374.349 101.616C374.349 99.1316 372.302 97.1174 369.776 97.1174C367.251 97.1174 365.203 99.1316 365.203 101.616C365.203 104.101 367.251 106.115 369.776 106.115Z" fill="#0F233B"/>
<path d="M279.003 67.2178C279.005 72.7014 280.734 78.0496 283.954 82.526C287.173 87.0024 291.724 90.3867 296.98 92.2128L289.588 109.944C279.422 106.175 270.922 99.0161 265.57 89.715C260.217 80.414 258.351 69.5603 260.298 59.045C262.244 48.5298 267.878 39.0195 276.219 32.1712C284.56 25.3229 295.08 21.5707 305.944 21.5684V40.7144C298.799 40.7144 291.946 43.5067 286.894 48.4771C281.842 53.4474 279.003 60.1886 279.003 67.2178Z" fill="#292A2E"/>
<path d="M352.346 67.2178H332.884C332.884 60.1887 330.046 53.4474 324.993 48.4771C319.941 43.5067 313.089 40.7144 305.944 40.7144V21.5684C318.25 21.5691 330.052 26.3788 338.754 34.9396C347.456 43.5004 352.345 55.111 352.346 67.2178V67.2178Z" fill="#0F233B"/>
<path opacity="0.5" d="M352.346 67.2178C352.344 77.5615 348.774 87.5985 342.219 95.6857C335.663 103.773 326.511 109.431 316.261 111.735L312.964 92.8105C318.681 91.2906 323.73 87.9605 327.331 83.3349C330.931 78.7093 332.883 73.0457 332.884 67.2196L352.346 67.2178Z" fill="#0F233B"/>
<path opacity="0.2" d="M316.261 111.735C307.383 113.713 298.111 113.091 289.588 109.946L296.98 92.2128C302.125 93.9892 307.696 94.1969 312.964 92.8087L316.261 111.735Z" fill="#0F233B"/>
<path d="M433.39 33.1457H380.421C380.333 33.1457 380.249 33.1113 380.186 33.0501C380.124 32.9889 380.089 32.9059 380.089 32.8194C380.089 32.7329 380.124 32.6498 380.186 32.5886C380.249 32.5275 380.333 32.4931 380.421 32.4931H433.39C433.478 32.4931 433.563 32.5275 433.625 32.5886C433.687 32.6498 433.722 32.7329 433.722 32.8194C433.722 32.9059 433.687 32.9889 433.625 33.0501C433.563 33.1113 433.478 33.1457 433.39 33.1457V33.1457Z" fill="#0F233B"/>
<path d="M433.39 56.0798H380.421C380.333 56.0798 380.249 56.0455 380.186 55.9843C380.124 55.9231 380.089 55.8401 380.089 55.7535C380.089 55.667 380.124 55.584 380.186 55.5228C380.249 55.4616 380.333 55.4272 380.421 55.4272H433.39C433.478 55.4272 433.563 55.4616 433.625 55.5228C433.687 55.584 433.722 55.667 433.722 55.7535C433.722 55.8401 433.687 55.9231 433.625 55.9843C433.563 56.0455 433.478 56.0798 433.39 56.0798V56.0798Z" fill="#292A2E"/>
<g opacity="0.5">
<path d="M433.39 79.0103H380.421C380.376 79.0119 380.332 79.0047 380.29 78.9891C380.248 78.9734 380.21 78.9497 380.178 78.9192C380.146 78.8888 380.121 78.8523 380.103 78.8119C380.086 78.7715 380.077 78.7281 380.077 78.6842C380.077 78.6403 380.086 78.5969 380.103 78.5565C380.121 78.5161 380.146 78.4796 380.178 78.4491C380.21 78.4187 380.248 78.3949 380.29 78.3793C380.332 78.3636 380.376 78.3564 380.421 78.3581H433.39C433.435 78.3564 433.479 78.3636 433.521 78.3793C433.563 78.3949 433.601 78.4187 433.633 78.4491C433.665 78.4796 433.69 78.5161 433.708 78.5565C433.725 78.5969 433.734 78.6403 433.734 78.6842C433.734 78.7281 433.725 78.7715 433.708 78.8119C433.69 78.8523 433.665 78.8888 433.633 78.9192C433.601 78.9497 433.563 78.9734 433.521 78.9891C433.479 79.0047 433.435 79.0119 433.39 79.0103V79.0103Z" fill="#0F233B"/>
</g>
<g opacity="0.2">
<path d="M433.39 101.943H380.421C380.376 101.944 380.332 101.937 380.29 101.921C380.248 101.906 380.21 101.882 380.178 101.851C380.146 101.821 380.121 101.785 380.103 101.744C380.086 101.704 380.077 101.66 380.077 101.616C380.077 101.573 380.086 101.529 380.103 101.489C380.121 101.448 380.146 101.412 380.178 101.381C380.21 101.351 380.248 101.327 380.29 101.312C380.332 101.296 380.376 101.289 380.421 101.29H433.39C433.435 101.289 433.479 101.296 433.521 101.312C433.563 101.327 433.601 101.351 433.633 101.381C433.665 101.412 433.69 101.448 433.708 101.489C433.725 101.529 433.734 101.573 433.734 101.616C433.734 101.66 433.725 101.704 433.708 101.744C433.69 101.785 433.665 101.821 433.633 101.851C433.601 101.882 433.563 101.906 433.521 101.921C433.479 101.937 433.435 101.944 433.39 101.943Z" fill="#0F233B"/>
</g>
<g opacity="0.1">
<path d="M433.619 226.577H261.243C259.744 226.576 258.307 225.989 257.246 224.947C256.186 223.904 255.59 222.49 255.588 221.016V135.099C255.59 133.625 256.186 132.211 257.246 131.169C258.305 130.126 259.742 129.54 261.241 129.538H433.619C435.118 129.54 436.554 130.127 437.614 131.169C438.674 132.212 439.27 133.625 439.272 135.099V221.016C439.27 222.49 438.674 223.903 437.614 224.946C436.554 225.989 435.118 226.575 433.619 226.577V226.577Z" fill="#0F233B"/>
</g>
<path opacity="0.5" d="M279.087 149.028H275.731C275.226 149.028 274.816 149.431 274.816 149.927V212.996C274.816 213.493 275.226 213.895 275.731 213.895H279.087C279.592 213.895 280.001 213.493 280.001 212.996V149.927C280.001 149.431 279.592 149.028 279.087 149.028Z" fill="#0F233B"/>
<path d="M273.902 169.402H270.546C270.041 169.402 269.632 169.804 269.632 170.301V212.996C269.632 213.493 270.041 213.896 270.546 213.896H273.902C274.407 213.896 274.817 213.493 274.817 212.996V170.301C274.817 169.804 274.407 169.402 273.902 169.402Z" fill="#0F233B"/>
<path opacity="0.5" d="M320.581 205.688H317.225C316.72 205.688 316.311 206.091 316.311 206.588V212.996C316.311 213.493 316.72 213.896 317.225 213.896H320.581C321.086 213.896 321.495 213.493 321.495 212.996V206.588C321.495 206.091 321.086 205.688 320.581 205.688Z" fill="#0F233B"/>
<path d="M315.396 165.738H312.04C311.535 165.738 311.125 166.141 311.125 166.638V212.996C311.125 213.493 311.535 213.895 312.04 213.895H315.396C315.901 213.895 316.31 213.493 316.31 212.996V166.638C316.31 166.141 315.901 165.738 315.396 165.738Z" fill="#0F233B"/>
<path opacity="0.5" d="M299.834 175.068H296.478C295.973 175.068 295.564 175.471 295.564 175.967V212.996C295.564 213.493 295.973 213.895 296.478 213.895H299.834C300.339 213.895 300.749 213.493 300.749 212.996V175.967C300.749 175.471 300.339 175.068 299.834 175.068Z" fill="#0F233B"/>
<path d="M294.649 188.484H291.293C290.788 188.484 290.378 188.886 290.378 189.383V212.996C290.378 213.493 290.788 213.895 291.293 213.895H294.649C295.154 213.895 295.563 213.493 295.563 212.996V189.383C295.563 188.886 295.154 188.484 294.649 188.484Z" fill="#0F233B"/>
<path opacity="0.5" d="M382.821 161.574H379.465C378.96 161.574 378.551 161.976 378.551 162.473V212.996C378.551 213.493 378.96 213.896 379.465 213.896H382.821C383.326 213.896 383.736 213.493 383.736 212.996V162.473C383.736 161.976 383.326 161.574 382.821 161.574Z" fill="#0F233B"/>
<path d="M377.637 180.837H374.281C373.776 180.837 373.366 181.24 373.366 181.737V212.996C373.366 213.493 373.776 213.896 374.281 213.896H377.637C378.142 213.896 378.551 213.493 378.551 212.996V181.737C378.551 181.24 378.142 180.837 377.637 180.837Z" fill="#0F233B"/>
<path opacity="0.5" d="M341.328 169.735H337.972C337.467 169.735 337.057 170.138 337.057 170.635V212.996C337.057 213.493 337.467 213.895 337.972 213.895H341.328C341.833 213.895 342.242 213.493 342.242 212.996V170.635C342.242 170.138 341.833 169.735 341.328 169.735Z" fill="#0F233B"/>
<path d="M336.142 174.735H332.786C332.281 174.735 331.872 175.137 331.872 175.634V212.996C331.872 213.493 332.281 213.895 332.786 213.895H336.142C336.647 213.895 337.057 213.493 337.057 212.996V175.634C337.057 175.137 336.647 174.735 336.142 174.735Z" fill="#0F233B"/>
<path opacity="0.5" d="M362.075 149.028H358.719C358.214 149.028 357.804 149.431 357.804 149.927V212.996C357.804 213.493 358.214 213.895 358.719 213.895H362.075C362.58 213.895 362.989 213.493 362.989 212.996V149.927C362.989 149.431 362.58 149.028 362.075 149.028Z" fill="#0F233B"/>
<path d="M356.89 152.153H353.534C353.029 152.153 352.619 152.555 352.619 153.052V212.996C352.619 213.493 353.029 213.895 353.534 213.895H356.89C357.395 213.895 357.804 213.493 357.804 212.996V153.052C357.804 152.555 357.395 152.153 356.89 152.153Z" fill="#0F233B"/>
<path opacity="0.5" d="M403.568 149.028H400.212C399.707 149.028 399.297 149.431 399.297 149.927V212.996C399.297 213.493 399.707 213.895 400.212 213.895H403.568C404.073 213.895 404.482 213.493 404.482 212.996V149.927C404.482 149.431 404.073 149.028 403.568 149.028Z" fill="#0F233B"/>
<path d="M398.383 169.402H395.027C394.522 169.402 394.113 169.804 394.113 170.301V212.996C394.113 213.493 394.522 213.896 395.027 213.896H398.383C398.888 213.896 399.298 213.493 399.298 212.996V170.301C399.298 169.804 398.888 169.402 398.383 169.402Z" fill="#0F233B"/>
<path opacity="0.5" d="M424.315 175.068H420.959C420.454 175.068 420.044 175.471 420.044 175.967V212.996C420.044 213.493 420.454 213.895 420.959 213.895H424.315C424.82 213.895 425.229 213.493 425.229 212.996V175.967C425.229 175.471 424.82 175.068 424.315 175.068Z" fill="#0F233B"/>
<path d="M419.13 188.484H415.774C415.269 188.484 414.859 188.886 414.859 189.383V212.996C414.859 213.493 415.269 213.895 415.774 213.895H419.13C419.635 213.895 420.044 213.493 420.044 212.996V189.383C420.044 188.886 419.635 188.484 419.13 188.484Z" fill="#0F233B"/>
<path d="M143.046 425.528L142.125 425.354L156.527 284.563L157.448 284.737L143.046 425.528Z" fill="#494949"/>
<path d="M196.671 425.528L195.75 425.354L210.151 284.563L211.073 284.737L196.671 425.528Z" fill="#494949"/>
<path d="M315.207 425.528L316.128 425.354L301.727 284.563L300.805 284.737L315.207 425.528Z" fill="#494949"/>
<path d="M261.581 425.528L262.503 425.354L248.101 284.563L247.18 284.737L261.581 425.528Z" fill="#494949"/>
<path d="M242.483 222.602L241.553 222.724L249.966 284.714L250.896 284.592L242.483 222.602Z" fill="#494949"/>
<path d="M145.915 222.601L144.985 222.723L153.398 284.713L154.329 284.591L145.915 222.601Z" fill="#494949"/>
<path d="M250.815 280.111H156.361C153.813 280.111 151.747 282.143 151.747 284.65V284.651C151.747 287.158 153.813 289.19 156.361 289.19H250.815C253.363 289.19 255.429 287.158 255.429 284.651V284.65C255.429 282.143 253.363 280.111 250.815 280.111Z" fill="#292A2E"/>
<path opacity="0.8" d="M250.815 280.111H156.361C153.813 280.111 151.747 282.143 151.747 284.65V284.651C151.747 287.158 153.813 289.19 156.361 289.19H250.815C253.363 289.19 255.429 287.158 255.429 284.651V284.65C255.429 282.143 253.363 280.111 250.815 280.111Z" fill="white"/>
<path d="M250.815 289.652H156.362C155.022 289.639 153.741 289.107 152.798 288.17C151.856 287.233 151.327 285.969 151.327 284.65C151.327 283.332 151.856 282.067 152.798 281.131C153.741 280.194 155.022 279.662 156.362 279.649H250.815C251.486 279.643 252.153 279.767 252.775 280.016C253.398 280.264 253.964 280.632 254.441 281.097C254.918 281.562 255.297 282.115 255.556 282.725C255.814 283.335 255.948 283.99 255.948 284.65C255.948 285.311 255.814 285.966 255.556 286.575C255.297 287.185 254.918 287.739 254.441 288.204C253.964 288.669 253.398 289.036 252.775 289.285C252.153 289.533 251.486 289.658 250.815 289.652ZM156.362 280.572C155.27 280.584 154.227 281.018 153.459 281.782C152.691 282.546 152.26 283.576 152.26 284.65C152.26 285.725 152.691 286.755 153.459 287.519C154.227 288.282 155.27 288.717 156.362 288.729H250.815C251.363 288.734 251.907 288.633 252.415 288.431C252.923 288.228 253.385 287.929 253.775 287.55C254.164 287.17 254.474 286.719 254.685 286.221C254.896 285.724 255.004 285.19 255.004 284.65C255.004 284.111 254.896 283.577 254.685 283.08C254.474 282.582 254.164 282.131 253.775 281.751C253.385 281.372 252.923 281.073 252.415 280.87C251.907 280.668 251.363 280.567 250.815 280.572H156.362Z" fill="#292A2E"/>
<path d="M302.656 280.111H208.203C205.654 280.111 203.588 282.143 203.588 284.65V284.651C203.588 287.158 205.654 289.19 208.203 289.19H302.656C305.205 289.19 307.27 287.158 307.27 284.651V284.65C307.27 282.143 305.205 280.111 302.656 280.111Z" fill="white"/>
<path d="M302.656 289.652H208.202C206.862 289.639 205.582 289.107 204.639 288.17C203.696 287.233 203.167 285.969 203.167 284.65C203.167 283.332 203.696 282.067 204.639 281.131C205.582 280.194 206.862 279.662 208.202 279.649H302.656C303.328 279.643 303.994 279.767 304.617 280.016C305.239 280.264 305.805 280.632 306.282 281.097C306.76 281.562 307.139 282.115 307.397 282.725C307.656 283.335 307.789 283.99 307.789 284.65C307.789 285.311 307.656 285.966 307.397 286.575C307.139 287.185 306.76 287.739 306.282 288.204C305.805 288.669 305.239 289.036 304.617 289.285C303.994 289.533 303.328 289.658 302.656 289.652V289.652ZM208.202 280.572C207.11 280.584 206.067 281.018 205.299 281.782C204.531 282.546 204.101 283.576 204.101 284.65C204.101 285.725 204.531 286.755 205.299 287.519C206.067 288.282 207.11 288.717 208.202 288.729H302.656C303.204 288.734 303.748 288.633 304.256 288.431C304.764 288.228 305.226 287.929 305.616 287.55C306.005 287.17 306.315 286.719 306.526 286.221C306.737 285.724 306.846 285.19 306.846 284.65C306.846 284.111 306.737 283.577 306.526 283.08C306.315 282.582 306.005 282.131 305.616 281.751C305.226 281.372 304.764 281.073 304.256 280.87C303.748 280.668 303.204 280.567 302.656 280.572H208.202Z" fill="#292A2E"/>
<path d="M237.308 222.66H145.704C144.206 222.661 142.76 222.124 141.635 221.152C140.509 220.18 139.782 218.838 139.588 217.377L133.529 171.599C133.416 170.744 133.49 169.874 133.745 169.048C134.001 168.223 134.432 167.461 135.011 166.812C135.59 166.164 136.302 165.644 137.102 165.289C137.901 164.933 138.768 164.749 139.645 164.749H231.249C232.747 164.749 234.193 165.285 235.319 166.257C236.444 167.229 237.171 168.571 237.365 170.032L243.423 215.81C243.537 216.666 243.463 217.535 243.208 218.361C242.952 219.186 242.521 219.949 241.942 220.597C241.363 221.245 240.651 221.765 239.852 222.121C239.052 222.476 238.185 222.661 237.308 222.66V222.66Z" fill="#292A2E"/>
<path opacity="0.8" d="M237.308 222.66H145.704C144.206 222.661 142.76 222.124 141.635 221.152C140.509 220.18 139.782 218.838 139.588 217.377L133.529 171.599C133.416 170.744 133.49 169.874 133.745 169.048C134.001 168.223 134.432 167.461 135.011 166.812C135.59 166.164 136.302 165.644 137.102 165.289C137.901 164.933 138.768 164.749 139.645 164.749H231.249C232.747 164.749 234.193 165.285 235.319 166.257C236.444 167.229 237.171 168.571 237.365 170.032L243.423 215.81C243.537 216.666 243.463 217.535 243.208 218.361C242.952 219.186 242.521 219.949 241.942 220.597C241.363 221.245 240.651 221.765 239.852 222.121C239.052 222.476 238.185 222.661 237.308 222.66V222.66Z" fill="white"/>
<path d="M237.309 223.122H145.704C144.094 223.118 142.539 222.54 141.329 221.495C140.119 220.449 139.335 219.007 139.123 217.437L133.064 171.659C132.942 170.738 133.022 169.802 133.297 168.914C133.571 168.026 134.036 167.205 134.659 166.508C135.281 165.81 136.048 165.251 136.908 164.868C137.768 164.485 138.701 164.287 139.645 164.287H231.249C232.86 164.291 234.415 164.869 235.625 165.915C236.835 166.96 237.618 168.402 237.83 169.973L243.889 215.75C244.011 216.671 243.932 217.607 243.657 218.495C243.382 219.384 242.918 220.204 242.295 220.902C241.672 221.599 240.905 222.158 240.045 222.541C239.185 222.924 238.252 223.122 237.309 223.122V223.122ZM139.645 165.21C138.835 165.21 138.034 165.38 137.295 165.709C136.557 166.038 135.898 166.518 135.364 167.117C134.829 167.716 134.43 168.42 134.194 169.183C133.958 169.946 133.89 170.749 133.995 171.54L140.054 217.317C140.236 218.666 140.908 219.904 141.948 220.802C142.987 221.7 144.321 222.196 145.704 222.199H237.309C238.119 222.199 238.92 222.029 239.658 221.7C240.396 221.371 241.055 220.891 241.59 220.292C242.124 219.693 242.523 218.989 242.759 218.226C242.995 217.464 243.063 216.66 242.959 215.87L236.899 170.092C236.718 168.743 236.045 167.505 235.006 166.607C233.967 165.71 232.632 165.213 231.249 165.21H139.645Z" fill="#292A2E"/>
<path d="M242.488 222.66H150.884C149.387 222.66 147.94 222.124 146.815 221.152C145.691 220.179 144.964 218.838 144.77 217.377L138.711 171.599C138.598 170.744 138.671 169.874 138.927 169.048C139.182 168.223 139.614 167.461 140.192 166.812C140.771 166.164 141.484 165.644 142.283 165.289C143.082 164.933 143.949 164.749 144.826 164.749H236.429C237.927 164.748 239.373 165.285 240.499 166.257C241.624 167.229 242.352 168.571 242.545 170.032L248.605 215.81C248.718 216.666 248.644 217.535 248.389 218.361C248.133 219.187 247.702 219.949 247.123 220.597C246.544 221.246 245.831 221.765 245.032 222.121C244.232 222.477 243.365 222.661 242.488 222.66V222.66Z" fill="white"/>
<path d="M242.488 223.122H150.884C149.273 223.119 147.719 222.54 146.508 221.495C145.298 220.449 144.515 219.007 144.303 217.437L138.244 171.659C138.122 170.738 138.201 169.802 138.476 168.914C138.751 168.026 139.216 167.205 139.839 166.508C140.462 165.81 141.228 165.251 142.088 164.868C142.948 164.485 143.881 164.287 144.825 164.287H236.429C238.039 164.291 239.594 164.869 240.804 165.915C242.015 166.96 242.798 168.402 243.01 169.973L249.067 215.75C249.189 216.671 249.109 217.607 248.834 218.495C248.559 219.383 248.095 220.204 247.472 220.901C246.849 221.599 246.082 222.158 245.222 222.541C244.363 222.924 243.43 223.122 242.486 223.122H242.488ZM144.825 165.21C144.015 165.21 143.214 165.38 142.475 165.709C141.737 166.038 141.079 166.518 140.544 167.117C140.009 167.716 139.61 168.42 139.374 169.183C139.138 169.946 139.07 170.749 139.175 171.54L145.234 217.317C145.415 218.666 146.088 219.904 147.127 220.802C148.166 221.699 149.501 222.196 150.884 222.199H242.488C243.298 222.199 244.1 222.029 244.838 221.7C245.576 221.371 246.235 220.891 246.769 220.292C247.304 219.693 247.703 218.989 247.939 218.226C248.175 217.464 248.243 216.66 248.138 215.87L242.079 170.092C241.897 168.743 241.225 167.505 240.185 166.607C239.146 165.71 237.812 165.213 236.429 165.21H144.825Z" fill="#292A2E"/>
<path d="M310.031 401.471C310.031 401.471 312.546 414.299 324.756 415.014C336.965 415.729 334.315 425.297 334.315 425.297H287.661V402.365L310.031 401.471Z" fill="#0F233B"/>
<path d="M263.476 393.371C263.476 393.371 259.978 405.975 270.613 411.918C281.247 417.862 274.578 425.298 274.578 425.298L232.713 405.035L243.002 384.458L263.476 393.371Z" fill="#0F233B"/>
<path d="M237.546 389.811L282.235 280.241H227.626C214.77 280.241 209.412 269.516 209.412 256.871C209.412 244.225 222.049 233.139 234.904 233.139H311.889C319.729 233.139 328.52 237.856 332.823 244.304C337.126 250.752 335.963 260.744 332.846 267.821L266.927 402.905" fill="#262626"/>
<path opacity="0.8" d="M237.546 389.811L282.235 280.241H227.626C214.77 280.241 209.412 269.516 209.412 256.871C209.412 244.225 222.049 233.139 234.904 233.139H311.889C319.729 233.139 328.52 237.856 332.823 244.304C337.126 250.752 335.963 260.744 332.846 267.821L266.927 402.905" fill="#0A0A0A"/>
<path d="M284.013 410.667L258.771 280.241L209.41 280.236C191.248 278.835 182.93 269.043 183.195 256.4C183.456 243.917 189.881 231.588 202.512 231.588H278.831C288.177 231.776 298.997 240.474 298.997 250.477L318.5 409.152" fill="#262626"/>
<path d="M177.906 231.74C177.906 231.74 174.464 253.824 179.92 266.102C186.732 281.431 212.268 280.236 212.268 280.236L210.829 231.588L177.906 231.74Z" fill="#262626"/>
<path d="M191.378 94.0941C192.108 110.68 189.197 116.659 181.811 125.83C175.58 133.566 209.351 128.188 224.27 126.216L212.835 88.0878C212.835 88.0878 191.124 88.2697 191.378 94.0941Z" fill="#0A0A0A"/>
<path d="M241.448 89.7993C245.123 106 244.416 110.939 252.602 119.709C259.386 126.979 231.703 127.236 216.772 129.145L217.748 89.4042C217.748 89.4042 240.158 84.1091 241.448 89.7993Z" fill="#0A0A0A"/>
<path d="M174.113 229.244L174.014 229.25C174.014 229.25 174.085 227.368 174.113 229.244Z" fill="#333333"/>
<path d="M174.237 229.244L174.138 229.25C174.138 229.25 174.21 227.368 174.237 229.244Z" fill="#333333"/>
<path d="M340.411 139.711C340.228 139.355 339.938 139.064 339.58 138.878C339.221 138.691 338.813 138.619 338.412 138.67C338.415 138.646 338.413 138.622 338.404 138.599C338.396 138.576 338.383 138.556 338.365 138.54C338.346 138.523 338.325 138.512 338.301 138.506C338.277 138.5 338.252 138.499 338.229 138.505L339.585 137.548C339.991 137.275 340.282 136.867 340.405 136.399C340.529 135.93 340.476 135.434 340.256 135.001C340.025 134.581 339.644 134.26 339.186 134.101C338.728 133.941 338.226 133.955 337.778 134.139C337.781 134.12 337.768 134.102 337.765 134.083L338.323 133.69C338.704 133.43 338.982 133.05 339.11 132.612C339.238 132.174 339.209 131.706 339.027 131.287C338.907 131.027 338.73 130.796 338.509 130.61C338.288 130.425 338.027 130.291 337.747 130.217C337.466 130.142 337.173 130.13 336.887 130.181C336.601 130.232 336.33 130.345 336.094 130.511L334.808 131.418C334.805 131.411 334.808 131.402 334.803 131.395C334.798 131.388 334.784 131.385 334.777 131.378C335.072 131.051 335.246 130.635 335.269 130.199C335.293 129.762 335.165 129.33 334.906 128.975C334.299 128.014 332.898 128.211 332.066 128.797L324.498 133.939L325.851 131.699C326.124 131.268 326.22 130.751 326.12 130.253C326.02 129.755 325.731 129.313 325.312 129.016C325.091 128.87 324.842 128.77 324.58 128.722C324.318 128.675 324.048 128.68 323.789 128.738C323.529 128.796 323.284 128.905 323.068 129.059C322.853 129.213 322.671 129.409 322.535 129.634L315.149 141.866C314.283 143.301 314.019 145.012 314.414 146.635C314.81 148.258 315.833 149.666 317.266 150.559V150.559C318.928 151.595 320.868 152.118 322.834 152.063C324.801 152.007 326.707 151.375 328.306 150.247L339.735 142.188C340.114 141.91 340.388 141.515 340.51 141.065C340.633 140.616 340.598 140.139 340.411 139.711V139.711Z" fill="#E98862"/>
<g opacity="0.25">
<path d="M327.319 136.501C327.347 136.538 327.389 136.564 327.435 136.571C327.482 136.579 327.53 136.569 327.569 136.542L334.759 131.643C334.798 131.616 334.825 131.575 334.833 131.528C334.842 131.482 334.831 131.434 334.804 131.396C334.777 131.357 334.735 131.33 334.688 131.322C334.641 131.313 334.593 131.323 334.553 131.35L327.362 136.25C327.343 136.263 327.326 136.28 327.313 136.299C327.3 136.319 327.291 136.341 327.287 136.364C327.282 136.387 327.283 136.411 327.288 136.433C327.293 136.456 327.302 136.478 327.316 136.497L327.319 136.501Z" fill="#0C0C0C"/>
</g>
<g opacity="0.25">
<path d="M329.429 139.68C329.457 139.718 329.498 139.743 329.545 139.751C329.591 139.759 329.639 139.748 329.678 139.722L337.703 134.254C337.723 134.241 337.739 134.224 337.752 134.204C337.765 134.184 337.774 134.162 337.779 134.139C337.783 134.116 337.783 134.093 337.778 134.07C337.773 134.047 337.763 134.025 337.75 134.006C337.722 133.968 337.68 133.942 337.633 133.934C337.586 133.925 337.538 133.935 337.498 133.96L329.475 139.428C329.456 139.441 329.439 139.458 329.426 139.478C329.413 139.497 329.404 139.519 329.4 139.542C329.395 139.565 329.395 139.589 329.4 139.612C329.405 139.635 329.415 139.656 329.428 139.676L329.429 139.68Z" fill="#0C0C0C"/>
</g>
<g opacity="0.25">
<path d="M331.693 143.137C331.721 143.175 331.762 143.2 331.809 143.208C331.855 143.216 331.903 143.205 331.942 143.179L338.343 138.817C338.364 138.804 338.382 138.787 338.396 138.767C338.41 138.748 338.42 138.725 338.425 138.702C338.43 138.678 338.43 138.654 338.425 138.63C338.42 138.606 338.41 138.584 338.396 138.564C338.382 138.544 338.364 138.528 338.344 138.515C338.323 138.502 338.3 138.493 338.275 138.49C338.251 138.486 338.227 138.487 338.203 138.493C338.179 138.499 338.157 138.51 338.137 138.524L331.735 142.886C331.715 142.899 331.698 142.916 331.685 142.936C331.672 142.955 331.663 142.977 331.659 143C331.654 143.023 331.655 143.047 331.66 143.07C331.665 143.093 331.674 143.114 331.688 143.134L331.693 143.137Z" fill="#0C0C0C"/>
</g>
<path d="M324.501 133.939L325.854 131.699C326.126 131.268 326.222 130.751 326.122 130.253C326.022 129.755 325.733 129.313 325.315 129.016C325.093 128.87 324.844 128.77 324.582 128.722C324.32 128.675 324.051 128.68 323.791 128.738C323.531 128.796 323.286 128.905 323.07 129.059C322.855 129.213 322.674 129.409 322.538 129.634L315.151 141.866" fill="#E98862"/>
<path d="M310.793 139.081L289.101 175.424L262.634 141.272L240.654 160.767L278.191 208.592L278.437 208.932C279.94 210.957 281.941 212.572 284.253 213.625C286.566 214.678 289.112 215.134 291.654 214.951C294.195 214.768 296.647 213.952 298.779 212.579C300.91 211.206 302.652 209.322 303.838 207.104L334.683 152.152L310.793 139.081Z" fill="#0F233B"/>
<path d="M286.976 179.794C286.928 179.794 286.882 179.783 286.841 179.76C286.799 179.737 286.765 179.705 286.74 179.665C286.716 179.625 286.702 179.58 286.7 179.534C286.698 179.487 286.709 179.441 286.73 179.4L288.856 175.301C288.89 175.237 288.947 175.188 289.017 175.166C289.086 175.144 289.162 175.15 289.227 175.183C289.292 175.215 289.341 175.272 289.364 175.341C289.386 175.409 289.38 175.483 289.347 175.547L287.221 179.647C287.198 179.691 287.163 179.728 287.119 179.754C287.076 179.78 287.026 179.794 286.976 179.794V179.794Z" fill="#0C0C0C"/>
<path d="M261.107 175.217L260.445 186.696L260.995 186.727L261.657 175.248L261.107 175.217Z" fill="#0C0C0C"/>
<path d="M237.071 133.508C236.978 133.496 235.948 150.309 216.093 148.845C202.346 147.832 197.446 133.484 197.131 133.484C198.613 133.174 201.108 132.724 201.767 132.376C203.931 131.232 206.61 130.042 207.307 125.906C207.709 123.523 207.025 111.33 207.237 108.918L228.337 113.551C228.042 118.644 225.978 130.451 233.211 132.54C234.414 132.888 235.71 133.207 237.071 133.508Z" fill="#E98862"/>
<path opacity="0.52" d="M228.632 127.717C228.302 126.669 228.089 125.589 227.998 124.495C227.766 122 227.812 119.488 228.136 117.002C223.847 116.433 219.807 114.692 216.474 111.976C216.082 113.399 213.928 119.619 214.524 120.972C215.652 123.53 220.951 127.717 228.632 127.717Z" fill="#0C0C0C"/>
<path d="M225.836 122.425C217.509 123.122 206.784 119.726 204.683 108.803L202.787 98.947C200.686 88.0236 204.814 78.0844 215.267 76.1366C225.721 74.1902 235.238 81.5904 237.34 92.5137L238.179 96.8769C238.987 101.068 240.694 121.181 225.836 122.425Z" fill="#E98862"/>
<path d="M235.201 97.3528C235.925 97.3528 236.511 96.7756 236.511 96.0636C236.511 95.3516 235.925 94.7745 235.201 94.7745C234.477 94.7745 233.891 95.3516 233.891 96.0636C233.891 96.7756 234.477 97.3528 235.201 97.3528Z" fill="#0C0C0C"/>
<path d="M221.775 99.1168C222.499 99.1168 223.086 98.5397 223.086 97.8277C223.086 97.1157 222.499 96.5385 221.775 96.5385C221.052 96.5385 220.465 97.1157 220.465 97.8277C220.465 98.5397 221.052 99.1168 221.775 99.1168Z" fill="#0C0C0C"/>
<path opacity="0.52" d="M229.143 107.28C229.15 107.279 229.157 107.278 229.163 107.277C229.587 107.195 230.005 107.09 230.417 106.962C231.032 106.768 231.837 106.446 231.731 105.901C231.611 105.279 228.587 98.8851 228.242 98.1591C228.227 98.1274 228.206 98.0989 228.18 98.0752C228.154 98.0515 228.123 98.0331 228.09 98.021C228.057 98.009 228.022 98.0035 227.986 98.0049C227.951 98.0064 227.916 98.0147 227.884 98.0294C227.852 98.0441 227.823 98.0649 227.799 98.0906C227.775 98.1164 227.757 98.1465 227.745 98.1793C227.733 98.212 227.728 98.2468 227.729 98.2816C227.731 98.3164 227.74 98.3506 227.755 98.382C229.045 101.105 231.122 105.582 231.203 105.998C231.133 106.192 230.113 106.561 229.062 106.757C228.993 106.769 228.932 106.807 228.891 106.863C228.85 106.919 228.833 106.988 228.844 107.056C228.854 107.124 228.891 107.185 228.946 107.227C229.002 107.269 229.072 107.287 229.141 107.279L229.143 107.28Z" fill="#0C0C0C"/>
<path opacity="0.52" d="M227.595 111.996C229.3 111.778 230.93 111.169 232.352 110.218C232.381 110.199 232.407 110.175 232.427 110.146C232.447 110.117 232.461 110.085 232.468 110.051C232.475 110.017 232.476 109.982 232.469 109.948C232.463 109.914 232.45 109.882 232.43 109.853C232.411 109.823 232.386 109.798 232.357 109.779C232.328 109.759 232.295 109.745 232.261 109.738C232.226 109.731 232.191 109.731 232.156 109.737C232.122 109.743 232.089 109.756 232.059 109.775C228.981 111.748 225.923 112.067 223.216 110.698C223.161 110.669 223.104 110.642 223.047 110.619C222.98 110.596 222.906 110.599 222.841 110.629C222.777 110.658 222.727 110.712 222.703 110.778C222.679 110.844 222.682 110.916 222.712 110.98C222.743 111.043 222.797 111.092 222.864 111.116C222.886 111.125 222.921 111.143 222.97 111.168C224.394 111.891 226.004 112.179 227.595 111.996V111.996Z" fill="#0C0C0C"/>
<path d="M205.972 112.01C202.795 112.601 199.577 109.737 198.975 106.61C198.374 103.482 200.617 101.281 203.795 100.69L205.835 102.479L208.704 111.5L205.972 112.01Z" fill="#E98862"/>
<path d="M230.159 92.9342C231.086 92.3456 232.156 92.0131 233.259 91.9714C233.801 91.9476 234.345 92.0041 234.87 92.1389C235.391 92.2705 235.892 92.466 236.363 92.721C236.423 92.7566 236.467 92.813 236.487 92.8791C236.507 92.9452 236.501 93.0162 236.471 93.0782C236.441 93.1403 236.388 93.189 236.323 93.2148C236.258 93.2405 236.185 93.2416 236.12 93.2176L236.1 93.2088C235.664 92.9993 235.204 92.8442 234.729 92.7473C234.26 92.6484 233.778 92.6201 233.3 92.6633C232.353 92.7412 231.442 93.0647 230.663 93.6007L230.637 93.6187C230.593 93.6555 230.541 93.6828 230.486 93.6991C230.43 93.7153 230.372 93.7201 230.314 93.7132C230.257 93.7062 230.201 93.6876 230.151 93.6586C230.101 93.6296 230.058 93.5907 230.024 93.5445C229.99 93.4983 229.966 93.4456 229.953 93.3898C229.941 93.3341 229.94 93.2764 229.951 93.2204C229.963 93.1644 229.985 93.1112 230.019 93.0643C230.052 93.0174 230.094 92.9776 230.143 92.9476L230.159 92.9342Z" fill="#0C0C0C"/>
<path d="M221.8 94.87C220.876 94.6478 219.908 94.6696 218.996 94.9333C218.535 95.0632 218.096 95.261 217.695 95.5199C217.288 95.7793 216.916 96.0883 216.588 96.4393L216.573 96.4541C216.52 96.5001 216.452 96.5253 216.382 96.5245C216.312 96.5238 216.244 96.4973 216.193 96.4502C216.142 96.403 216.11 96.3387 216.104 96.2699C216.099 96.201 216.12 96.1325 216.163 96.0779C216.508 95.6729 216.904 95.3124 217.341 95.0048C217.782 94.6921 218.267 94.4463 218.782 94.2755C219.825 93.9224 220.946 93.8521 222.026 94.072C222.083 94.0802 222.138 94.0999 222.187 94.1298C222.236 94.1598 222.279 94.1993 222.312 94.246C222.345 94.2927 222.367 94.3456 222.379 94.4014C222.39 94.4571 222.39 94.5146 222.378 94.5702C222.366 94.6258 222.342 94.6784 222.308 94.7247C222.275 94.7709 222.232 94.8099 222.182 94.8392C222.133 94.8685 222.077 94.8874 222.02 94.8949C221.963 94.9023 221.904 94.8981 221.849 94.8825L221.832 94.8783L221.8 94.87Z" fill="#0C0C0C"/>
<path opacity="0.52" d="M227.957 114.476C228.266 114.441 228.572 114.381 228.87 114.295C228.939 114.276 228.996 114.231 229.031 114.169C229.065 114.108 229.074 114.036 229.054 113.969C229.034 113.901 228.988 113.844 228.926 113.81C228.864 113.776 228.79 113.768 228.722 113.788C226.925 114.295 225.903 113.622 225.86 113.593C225.802 113.553 225.729 113.537 225.659 113.549C225.589 113.561 225.527 113.6 225.486 113.658C225.445 113.715 225.429 113.786 225.441 113.855C225.453 113.924 225.493 113.985 225.551 114.026C226.276 114.445 227.126 114.604 227.957 114.476V114.476Z" fill="#0C0C0C"/>
<path opacity="0.1" d="M220.717 108.085C222.088 107.939 223.112 107.02 223.003 106.031C222.895 105.041 221.696 104.357 220.325 104.502C218.955 104.647 217.931 105.567 218.039 106.556C218.147 107.545 219.346 108.23 220.717 108.085Z" fill="#0C0C0C"/>
<path opacity="0.1" d="M235.226 104.3C235.337 105.287 236.536 105.971 237.907 105.827C238.144 105.803 238.378 105.753 238.604 105.681C238.682 104.505 238.698 103.373 238.676 102.326C238.297 102.228 237.903 102.201 237.513 102.246C236.144 102.389 235.121 103.308 235.226 104.3Z" fill="#0C0C0C"/>
<path d="M261.741 170.526C261.115 177.754 258.073 222.682 257.471 231.588L177.907 231.754C177.437 223.723 172.029 188.611 170.254 172.907C168.56 157.923 165.234 150.421 167.674 145.991C171.656 138.751 182.538 134.567 189.96 133.578C194.488 132.976 201.305 132.543 201.305 132.543C201.305 132.543 201.882 144.026 215.641 144.665C234.37 145.534 233.12 132.543 233.212 132.543C236.247 132.543 253.581 134.432 257.821 136.905C269.375 143.638 263.068 155.208 261.741 170.526Z" fill="#0F233B"/>
<path d="M313.386 175.575L305.716 212.248C305.56 212.992 305.15 213.662 304.553 214.145C303.956 214.628 303.209 214.895 302.436 214.901L249.626 215.343C249.122 215.348 248.624 215.241 248.167 215.031C247.711 214.821 247.308 214.514 246.988 214.131C246.668 213.748 246.439 213.3 246.318 212.819C246.197 212.338 246.187 211.836 246.288 211.35L253.958 174.678C254.113 173.933 254.524 173.264 255.121 172.781C255.718 172.298 256.465 172.031 257.238 172.025L310.048 171.582C310.552 171.578 311.05 171.685 311.507 171.894C311.963 172.104 312.366 172.412 312.686 172.795C313.006 173.177 313.235 173.626 313.356 174.107C313.477 174.588 313.487 175.09 313.386 175.575V175.575Z" fill="#292A2E"/>
<path d="M264.142 201.624C264.17 202.107 264.019 202.584 263.719 202.966C263.418 203.348 262.987 203.611 262.505 203.706L260.879 204.059C260.908 204.068 260.934 204.084 260.955 204.106C260.976 204.128 260.992 204.154 261 204.183C261.004 204.217 260.996 204.252 260.978 204.281C261.369 204.389 261.716 204.614 261.971 204.925C262.225 205.236 262.376 205.617 262.4 206.016C262.402 206.48 262.245 206.932 261.954 207.298C261.663 207.664 261.255 207.923 260.796 208.033L247.068 211.033C246.366 211.187 245.649 211.264 244.93 211.264C243.327 211.263 241.749 210.88 240.331 210.146C238.913 209.412 237.698 208.35 236.79 207.051C235.827 205.677 235.448 203.987 235.732 202.342C236.016 200.696 236.941 199.225 238.311 198.241L249.989 189.842C250.246 189.657 250.545 189.536 250.86 189.49L249.785 194.624L250.072 194.559L250.132 194.549L259.088 192.754C260.085 192.537 261.452 192.895 261.628 194.012C261.723 194.439 261.668 194.886 261.472 195.278C261.276 195.671 260.951 195.987 260.549 196.175C260.555 196.18 260.566 196.186 260.566 196.197C260.566 196.208 260.56 196.213 260.56 196.224L262.108 195.888C262.392 195.826 262.685 195.826 262.968 195.89C263.251 195.953 263.517 196.077 263.745 196.254C263.973 196.43 264.159 196.654 264.288 196.91C264.418 197.165 264.488 197.446 264.495 197.731C264.495 198.187 264.334 198.628 264.041 198.981C263.748 199.334 263.339 199.576 262.885 199.666L262.219 199.813C262.213 199.834 262.219 199.856 262.208 199.873C262.694 199.876 263.161 200.058 263.518 200.382C263.876 200.705 264.098 201.148 264.142 201.624V201.624Z" fill="#E98862"/>
<g opacity="0.25">
<path d="M251.644 198.004C251.654 198.049 251.683 198.089 251.722 198.114C251.762 198.139 251.81 198.148 251.857 198.139L260.426 196.41C260.472 196.4 260.513 196.372 260.539 196.333C260.565 196.293 260.574 196.245 260.564 196.2C260.554 196.154 260.527 196.113 260.487 196.087C260.448 196.061 260.399 196.052 260.353 196.061L251.784 197.79C251.737 197.799 251.696 197.827 251.67 197.866C251.643 197.905 251.634 197.953 251.643 198L251.644 198.004Z" fill="#0C0C0C"/>
</g>
<g opacity="0.25">
<path d="M252.315 201.743C252.325 201.788 252.354 201.827 252.393 201.853C252.433 201.878 252.481 201.887 252.527 201.877L262.09 199.948C262.114 199.943 262.136 199.934 262.155 199.921C262.175 199.908 262.192 199.891 262.205 199.872C262.218 199.852 262.227 199.83 262.232 199.807C262.236 199.784 262.236 199.761 262.231 199.738C262.22 199.693 262.192 199.653 262.152 199.627C262.112 199.602 262.064 199.592 262.018 199.599L252.455 201.529C252.408 201.538 252.366 201.566 252.34 201.605C252.313 201.645 252.304 201.693 252.314 201.739L252.315 201.743Z" fill="#0C0C0C"/>
</g>
<g opacity="0.25">
<path d="M253.017 205.796C253.028 205.842 253.056 205.881 253.096 205.906C253.135 205.931 253.184 205.94 253.23 205.931L260.858 204.392C260.904 204.382 260.944 204.354 260.97 204.315C260.995 204.276 261.004 204.228 260.994 204.183C260.985 204.138 260.958 204.097 260.919 204.071C260.88 204.045 260.832 204.035 260.785 204.043L253.157 205.582C253.134 205.587 253.112 205.596 253.092 205.609C253.072 205.622 253.056 205.639 253.043 205.658C253.029 205.678 253.02 205.7 253.016 205.723C253.011 205.746 253.012 205.769 253.016 205.792L253.017 205.796Z" fill="#0C0C0C"/>
</g>
<path d="M246.218 216.374L171.738 229.616C169.414 229.865 167.063 229.58 164.869 228.785C162.676 227.99 160.699 226.705 159.095 225.032C157.491 223.359 156.302 221.343 155.623 219.143C154.944 216.942 154.792 214.616 155.18 212.348L165.607 151.376C165.931 149.444 166.64 147.593 167.693 145.931C168.745 144.269 170.121 142.827 171.741 141.689C173.361 140.55 175.193 139.738 177.133 139.297C179.073 138.857 181.082 138.798 183.045 139.122C185.009 139.447 186.887 140.15 188.574 141.191C190.26 142.231 191.722 143.589 192.874 145.186C194.026 146.783 194.847 148.588 195.289 150.498C195.73 152.408 195.785 154.384 195.449 156.315L188.339 198.287L242.943 191.541L246.218 216.374Z" fill="#0F233B"/>
<path d="M171.738 229.887C171.67 229.886 171.604 229.86 171.554 229.815C171.504 229.769 171.473 229.706 171.467 229.639C171.461 229.572 171.481 229.505 171.522 229.451C171.564 229.398 171.624 229.361 171.691 229.349L245.914 216.154L242.709 191.845L188.379 198.558C188.336 198.564 188.292 198.559 188.251 198.545C188.211 198.531 188.174 198.507 188.144 198.476C188.114 198.446 188.092 198.41 188.08 198.37C188.067 198.33 188.064 198.287 188.071 198.246L192.59 171.421C192.596 171.385 192.609 171.351 192.628 171.321C192.647 171.29 192.672 171.264 192.701 171.243C192.731 171.223 192.764 171.208 192.8 171.2C192.835 171.192 192.872 171.191 192.908 171.198C192.98 171.21 193.044 171.249 193.086 171.308C193.129 171.366 193.146 171.439 193.134 171.51L188.677 197.976L242.913 191.275C242.985 191.267 243.058 191.287 243.116 191.33C243.173 191.374 243.211 191.438 243.221 191.509L246.496 216.341C246.505 216.41 246.487 216.48 246.445 216.536C246.403 216.593 246.341 216.631 246.271 216.643L171.788 229.883C171.771 229.885 171.755 229.887 171.738 229.887V229.887Z" fill="#0C0C0C"/>
<path d="M188.297 198.021L183.506 198.775L183.593 199.311L188.384 198.557L188.297 198.021Z" fill="#0C0C0C"/>
<path d="M192.429 101.547L202.362 100.897C219.622 97.3527 227.265 83.054 227.265 83.054C227.265 83.054 236.514 94.7745 242.298 93.6972C242.298 93.6972 240.541 64.2066 210.025 69.3345C200.117 70.9989 191.982 80.1222 191.41 93.2688C190.99 102.934 192.429 101.547 192.429 101.547Z" fill="#0A0A0A"/>
<path d="M54.1208 232.194L490.92 232.194C493.043 232.194 494.765 230.5 494.765 228.412C494.765 226.323 493.043 224.63 490.92 224.63L54.1208 224.63C51.9976 224.63 50.2765 226.323 50.2765 228.412C50.2765 230.5 51.9976 232.194 54.1208 232.194Z" fill="#292A2E"/>
<path opacity="0.8" d="M54.1208 232.194L490.92 232.194C493.043 232.194 494.765 230.5 494.765 228.412C494.765 226.323 493.043 224.63 490.92 224.63L54.1208 224.63C51.9976 224.63 50.2765 226.323 50.2765 228.412C50.2765 230.5 51.9976 232.194 54.1208 232.194Z" fill="white"/>
<path d="M49.8101 228.412C49.8108 227.287 50.2654 226.208 51.0741 225.412C51.8828 224.617 52.9794 224.169 54.1231 224.168H490.921C492.065 224.168 493.162 224.615 493.971 225.411C494.78 226.207 495.235 227.287 495.235 228.412C495.235 229.537 494.78 230.617 493.971 231.413C493.162 232.209 492.065 232.656 490.921 232.656H54.1231C52.9794 232.655 51.8828 232.207 51.0741 231.412C50.2654 230.616 49.8108 229.537 49.8101 228.412V228.412ZM54.1231 225.092C53.228 225.092 52.3695 225.441 51.7365 226.064C51.1035 226.687 50.7479 227.531 50.7479 228.412C50.7479 229.293 51.1035 230.137 51.7365 230.76C52.3695 231.383 53.228 231.732 54.1231 231.732H490.921C491.816 231.732 492.675 231.383 493.308 230.76C493.941 230.137 494.296 229.293 494.296 228.412C494.296 227.531 493.941 226.687 493.308 226.064C492.675 225.441 491.816 225.092 490.921 225.092H54.1231Z" fill="#292A2E"/>
<path d="M54.1211 232.194L406.019 232.194C408.142 232.194 409.863 230.5 409.863 228.412C409.863 226.323 408.142 224.63 406.019 224.63L54.1211 224.63C51.9979 224.63 50.2766 226.323 50.2766 228.412C50.2766 230.5 51.9979 232.194 54.1211 232.194Z" fill="white"/>
<path d="M49.8101 228.412C49.8108 227.287 50.2654 226.208 51.0741 225.412C51.8828 224.617 52.9794 224.169 54.1231 224.168H406.02C407.164 224.168 408.261 224.615 409.07 225.411C409.879 226.207 410.333 227.287 410.333 228.412C410.333 229.537 409.879 230.617 409.07 231.413C408.261 232.209 407.164 232.656 406.02 232.656H54.1208C52.9775 232.654 51.8815 232.206 51.0733 231.411C50.2651 230.615 49.8108 229.537 49.8101 228.412ZM54.1231 225.092C53.228 225.092 52.3695 225.441 51.7365 226.064C51.1035 226.687 50.7479 227.531 50.7479 228.412C50.7479 229.293 51.1035 230.137 51.7365 230.76C52.3695 231.383 53.228 231.732 54.1231 231.732H406.02C406.915 231.732 407.773 231.383 408.406 230.76C409.039 230.137 409.395 229.293 409.395 228.412C409.395 227.531 409.039 226.687 408.406 226.064C407.773 225.441 406.915 225.092 406.02 225.092H54.1231Z" fill="#292A2E"/>
<path d="M26.0431 234.166C23.3674 234.166 20.7314 233.53 18.3594 232.312C15.9875 231.094 13.9498 229.33 12.4198 227.17C10.8898 225.011 9.91273 222.519 9.57186 219.909C9.23098 217.298 9.53634 214.645 10.462 212.175C11.4003 209.667 35.4969 148.476 39.6913 137.841L68.686 154.44C66.328 160.42 57.783 183.086 50.9181 201.345L62.3227 200.126L65.9128 229.998L27.8382 234.071C27.242 234.134 26.6428 234.166 26.0431 234.166V234.166Z" fill="#9C1A1A"/>
<path d="M120.889 125.117C120.787 125.103 117.997 135.434 96.2196 133.826C81.1433 132.715 77.4674 122.62 77.1216 122.62C78.7473 122.28 81.3868 121.928 82.1089 121.548C84.4829 120.293 86.2122 118.766 87.0821 115.487C87.7628 112.924 88.1096 103.054 88.1096 98.1023L111.309 103.23C110.985 108.815 108.722 121.766 116.654 124.058C117.973 124.437 119.395 124.785 120.889 125.117Z" fill="#E98862"/>
<path d="M110.505 114.212C101.359 114.922 89.6108 111.123 87.3794 99.1192L85.3657 88.2877C83.1344 76.2838 87.7341 65.3997 99.2227 63.3324C110.711 61.2655 121.108 69.4518 123.338 81.4556L124.229 86.2508C125.087 90.8572 126.823 112.944 110.505 114.212Z" fill="#E98862"/>
<path d="M67.2163 124.282C58.9978 124.882 50.6175 125.759 44.5704 131.265C37.2874 137.898 35.9677 146.055 40.6139 168.5C44.6117 187.813 43.0259 196.252 45.7001 231.89C45.779 232.94 45.9479 235.112 45.9479 235.112L139.108 234.962C139.108 234.962 142.101 187.686 146.65 165.878C150.109 149.298 159.193 129.171 120.889 125.115C120.787 125.104 90.0649 122.614 67.2163 124.282Z" fill="#9C1A1A"/>
<path d="M220.836 145.918L209.78 153.645L210.746 152.084C211.048 151.574 211.142 150.97 211.008 150.394C210.875 149.819 210.524 149.315 210.027 148.984C209.765 148.822 209.472 148.714 209.166 148.667C208.859 148.62 208.547 148.635 208.247 148.711C207.947 148.787 207.666 148.922 207.42 149.109C207.175 149.295 206.971 149.529 206.821 149.795L199.199 163.196C198.237 164.888 197.985 166.882 198.496 168.754C199.008 170.626 200.243 172.228 201.938 173.217V173.217C203.905 174.365 206.177 174.909 208.461 174.779C210.745 174.648 212.937 173.85 214.757 172.486L222.989 166.294C223.423 165.98 223.734 165.528 223.868 165.015C224.003 164.502 223.953 163.959 223.727 163.478C223.514 163.048 223.167 162.697 222.737 162.475C222.307 162.252 221.815 162.171 221.335 162.243C221.334 162.206 221.323 162.17 221.304 162.139C221.284 162.111 221.257 162.088 221.226 162.073C221.196 162.057 221.161 162.049 221.126 162.05L222.65 160.908C223.112 160.577 223.436 160.093 223.564 159.545C223.691 158.997 223.613 158.422 223.343 157.927C223.06 157.445 222.605 157.084 222.067 156.913C221.529 156.742 220.945 156.775 220.43 157.004C220.432 156.98 220.431 156.956 220.425 156.933L221.05 156.465C221.463 156.14 221.759 155.694 221.895 155.191C222.03 154.688 221.997 154.156 221.801 153.673C221.545 153.142 221.089 152.73 220.529 152.526C219.969 152.322 219.35 152.342 218.805 152.582L218.783 152.545L223.428 149.298C223.666 149.131 223.867 148.919 224.019 148.673C224.171 148.428 224.271 148.154 224.312 147.87C224.353 147.585 224.334 147.295 224.258 147.018C224.181 146.74 224.048 146.481 223.866 146.256C223.498 145.833 222.981 145.562 222.419 145.499C221.856 145.436 221.29 145.586 220.836 145.918Z" fill="#E98862"/>
<path opacity="0.2" d="M218.83 152.836C218.816 152.856 218.798 152.873 218.778 152.887L214.227 155.989C214.204 156.006 214.177 156.018 214.149 156.025C214.121 156.032 214.092 156.033 214.064 156.028C214.036 156.024 214.008 156.013 213.984 155.998C213.96 155.983 213.939 155.963 213.922 155.94C213.906 155.917 213.895 155.891 213.889 155.863C213.883 155.835 213.883 155.806 213.888 155.779C213.894 155.751 213.905 155.725 213.922 155.701C213.938 155.678 213.959 155.658 213.983 155.643L218.534 152.541C218.575 152.512 218.625 152.499 218.676 152.504C218.726 152.508 218.773 152.53 218.808 152.565C218.844 152.601 218.865 152.647 218.869 152.697C218.873 152.746 218.86 152.795 218.83 152.836V152.836Z" fill="#0C0C0C"/>
<path opacity="0.2" d="M220.401 157.097C220.387 157.117 220.369 157.134 220.349 157.147L216.793 159.613C216.77 159.63 216.744 159.643 216.716 159.65C216.688 159.657 216.659 159.658 216.63 159.654C216.602 159.649 216.574 159.64 216.55 159.625C216.525 159.61 216.504 159.59 216.488 159.567C216.471 159.544 216.459 159.518 216.453 159.49C216.447 159.462 216.447 159.433 216.452 159.406C216.457 159.378 216.469 159.351 216.485 159.328C216.501 159.304 216.521 159.284 216.546 159.269L220.102 156.803C220.144 156.774 220.194 156.761 220.244 156.766C220.294 156.77 220.341 156.792 220.377 156.827C220.413 156.862 220.434 156.908 220.439 156.958C220.443 157.007 220.43 157.056 220.401 157.097V157.097Z" fill="#0C0C0C"/>
<path opacity="0.2" d="M221.299 162.378C221.284 162.399 221.265 162.417 221.244 162.431L219.536 163.556C219.513 163.572 219.487 163.583 219.459 163.588C219.432 163.593 219.403 163.594 219.376 163.588C219.348 163.583 219.322 163.572 219.299 163.557C219.275 163.541 219.255 163.522 219.239 163.499C219.224 163.476 219.213 163.45 219.207 163.423C219.202 163.396 219.202 163.368 219.207 163.341C219.213 163.314 219.223 163.288 219.239 163.265C219.255 163.242 219.275 163.222 219.298 163.207L221.005 162.081C221.047 162.054 221.097 162.042 221.147 162.047C221.196 162.052 221.243 162.074 221.277 162.109C221.312 162.145 221.334 162.191 221.338 162.24C221.342 162.289 221.328 162.337 221.299 162.378Z" fill="#0C0C0C"/>
<path d="M154.479 230.643C148.08 229.845 142.72 226.418 140.735 220.38L117.66 150.171L149.266 140.117L162.811 187.21L195.757 155.469L217.637 177.472L170.599 224.05C167.535 228.843 159.516 231.271 154.479 230.643Z" fill="#9C1A1A"/>
<path d="M45.9468 235.33C45.8895 235.33 45.8345 235.308 45.7932 235.269C45.752 235.23 45.7276 235.177 45.7253 235.12L42.9704 164.763C42.9682 164.705 42.9894 164.649 43.0292 164.607C43.069 164.565 43.1243 164.54 43.1829 164.537C43.2123 164.535 43.2418 164.538 43.2697 164.548C43.2976 164.557 43.3232 164.572 43.3448 164.592C43.3665 164.612 43.3838 164.636 43.3956 164.662C43.4073 164.689 43.4134 164.717 43.4133 164.746L46.1682 235.104C46.1703 235.161 46.149 235.218 46.1091 235.26C46.0692 235.302 46.0138 235.327 45.9552 235.329L45.9468 235.33Z" fill="#0C0C0C"/>
<path d="M123.669 125.73C123.537 137.199 114.806 142.323 96.8648 143.518C78.9237 144.714 59.1294 138.15 61.982 122.476C64.8721 106.612 69.1134 101.77 70.1268 85.7444C70.169 85.0059 70.2112 84.2397 70.2441 83.4505C70.9901 65.2695 84.3614 58.0415 90.9721 57.1506C98.7462 56.0983 104.601 57.2107 106.891 58.0876C110.326 59.1271 113.479 60.9135 116.117 63.3144C118.755 65.7153 120.81 68.6693 122.13 71.9576C122.25 72.2686 122.278 72.607 122.21 72.933C122.142 73.2591 121.981 73.5593 121.745 73.7983C121.51 74.0372 121.21 74.2051 120.881 74.2821C120.551 74.3592 120.207 74.3421 119.887 74.2331C119.201 73.9871 118.537 73.6845 117.902 73.3284C118.404 75.2254 118.986 79.6195 116.772 83.4505C116.745 87.7272 117.126 91.997 117.912 96.2034C118.207 97.9574 118.564 99.8406 118.982 101.908C122.134 117.487 123.814 112.876 123.669 125.73Z" fill="#0A0A0A"/>
<path d="M118.99 96.389C115.498 97.0172 111.985 93.8504 111.347 90.4168C110.708 86.9833 112.3 83.45 116.769 83.45L118.99 96.389Z" fill="#E98862"/>
<path d="M165.632 197.1C165.583 197.1 165.535 197.084 165.496 197.054C165.458 197.025 165.43 196.983 165.417 196.937L162.804 187.035C162.796 187.007 162.793 186.977 162.796 186.948C162.799 186.919 162.809 186.89 162.823 186.865C162.838 186.839 162.858 186.816 162.881 186.798C162.905 186.78 162.932 186.767 162.961 186.76C162.99 186.753 163.02 186.751 163.05 186.755C163.079 186.76 163.108 186.77 163.133 186.786C163.159 186.801 163.181 186.821 163.198 186.845C163.215 186.869 163.227 186.897 163.234 186.925L165.847 196.827C165.861 196.883 165.853 196.943 165.823 196.992C165.793 197.042 165.744 197.078 165.688 197.093C165.669 197.097 165.651 197.1 165.632 197.1Z" fill="#0C0C0C"/>
<path d="M107.94 394.88L105.998 424.942L147.729 425.137C147.729 425.137 149.856 417.592 140.076 414.37C134.638 412.58 131.089 406.559 132.198 399.132L107.94 394.88Z" fill="#383838"/>
<path opacity="0.17" d="M107.94 394.88L105.998 424.942L147.729 425.137C147.729 425.137 149.856 417.592 140.076 414.37C134.638 412.58 131.089 406.559 132.198 399.132L107.94 394.88Z" fill="#070707"/>
<path d="M164.241 394.88L162.299 424.942L204.03 425.137C204.03 425.137 206.156 417.592 196.377 414.37C190.939 412.58 187.39 406.559 188.499 399.132L164.241 394.88Z" fill="#383838"/>
<path d="M147.832 254.815L140.508 408.856L102.996 407.616L106.202 253.439L147.832 254.815Z" fill="#292A2E"/>
<path opacity="0.52" d="M147.832 254.815L140.508 408.856L102.996 407.616L106.202 253.439L147.832 254.815Z" fill="white"/>
<path d="M156.95 407.971L194.457 406.592L191.191 258.863C191.211 258.507 191.224 258.15 191.227 257.79C191.233 256.982 191.195 256.174 191.114 255.37L191.109 255.178H191.091C190.482 249.669 187.829 244.575 183.641 240.871C179.452 237.166 174.022 235.112 168.39 235.1L78.9241 234.931V234.869H45.955C45.955 234.869 42.5563 257.106 48.0128 269.384C54.8246 284.713 80.4733 280.574 80.4733 280.574L80.4583 280.122H149.661L156.95 407.971Z" fill="#292A2E"/>
<path opacity="0.64" d="M156.95 407.971L194.457 406.592L191.191 258.863C191.211 258.507 191.224 258.15 191.227 257.79C191.233 256.982 191.195 256.174 191.114 255.37L191.109 255.178H191.091C190.482 249.669 187.829 244.575 183.641 240.871C179.452 237.166 174.022 235.112 168.39 235.1L78.9241 234.931V234.869H45.955C45.955 234.869 42.5563 257.106 48.0128 269.384C54.8246 284.713 80.4733 280.574 80.4733 280.574L80.4583 280.122H149.661L156.95 407.971Z" fill="white"/>
<path d="M204.622 426L205.543 425.826L186.45 285.035L185.529 285.209L204.622 426Z" fill="#494949"/>
<path d="M146.305 426L147.226 425.826L132.825 285.035L131.903 285.209L146.305 426Z" fill="#494949"/>
<path d="M127.212 223.132H35.6075C34.1097 223.132 32.6631 222.596 31.5378 221.624C30.4124 220.651 29.6852 219.309 29.4918 217.848L23.4325 172.07C23.3192 171.215 23.3928 170.345 23.6484 169.52C23.9039 168.694 24.3354 167.932 24.9143 167.284C25.4931 166.635 26.2058 166.116 27.0049 165.76C27.8039 165.404 28.671 165.22 29.5481 165.22H121.152C122.65 165.22 124.097 165.756 125.223 166.728C126.349 167.7 127.076 169.042 127.27 170.504L133.329 216.282C133.442 217.138 133.369 218.007 133.113 218.833C132.857 219.658 132.426 220.421 131.847 221.069C131.268 221.718 130.555 222.237 129.755 222.593C128.956 222.948 128.089 223.132 127.212 223.132V223.132Z" fill="white"/>
<path d="M127.212 223.594H35.6076C33.9967 223.59 32.4418 223.012 31.2313 221.967C30.0209 220.921 29.2372 219.479 29.0256 217.908L22.9676 172.13C22.8458 171.21 22.925 170.274 23.1999 169.386C23.4749 168.497 23.9393 167.677 24.5621 166.979C25.1849 166.282 25.9518 165.723 26.8116 165.34C27.6714 164.957 28.6044 164.759 29.5482 164.758H121.152C122.763 164.762 124.318 165.34 125.528 166.386C126.738 167.431 127.522 168.874 127.733 170.444L133.792 216.222C133.914 217.143 133.835 218.079 133.56 218.967C133.285 219.855 132.821 220.676 132.198 221.373C131.575 222.071 130.808 222.63 129.948 223.013C129.089 223.396 128.156 223.594 127.212 223.594V223.594ZM29.5482 165.682C28.7378 165.682 27.9367 165.852 27.1985 166.181C26.4602 166.509 25.8017 166.989 25.267 167.588C24.7322 168.188 24.3335 168.892 24.0974 169.655C23.8614 170.417 23.7934 171.221 23.898 172.011L29.9573 217.789C30.139 219.138 30.8117 220.376 31.8508 221.274C32.8899 222.171 34.2247 222.668 35.6076 222.671H127.212C128.022 222.671 128.823 222.501 129.561 222.172C130.3 221.843 130.958 221.363 131.493 220.764C132.028 220.165 132.426 219.461 132.663 218.698C132.899 217.935 132.967 217.132 132.862 216.341L126.801 170.563C126.619 169.215 125.946 167.977 124.907 167.079C123.868 166.181 122.533 165.685 121.151 165.682H29.5482Z" fill="#292A2E"/>
<path d="M187.38 280.582H92.9263C90.3779 280.582 88.312 282.615 88.312 285.122V285.122C88.312 287.629 90.3779 289.662 92.9263 289.662H187.38C189.928 289.662 191.994 287.629 191.994 285.122V285.122C191.994 282.615 189.928 280.582 187.38 280.582Z" fill="white"/>
<path d="M187.38 290.123H92.9267C91.5785 290.123 90.2855 289.596 89.3322 288.658C88.3788 287.72 87.8433 286.448 87.8433 285.122C87.8433 283.796 88.3788 282.524 89.3322 281.586C90.2855 280.648 91.5785 280.121 92.9267 280.121H187.38C188.728 280.121 190.021 280.648 190.974 281.586C191.928 282.524 192.463 283.796 192.463 285.122C192.463 286.448 191.928 287.72 190.974 288.658C190.021 289.596 188.728 290.123 187.38 290.123V290.123ZM92.9267 281.045C92.3824 281.045 91.8434 281.151 91.3405 281.356C90.8375 281.561 90.3806 281.861 89.9957 282.24C89.6108 282.618 89.3054 283.068 89.0971 283.563C88.8888 284.057 88.7816 284.588 88.7816 285.123C88.7816 285.659 88.8888 286.189 89.0971 286.684C89.3054 287.179 89.6108 287.628 89.9957 288.007C90.3806 288.385 90.8375 288.686 91.3405 288.891C91.8434 289.096 92.3824 289.201 92.9267 289.201H187.38C187.924 289.201 188.463 289.096 188.966 288.891C189.469 288.686 189.926 288.385 190.311 288.007C190.696 287.628 191.001 287.179 191.209 286.684C191.418 286.189 191.525 285.659 191.525 285.123C191.525 284.588 191.418 284.057 191.209 283.563C191.001 283.068 190.696 282.618 190.311 282.24C189.926 281.861 189.469 281.561 188.966 281.356C188.463 281.151 187.924 281.045 187.38 281.045H92.9267Z" fill="#292A2E"/>
<path d="M27.7696 426L26.8481 425.826L41.2498 285.035L42.1713 285.209L27.7696 426Z" fill="#494949"/>
<path d="M81.3951 426L80.4736 425.826L94.8753 285.035L95.7963 285.209L81.3951 426Z" fill="#494949"/>
<path d="M127.205 223.073L126.275 223.195L134.689 285.185L135.619 285.062L127.205 223.073Z" fill="#494949"/>
<path d="M30.6386 223.072L29.7085 223.194L38.1216 285.184L39.0517 285.062L30.6386 223.072Z" fill="#494949"/>
<path d="M135.538 280.582H41.085C38.5366 280.582 36.4707 282.615 36.4707 285.122V285.122C36.4707 287.629 38.5366 289.662 41.085 289.662H135.538C138.087 289.662 140.153 287.629 140.153 285.122V285.122C140.153 282.615 138.087 280.582 135.538 280.582Z" fill="#292A2E"/>
<path opacity="0.8" d="M135.538 280.582H41.085C38.5366 280.582 36.4707 282.615 36.4707 285.122V285.122C36.4707 287.629 38.5366 289.662 41.085 289.662H135.538C138.087 289.662 140.153 287.629 140.153 285.122V285.122C140.153 282.615 138.087 280.582 135.538 280.582Z" fill="white"/>
<path d="M135.539 290.123H41.0835C39.7352 290.123 38.4422 289.596 37.4889 288.658C36.5356 287.72 36 286.448 36 285.122C36 283.796 36.5356 282.524 37.4889 281.586C38.4422 280.648 39.7352 280.121 41.0835 280.121H135.537C136.885 280.121 138.178 280.648 139.131 281.586C140.085 282.524 140.62 283.796 140.62 285.122C140.62 286.448 140.085 287.72 139.131 288.658C138.178 289.596 136.885 290.123 135.537 290.123H135.539ZM41.0835 281.045C39.9841 281.045 38.9298 281.475 38.1524 282.24C37.3751 283.005 36.9383 284.042 36.9383 285.123C36.9383 286.205 37.3751 287.242 38.1524 288.007C38.9298 288.772 39.9841 289.201 41.0835 289.201H135.537C136.636 289.201 137.691 288.772 138.468 288.007C139.245 287.242 139.682 286.205 139.682 285.123C139.682 284.042 139.245 283.005 138.468 282.24C137.691 281.475 136.636 281.045 135.537 281.045H41.0835Z" fill="#292A2E"/>
<path d="M122.032 223.132H30.4274C28.9297 223.132 27.4831 222.596 26.3579 221.624C25.2326 220.651 24.5054 219.309 24.3122 217.848L18.2528 172.07C18.1395 171.215 18.2131 170.345 18.4686 169.52C18.7241 168.694 19.1556 167.932 19.7345 167.283C20.3133 166.635 21.026 166.116 21.8251 165.76C22.6243 165.404 23.4913 165.22 24.3685 165.22H115.973C117.47 165.22 118.917 165.756 120.042 166.728C121.167 167.701 121.894 169.042 122.088 170.503L128.147 216.281C128.26 217.137 128.187 218.007 127.931 218.832C127.676 219.658 127.244 220.42 126.666 221.069C126.087 221.717 125.374 222.236 124.575 222.592C123.776 222.948 122.909 223.132 122.032 223.132V223.132Z" fill="#292A2E"/>
<path opacity="0.8" d="M122.032 223.132H30.4274C28.9297 223.132 27.4831 222.596 26.3579 221.624C25.2326 220.651 24.5054 219.309 24.3122 217.848L18.2528 172.07C18.1395 171.215 18.2131 170.345 18.4686 169.52C18.7241 168.694 19.1556 167.932 19.7345 167.283C20.3133 166.635 21.026 166.116 21.8251 165.76C22.6243 165.404 23.4913 165.22 24.3685 165.22H115.973C117.47 165.22 118.917 165.756 120.042 166.728C121.167 167.701 121.894 169.042 122.088 170.503L128.147 216.281C128.26 217.137 128.187 218.007 127.931 218.832C127.676 219.658 127.244 220.42 126.666 221.069C126.087 221.717 125.374 222.236 124.575 222.592C123.776 222.948 122.909 223.132 122.032 223.132V223.132Z" fill="white"/>
<path d="M122.032 223.594H30.4274C28.8167 223.59 27.2621 223.012 26.0519 221.966C24.8418 220.921 24.0583 219.479 23.8468 217.908L17.7875 172.13C17.6656 171.21 17.7448 170.274 18.0198 169.386C18.2947 168.497 18.7591 167.677 19.3819 166.979C20.0047 166.282 20.7716 165.723 21.6314 165.34C22.4912 164.957 23.4242 164.759 24.3681 164.758H115.972C117.583 164.762 119.138 165.34 120.348 166.386C121.558 167.432 122.342 168.874 122.553 170.444L128.613 216.222C128.734 217.143 128.655 218.079 128.38 218.967C128.105 219.855 127.641 220.676 127.018 221.373C126.395 222.071 125.628 222.63 124.768 223.013C123.908 223.396 122.975 223.594 122.032 223.594V223.594ZM24.3681 165.682C23.5577 165.682 22.7566 165.852 22.0184 166.18C21.2801 166.509 20.6217 166.989 20.0869 167.588C19.5522 168.187 19.1535 168.892 18.9175 169.654C18.6815 170.417 18.6136 171.22 18.7183 172.011L24.7772 217.789C24.959 219.138 25.6318 220.376 26.6708 221.273C27.7099 222.171 29.0446 222.667 30.4274 222.671H122.032C122.842 222.671 123.643 222.501 124.381 222.172C125.12 221.843 125.778 221.363 126.313 220.764C126.848 220.165 127.246 219.461 127.482 218.698C127.718 217.935 127.786 217.132 127.682 216.341L121.622 170.563C121.441 169.215 120.768 167.977 119.729 167.079C118.69 166.181 117.355 165.685 115.972 165.682H24.3681Z" fill="#292A2E"/>
<path d="M308.639 177.953C309.636 177.953 310.444 177.158 310.444 176.178C310.444 175.198 309.636 174.403 308.639 174.403C307.643 174.403 306.835 175.198 306.835 176.178C306.835 177.158 307.643 177.953 308.639 177.953Z" fill="white"/>
<path d="M431.011 219.62L422.801 174.924C422.541 174.139 422.035 173.454 421.356 172.969C420.677 172.484 419.858 172.222 419.019 172.222H358.806C358.178 172.222 357.559 172.369 357 172.649C356.441 172.929 355.957 173.336 355.588 173.836C355.219 174.336 354.976 174.914 354.878 175.524C354.78 176.134 354.83 176.758 355.024 177.346L363.235 222.041C363.495 222.827 364 223.511 364.68 223.996C365.359 224.482 366.177 224.743 367.016 224.743H427.23C427.858 224.743 428.477 224.597 429.036 224.316C429.595 224.036 430.079 223.629 430.448 223.13C430.817 222.63 431.06 222.051 431.158 221.441C431.256 220.831 431.206 220.207 431.011 219.62V219.62Z" fill="white"/>
<path d="M427.229 225.204H367.016C366.077 225.205 365.162 224.914 364.402 224.371C363.642 223.828 363.077 223.062 362.788 222.183L362.773 222.122L354.567 177.457C354.356 176.801 354.304 176.106 354.417 175.428C354.53 174.749 354.804 174.106 355.217 173.551C355.63 172.996 356.17 172.545 356.793 172.234C357.417 171.923 358.106 171.761 358.805 171.761H419.018C419.957 171.759 420.872 172.051 421.632 172.593C422.392 173.136 422.957 173.902 423.245 174.781L423.261 174.842L431.467 219.508C431.678 220.163 431.729 220.858 431.616 221.537C431.503 222.215 431.229 222.858 430.817 223.413C430.404 223.968 429.864 224.419 429.241 224.73C428.617 225.041 427.928 225.204 427.229 225.204V225.204ZM363.69 221.927C363.922 222.613 364.369 223.21 364.966 223.633C365.563 224.055 366.28 224.282 367.016 224.281H427.229C427.783 224.281 428.329 224.152 428.822 223.905C429.315 223.657 429.742 223.299 430.067 222.858C430.393 222.417 430.607 221.907 430.694 221.369C430.78 220.831 430.736 220.281 430.564 219.763L430.549 219.702L422.344 175.038C422.111 174.352 421.665 173.755 421.068 173.332C420.471 172.91 419.754 172.683 419.018 172.684H358.806C358.252 172.684 357.706 172.813 357.213 173.061C356.72 173.308 356.293 173.667 355.968 174.107C355.642 174.548 355.428 175.058 355.341 175.596C355.255 176.134 355.299 176.685 355.471 177.203L355.486 177.263L363.69 221.927Z" fill="#292A2E"/>
<path d="M428.853 222.1L420.267 176.281C420.131 175.869 419.866 175.51 419.509 175.256C419.153 175.001 418.724 174.864 418.283 174.864H360.055C359.726 174.864 359.401 174.941 359.108 175.088C358.814 175.235 358.561 175.448 358.367 175.71C358.174 175.972 358.046 176.276 357.995 176.596C357.943 176.915 357.97 177.243 358.072 177.551L366.235 222.1H428.853Z" fill="white"/>
<path d="M429.416 222.562H365.843L357.616 177.662C357.497 177.286 357.469 176.888 357.536 176.499C357.602 176.111 357.76 175.743 357.998 175.425C358.235 175.108 358.545 174.85 358.903 174.673C359.26 174.495 359.655 174.402 360.056 174.402H418.284C418.824 174.401 419.35 174.569 419.787 174.881C420.223 175.193 420.548 175.633 420.714 176.138L420.729 176.197L429.416 222.562ZM366.628 221.639H428.29L419.815 176.397C419.706 176.084 419.5 175.812 419.226 175.62C418.952 175.428 418.623 175.325 418.287 175.325H360.055C359.799 175.325 359.548 175.385 359.321 175.499C359.093 175.613 358.896 175.778 358.747 175.981C358.597 176.184 358.498 176.42 358.458 176.668C358.418 176.916 358.439 177.169 358.518 177.408L358.533 177.469L366.628 221.639Z" fill="#292A2E"/>
<path d="M394.4 196.057C394.399 194.216 393.818 192.421 392.737 190.918C391.656 189.415 390.128 188.279 388.363 187.666L390.845 181.712C394.258 182.977 397.113 185.38 398.91 188.503C400.707 191.625 401.334 195.27 400.681 198.8C400.028 202.331 398.136 205.524 395.336 207.823C392.535 210.123 389.003 211.383 385.355 211.384V204.955C387.754 204.955 390.055 204.018 391.751 202.349C393.447 200.68 394.4 198.417 394.4 196.057V196.057Z" fill="#292A2E"/>
<path d="M369.776 196.057H376.31C376.31 198.417 377.263 200.681 378.959 202.349C380.655 204.018 382.956 204.955 385.355 204.955V211.384C381.223 211.383 377.261 209.769 374.339 206.894C371.418 204.02 369.776 200.122 369.776 196.057V196.057Z" fill="#0F233B"/>
<path opacity="0.5" d="M369.776 196.057C369.776 192.585 370.975 189.215 373.175 186.5C375.376 183.785 378.448 181.885 381.889 181.111L382.996 187.465C381.076 187.976 379.381 189.094 378.172 190.647C376.963 192.2 376.308 194.101 376.308 196.057H369.776Z" fill="#0F233B"/>
<path opacity="0.2" d="M381.889 181.111C384.87 180.447 387.983 180.656 390.844 181.711L388.363 187.665C386.635 187.069 384.765 186.999 382.996 187.465L381.889 181.111Z" fill="#0F233B"/>
<path d="M459.238 221.003H365.523C364.505 221.003 363.681 221.814 363.681 222.815C363.681 223.816 364.505 224.627 365.523 224.627H459.238C460.255 224.627 461.08 223.816 461.08 222.815C461.08 221.814 460.255 221.003 459.238 221.003Z" fill="white"/>
<path d="M459.238 225.089H365.523C364.91 225.089 364.322 224.849 363.888 224.423C363.455 223.996 363.211 223.418 363.211 222.815C363.211 222.212 363.455 221.634 363.888 221.207C364.322 220.781 364.91 220.541 365.523 220.541H459.238C459.851 220.541 460.439 220.781 460.872 221.207C461.306 221.634 461.549 222.212 461.549 222.815C461.549 223.418 461.306 223.996 460.872 224.423C460.439 224.849 459.851 225.089 459.238 225.089ZM365.523 221.465C365.158 221.465 364.809 221.607 364.552 221.86C364.294 222.113 364.15 222.457 364.15 222.815C364.15 223.173 364.294 223.517 364.552 223.77C364.809 224.023 365.158 224.166 365.523 224.166H459.238C459.602 224.166 459.951 224.023 460.209 223.77C460.466 223.517 460.611 223.173 460.611 222.815C460.611 222.457 460.466 222.113 460.209 221.86C459.951 221.607 459.602 221.465 459.238 221.465H365.523Z" fill="#292A2E"/>
<path d="M436.031 127.277C436.133 127.264 437.26 145.66 458.983 144.056C474.022 142.948 479.384 127.251 479.728 127.251C478.107 126.912 475.377 126.42 474.657 126.041C472.288 124.789 468.915 123.486 468.152 118.962C467.712 116.355 468.458 103.015 468.229 100.376L445.587 105.445C445.91 111.017 448.168 123.935 440.255 126.221C438.937 126.599 437.519 126.947 436.031 127.277Z" fill="#E98862"/>
<path d="M446.223 114.136C455.34 114.828 467.043 111.022 469.246 99.0545L471.234 88.254C473.439 76.2856 468.834 65.4454 457.38 63.4044C445.926 61.3633 435.578 69.5399 433.375 81.5078L432.495 86.2886C432.221 87.9352 432.062 89.5982 432.019 91.2661C431.872 95.6736 431.666 102.377 433.882 107.302C435.975 111.952 440.399 113.694 446.223 114.136Z" fill="#E98862"/>
<path d="M466.668 62.7933C463.049 61.6833 459.295 61.0553 455.506 60.9262C455.139 59.5037 454.321 58.3978 453.118 57.9358C451.115 57.1659 448.668 58.4056 447.041 60.7947C446.135 59.4303 444.909 58.2007 443.284 57.7022C438.8 56.3286 438.577 62.6659 438.577 62.6659C438.577 62.6659 431.467 55.7637 431.245 64.567C430.977 75.2181 432.965 78.3415 434.417 79.1303C437.284 80.6876 439.418 80.4226 440.552 82.7152C443.988 89.653 440.621 109.196 444.596 111.642C450.685 115.391 463.159 115.519 467.21 115.236C468.767 115.126 470.225 113.349 470.881 111.955C473.001 107.453 477.726 97.2466 479.041 93.0256C481.47 85.2349 481.287 67.4892 466.668 62.7933Z" fill="#0C0C0C"/>
<path d="M441.874 104.66C445.393 104.284 447.833 100.279 447.452 96.8187C447.071 93.3588 444.009 91.7554 440.492 92.1306L438.935 94.6424L438.851 104.981L441.874 104.66Z" fill="#E98862"/>
<path d="M500.621 232.443L500.73 232.449C500.73 232.449 500.652 230.385 500.621 232.443Z" fill="#333333"/>
<path d="M404.801 167.982C405.487 175.917 408.827 225.425 409.488 235.2H500.467C500.983 226.384 503.288 187.835 505.238 170.596C507.098 154.146 510.748 145.909 508.073 141.046C503.7 133.098 491.754 128.505 483.608 127.419C478.634 126.757 477.608 126.282 475.581 126.282H440.551C437.22 126.282 415.949 129.44 411.589 132.593C399.519 141.323 403.344 151.165 404.801 167.982Z" fill="#0F233B"/>
<path d="M519.892 234.681C522.568 234.681 525.204 234.045 527.577 232.827C529.949 231.609 531.987 229.845 533.517 227.685C535.048 225.525 536.025 223.034 536.365 220.422C536.706 217.811 536.4 215.158 535.474 212.688C534.536 210.18 512.499 152.777 508.305 142.139L477.243 154.52C479.602 160.501 488.147 183.169 495.013 201.43L483.607 200.211L480.017 232.701L518.094 234.585C518.691 234.649 519.291 234.681 519.892 234.681V234.681Z" fill="#0F233B"/>
<path d="M502.166 170.93L499.931 235.192L500.535 235.212L502.77 170.95L502.166 170.93Z" fill="#0C0C0C"/>
<path d="M391.641 234.681C388.965 234.681 386.328 234.045 383.956 232.827C381.584 231.609 379.546 229.845 378.015 227.685C376.485 225.525 375.508 223.034 375.167 220.423C374.827 217.812 375.132 215.158 376.058 212.688C376.997 210.18 399.956 152.523 404.151 141.887L434.289 154.521C431.931 160.502 423.385 183.17 416.52 201.43L427.926 200.211L431.516 232.701L393.438 234.586C392.841 234.65 392.241 234.681 391.641 234.681V234.681Z" fill="#0F233B"/>
<path d="M416.448 197.62C416.414 197.62 416.38 197.615 416.348 197.605C416.306 197.592 416.268 197.571 416.234 197.543C416.201 197.515 416.173 197.482 416.153 197.443C416.133 197.405 416.121 197.364 416.117 197.321C416.114 197.278 416.119 197.235 416.132 197.194L424.196 172.22C424.222 172.138 424.281 172.069 424.359 172.029C424.438 171.989 424.529 171.982 424.613 172.008C424.697 172.034 424.767 172.092 424.807 172.169C424.848 172.246 424.856 172.335 424.829 172.418L416.765 197.392C416.743 197.458 416.701 197.516 416.644 197.557C416.587 197.598 416.519 197.62 416.448 197.62V197.62Z" fill="#0C0C0C"/>
<path d="M391.893 394.88L393.835 424.942L352.104 425.137C352.104 425.137 349.978 417.592 359.758 414.37C365.195 412.58 368.745 406.559 367.635 399.132L391.893 394.88Z" fill="#383838"/>
<path opacity="0.17" d="M391.893 394.88L393.835 424.942L352.104 425.137C352.104 425.137 349.978 417.592 359.758 414.37C365.195 412.58 368.745 406.559 367.635 399.132L391.893 394.88Z" fill="#070707"/>
<path d="M436.973 394.88L444.638 417.565L415.509 425.06L399.021 425.137C399.021 425.137 396.895 417.592 406.675 414.37C412.112 412.58 413.824 406.559 412.715 399.132L436.973 394.88Z" fill="#383838"/>
<g opacity="0.75">
<path d="M439.861 259.392L396.218 412.98L359.944 403.492L399.605 248.862L439.861 259.392Z" fill="white"/>
</g>
<path d="M439.861 259.392L396.218 412.98L359.944 403.492L399.605 248.862L439.861 259.392Z" fill="#383838"/>
<g opacity="0.52">
<path d="M439.861 259.392L396.218 412.98L359.944 403.492L399.605 248.862L439.861 259.392Z" fill="white"/>
</g>
<path d="M378.36 235.099C375.343 235.105 372.358 235.697 369.575 236.842C366.792 237.987 364.266 239.662 362.144 241.771C360.021 243.88 358.343 246.38 357.207 249.129C356.07 251.879 355.498 254.821 355.522 257.789C355.547 261.426 356.472 265.002 358.217 268.209L409.518 413.047L445.175 401.518L407.03 280.122H477.09C483.216 280.122 489.098 277.752 493.464 273.524C497.831 269.296 500.333 263.548 500.43 257.521L500.795 234.869L378.36 235.099Z" fill="#383838"/>
<path opacity="0.64" d="M378.36 235.099C375.343 235.105 372.358 235.697 369.575 236.842C366.792 237.987 364.266 239.662 362.144 241.771C360.021 243.88 358.343 246.38 357.207 249.129C356.07 251.879 355.498 254.821 355.522 257.789C355.547 261.426 356.472 265.002 358.217 268.209L409.518 413.047L445.175 401.518L407.03 280.122H477.09C483.216 280.122 489.098 277.752 493.464 273.524C497.831 269.296 500.333 263.548 500.43 257.521L500.795 234.869L378.36 235.099Z" fill="white"/>
<path d="M338.952 426L338.03 425.826L357.124 285.035L358.045 285.209L338.952 426Z" fill="#494949"/>
<path d="M397.269 426L396.347 425.826L410.748 285.035L411.67 285.209L397.269 426Z" fill="#494949"/>
<path d="M416.362 223.132H507.966C509.464 223.132 510.91 222.596 512.036 221.624C513.161 220.651 513.888 219.309 514.081 217.848L520.141 172.071C520.254 171.215 520.18 170.346 519.925 169.52C519.669 168.695 519.238 167.932 518.659 167.284C518.08 166.636 517.368 166.116 516.568 165.76C515.769 165.404 514.902 165.22 514.025 165.22H422.421C420.923 165.22 419.477 165.757 418.351 166.729C417.226 167.701 416.499 169.043 416.305 170.504L410.246 216.282C410.133 217.137 410.207 218.007 410.462 218.832C410.718 219.658 411.149 220.42 411.728 221.069C412.307 221.717 413.019 222.236 413.818 222.592C414.618 222.948 415.485 223.132 416.362 223.132V223.132Z" fill="white"/>
<path d="M411.376 221.373C410.753 220.676 410.288 219.855 410.013 218.967C409.738 218.079 409.659 217.143 409.78 216.222L415.84 170.444C416.051 168.874 416.835 167.432 418.045 166.386C419.255 165.34 420.81 164.762 422.42 164.758H514.025C514.968 164.759 515.901 164.957 516.761 165.34C517.621 165.723 518.388 166.282 519.011 166.979C519.634 167.677 520.098 168.497 520.373 169.386C520.648 170.274 520.727 171.21 520.605 172.13L514.546 217.908C514.335 219.479 513.551 220.921 512.341 221.966C511.131 223.012 509.576 223.59 507.965 223.594H416.362C415.418 223.594 414.485 223.396 413.625 223.013C412.765 222.63 411.998 222.071 411.376 221.373V221.373ZM422.421 165.682C421.038 165.685 419.704 166.181 418.665 167.079C417.626 167.977 416.953 169.215 416.771 170.563L410.712 216.341C410.607 217.132 410.675 217.935 410.911 218.698C411.147 219.461 411.546 220.165 412.081 220.764C412.615 221.363 413.274 221.843 414.012 222.172C414.751 222.501 415.552 222.671 416.362 222.671H507.966C509.349 222.668 510.684 222.171 511.723 221.274C512.762 220.376 513.435 219.138 513.616 217.789L519.676 172.011C519.78 171.221 519.712 170.417 519.476 169.655C519.24 168.892 518.842 168.188 518.307 167.588C517.772 166.989 517.113 166.509 516.375 166.181C515.637 165.852 514.836 165.682 514.025 165.682H422.421Z" fill="#292A2E"/>
<path d="M356.194 289.661H450.647C453.196 289.661 455.262 287.629 455.262 285.122V285.121C455.262 282.614 453.196 280.582 450.647 280.582H356.194C353.646 280.582 351.58 282.614 351.58 285.121V285.122C351.58 287.629 353.646 289.661 356.194 289.661Z" fill="white"/>
<path d="M351.111 285.122C351.113 283.796 351.649 282.526 352.602 281.589C353.555 280.651 354.847 280.124 356.194 280.122H450.647C451.314 280.122 451.975 280.252 452.592 280.503C453.209 280.754 453.769 281.123 454.241 281.587C454.713 282.051 455.088 282.603 455.343 283.209C455.599 283.816 455.73 284.467 455.73 285.123C455.73 285.78 455.599 286.43 455.343 287.037C455.088 287.644 454.713 288.195 454.241 288.66C453.769 289.124 453.209 289.492 452.592 289.744C451.975 289.995 451.314 290.124 450.647 290.124H356.194C354.846 290.122 353.554 289.595 352.601 288.657C351.648 287.719 351.113 286.448 351.111 285.122V285.122ZM356.195 281.044C355.096 281.044 354.042 281.474 353.264 282.238C352.487 283.003 352.05 284.04 352.05 285.122C352.05 286.203 352.487 287.241 353.264 288.005C354.042 288.77 355.096 289.2 356.195 289.2H450.647C451.746 289.2 452.801 288.77 453.578 288.005C454.355 287.241 454.792 286.203 454.792 285.122C454.792 284.04 454.355 283.003 453.578 282.238C452.801 281.474 451.746 281.044 450.647 281.044H356.195Z" fill="#292A2E"/>
<path d="M515.804 426L516.725 425.826L502.324 285.035L501.402 285.209L515.804 426Z" fill="#494949"/>
<path d="M462.179 426L463.1 425.826L448.699 285.035L447.777 285.209L462.179 426Z" fill="#494949"/>
<path d="M416.363 223.068L407.95 285.058L408.88 285.18L417.293 223.19L416.363 223.068Z" fill="#494949"/>
<path d="M512.929 223.068L504.516 285.058L505.446 285.18L513.859 223.191L512.929 223.068Z" fill="#494949"/>
<path d="M408.035 289.661H502.488C505.037 289.661 507.103 287.629 507.103 285.122V285.121C507.103 282.614 505.037 280.582 502.488 280.582H408.035C405.486 280.582 403.421 282.614 403.421 285.121V285.122C403.421 287.629 405.486 289.661 408.035 289.661Z" fill="#292A2E"/>
<path opacity="0.8" d="M408.035 289.661H502.488C505.037 289.661 507.103 287.629 507.103 285.122V285.121C507.103 282.614 505.037 280.582 502.488 280.582H408.035C405.486 280.582 403.421 282.614 403.421 285.121V285.122C403.421 287.629 405.486 289.661 408.035 289.661Z" fill="white"/>
<path d="M402.952 285.122C402.954 283.796 403.49 282.525 404.443 281.588C405.396 280.651 406.688 280.124 408.035 280.122H502.489C503.837 280.122 505.13 280.649 506.083 281.587C507.036 282.525 507.572 283.797 507.572 285.123C507.572 286.45 507.036 287.722 506.083 288.66C505.13 289.597 503.837 290.124 502.489 290.124H408.035C406.687 290.123 405.395 289.595 404.442 288.657C403.489 287.72 402.953 286.448 402.952 285.122V285.122ZM408.035 281.044C406.936 281.044 405.881 281.474 405.104 282.238C404.327 283.003 403.89 284.04 403.89 285.122C403.89 286.203 404.327 287.241 405.104 288.005C405.881 288.77 406.936 289.2 408.035 289.2H502.489C503.588 289.2 504.642 288.77 505.42 288.005C506.197 287.241 506.634 286.203 506.634 285.122C506.634 284.04 506.197 283.003 505.42 282.238C504.642 281.474 503.588 281.044 502.489 281.044H408.035Z" fill="#292A2E"/>
<path d="M421.542 223.132H513.146C514.644 223.132 516.09 222.596 517.216 221.624C518.341 220.651 519.069 219.309 519.262 217.848L525.321 172.071C525.434 171.215 525.361 170.346 525.105 169.52C524.85 168.695 524.418 167.932 523.84 167.284C523.261 166.636 522.548 166.116 521.749 165.76C520.95 165.404 520.083 165.22 519.206 165.22H427.601C426.104 165.221 424.658 165.757 423.532 166.729C422.407 167.701 421.68 169.043 421.487 170.504L415.428 216.282C415.314 217.137 415.388 218.007 415.643 218.832C415.899 219.658 416.33 220.42 416.909 221.068C417.488 221.716 418.2 222.236 418.999 222.592C419.798 222.948 420.665 223.132 421.542 223.132V223.132Z" fill="#292A2E"/>
<path opacity="0.8" d="M421.542 223.132H513.146C514.644 223.132 516.09 222.596 517.216 221.624C518.341 220.651 519.069 219.309 519.262 217.848L525.321 172.071C525.434 171.215 525.361 170.346 525.105 169.52C524.85 168.695 524.418 167.932 523.84 167.284C523.261 166.636 522.548 166.116 521.749 165.76C520.95 165.404 520.083 165.22 519.206 165.22H427.601C426.104 165.221 424.658 165.757 423.532 166.729C422.407 167.701 421.68 169.043 421.487 170.504L415.428 216.282C415.314 217.137 415.388 218.007 415.643 218.832C415.899 219.658 416.33 220.42 416.909 221.068C417.488 221.716 418.2 222.236 418.999 222.592C419.798 222.948 420.665 223.132 421.542 223.132V223.132Z" fill="white"/>
<path d="M416.555 221.373C415.932 220.676 415.468 219.855 415.193 218.967C414.918 218.079 414.839 217.143 414.96 216.222L421.02 170.444C421.231 168.874 422.015 167.431 423.225 166.386C424.435 165.34 425.99 164.762 427.601 164.758H519.205C520.149 164.759 521.082 164.957 521.941 165.34C522.801 165.723 523.568 166.282 524.191 166.979C524.814 167.677 525.278 168.497 525.553 169.386C525.828 170.274 525.907 171.21 525.785 172.13L519.726 217.908C519.515 219.479 518.731 220.921 517.521 221.966C516.311 223.012 514.756 223.59 513.145 223.594H421.542C420.598 223.594 419.665 223.396 418.805 223.013C417.945 222.63 417.178 222.071 416.555 221.373V221.373ZM427.601 165.682C426.218 165.685 424.883 166.181 423.844 167.079C422.805 167.977 422.132 169.215 421.951 170.563L415.891 216.341C415.787 217.132 415.855 217.935 416.091 218.698C416.327 219.461 416.726 220.165 417.26 220.764C417.795 221.363 418.454 221.843 419.192 222.172C419.93 222.501 420.731 222.671 421.542 222.671H513.146C514.529 222.668 515.863 222.171 516.902 221.273C517.942 220.376 518.614 219.138 518.796 217.789L524.855 172.011C524.96 171.22 524.892 170.417 524.656 169.654C524.42 168.892 524.021 168.187 523.486 167.588C522.952 166.989 522.293 166.509 521.555 166.18C520.817 165.852 520.016 165.682 519.205 165.682H427.601Z" fill="#292A2E"/>
<path d="M0.82842 425.789H526.497C526.584 425.789 526.667 425.755 526.729 425.694C526.791 425.633 526.825 425.551 526.825 425.466C526.825 425.38 526.791 425.298 526.729 425.237C526.667 425.176 526.584 425.142 526.497 425.142H0.82842C0.785291 425.142 0.742585 425.151 0.702739 425.167C0.662893 425.183 0.626689 425.207 0.596192 425.237C0.565695 425.267 0.541504 425.303 0.524999 425.342C0.508495 425.381 0.5 425.423 0.5 425.466C0.5 425.508 0.508495 425.55 0.524999 425.589C0.541504 425.628 0.565695 425.664 0.596192 425.694C0.626689 425.724 0.662893 425.748 0.702739 425.764C0.742585 425.78 0.785291 425.789 0.82842 425.789V425.789Z" fill="#292A2E"/>
<g opacity="0.65">
<path d="M0.82842 425.789H526.497C526.584 425.789 526.667 425.755 526.729 425.694C526.791 425.633 526.825 425.551 526.825 425.466C526.825 425.38 526.791 425.298 526.729 425.237C526.667 425.176 526.584 425.142 526.497 425.142H0.82842C0.785291 425.142 0.742585 425.151 0.702739 425.167C0.662893 425.183 0.626689 425.207 0.596192 425.237C0.565695 425.267 0.541504 425.303 0.524999 425.342C0.508495 425.381 0.5 425.423 0.5 425.466C0.5 425.508 0.508495 425.55 0.524999 425.589C0.541504 425.628 0.565695 425.664 0.596192 425.694C0.626689 425.724 0.662893 425.748 0.702739 425.764C0.742585 425.78 0.785291 425.789 0.82842 425.789V425.789Z" fill="#292A2E"/>
</g>
</g>
<defs>
<clipPath id="clip0_604_3347">
<rect width="536" height="426" fill="white" transform="translate(0.5)"/>
</clipPath>
</defs>
</svg>
