<svg width="583" height="549" viewBox="0 0 583 549" fill="none" xmlns="http://www.w3.org/2000/svg">
<g clip-path="url(#clip0_604_3023)">
<path d="M472.596 362.806H330.488C324.702 362.806 320.012 367.218 320.012 372.66V445.149C320.012 450.591 324.702 455.003 330.488 455.003H472.596C478.382 455.003 483.072 450.591 483.072 445.149V372.66C483.072 367.218 478.382 362.806 472.596 362.806Z" fill="white"/>
<path opacity="0.1" d="M472.596 362.806H330.488C324.702 362.806 320.012 367.218 320.012 372.66V445.149C320.012 450.591 324.702 455.003 330.488 455.003H472.596C478.382 455.003 483.072 450.591 483.072 445.149V372.66C483.072 367.218 478.382 362.806 472.596 362.806Z" fill="#0F233B"/>
<path d="M438.156 412.241H425.573C424.807 412.241 424.186 412.825 424.186 413.546V439.78C424.186 440.501 424.807 441.085 425.573 441.085H438.156C438.922 441.085 439.543 440.501 439.543 439.78V413.546C439.543 412.825 438.922 412.241 438.156 412.241Z" fill="white"/>
<path d="M468.479 389.809H455.896C455.13 389.809 454.509 390.393 454.509 391.114V439.78C454.509 440.501 455.13 441.085 455.896 441.085H468.479C469.245 441.085 469.866 440.501 469.866 439.78V391.114C469.866 390.393 469.245 389.809 468.479 389.809Z" fill="white"/>
<path d="M347.187 412.241H334.604C333.838 412.241 333.217 412.825 333.217 413.546V439.78C333.217 440.501 333.838 441.085 334.604 441.085H347.187C347.953 441.085 348.574 440.501 348.574 439.78V413.546C348.574 412.825 347.953 412.241 347.187 412.241Z" fill="white"/>
<path d="M377.51 379.609H364.928C364.162 379.609 363.541 380.194 363.541 380.914V439.78C363.541 440.5 364.162 441.085 364.928 441.085H377.51C378.276 441.085 378.898 440.5 378.898 439.78V380.914C378.898 380.194 378.276 379.609 377.51 379.609Z" fill="white"/>
<path d="M407.833 405.776H395.25C394.484 405.776 393.863 406.36 393.863 407.081V439.78C393.863 440.5 394.484 441.085 395.25 441.085H407.833C408.599 441.085 409.22 440.5 409.22 439.78V407.081C409.22 406.36 408.599 405.776 407.833 405.776Z" fill="white"/>
<path d="M216.837 306.417H36.4762C29.133 306.417 23.1802 312.017 23.1802 318.924V410.926C23.1802 417.833 29.133 423.432 36.4762 423.432H216.837C224.18 423.432 230.133 417.833 230.133 410.926V318.924C230.133 312.017 224.18 306.417 216.837 306.417Z" fill="white"/>
<path opacity="0.1" d="M216.837 306.417H36.4762C29.133 306.417 23.1802 312.017 23.1802 318.924V410.926C23.1802 417.833 29.133 423.432 36.4762 423.432H216.837C224.18 423.432 230.133 417.833 230.133 410.926V318.924C230.133 312.017 224.18 306.417 216.837 306.417Z" fill="#0F233B"/>
<path d="M173.127 369.16H157.157C156.185 369.16 155.396 369.902 155.396 370.816V404.112C155.396 405.026 156.185 405.768 157.157 405.768H173.127C174.099 405.768 174.887 405.026 174.887 404.112V370.816C174.887 369.902 174.099 369.16 173.127 369.16Z" fill="white"/>
<path d="M211.612 340.69H195.642C194.67 340.69 193.882 341.432 193.882 342.346V404.113C193.882 405.027 194.67 405.768 195.642 405.768H211.612C212.585 405.768 213.373 405.027 213.373 404.113V342.346C213.373 341.432 212.585 340.69 211.612 340.69Z" fill="white"/>
<path d="M57.6706 369.16H41.7002C40.7281 369.16 39.9399 369.902 39.9399 370.816V404.112C39.9399 405.026 40.7281 405.768 41.7002 405.768H57.6706C58.6428 405.768 59.4309 405.026 59.4309 404.112V370.816C59.4309 369.902 58.6428 369.16 57.6706 369.16Z" fill="white"/>
<path d="M96.1559 327.745H80.1856C79.2134 327.745 78.4253 328.486 78.4253 329.401V404.112C78.4253 405.027 79.2134 405.768 80.1856 405.768H96.1559C97.1281 405.768 97.9163 405.027 97.9163 404.112V329.401C97.9163 328.486 97.1281 327.745 96.1559 327.745Z" fill="white"/>
<path d="M134.642 360.955H118.671C117.699 360.955 116.911 361.696 116.911 362.611V404.112C116.911 405.027 117.699 405.768 118.671 405.768H134.642C135.614 405.768 136.402 405.027 136.402 404.112V362.611C136.402 361.696 135.614 360.955 134.642 360.955Z" fill="white"/>
<path d="M558.789 0H351.646C343.213 0 336.376 6.43084 336.376 14.3637V120.028C336.376 127.96 343.213 134.391 351.646 134.391H558.789C567.223 134.391 574.06 127.96 574.06 120.028V14.3637C574.06 6.43084 567.223 0 558.789 0Z" fill="white"/>
<path opacity="0.1" d="M558.789 0H351.646C343.213 0 336.376 6.43084 336.376 14.3637V120.028C336.376 127.96 343.213 134.391 351.646 134.391H558.789C567.223 134.391 574.06 127.96 574.06 120.028V14.3637C574.06 6.43084 567.223 0 558.789 0Z" fill="#0F233B"/>
<path d="M508.589 72.0602H490.248C489.131 72.0602 488.226 72.9116 488.226 73.9618V112.202C488.226 113.252 489.131 114.104 490.248 114.104H508.589C509.706 114.104 510.611 113.252 510.611 112.202V73.9618C510.611 72.9116 509.706 72.0602 508.589 72.0602Z" fill="white"/>
<path d="M552.789 39.3619H534.447C533.331 39.3619 532.426 40.2132 532.426 41.2635V112.202C532.426 113.252 533.331 114.104 534.447 114.104H552.789C553.906 114.104 554.811 113.252 554.811 112.202V41.2635C554.811 40.2132 553.906 39.3619 552.789 39.3619Z" fill="white"/>
<path d="M375.988 72.0602H357.647C356.53 72.0602 355.625 72.9116 355.625 73.9618V112.202C355.625 113.252 356.53 114.104 357.647 114.104H375.988C377.105 114.104 378.01 113.252 378.01 112.202V73.9618C378.01 72.9116 377.105 72.0602 375.988 72.0602Z" fill="white"/>
<path d="M420.189 24.4946H401.847C400.731 24.4946 399.826 25.346 399.826 26.3962V112.202C399.826 113.252 400.731 114.104 401.847 114.104H420.189C421.305 114.104 422.211 113.252 422.211 112.202V26.3962C422.211 25.346 421.305 24.4946 420.189 24.4946Z" fill="white"/>
<path d="M464.389 62.636H446.047C444.93 62.636 444.025 63.4874 444.025 64.5376V112.202C444.025 113.252 444.93 114.103 446.047 114.103H464.389C465.505 114.103 466.41 113.252 466.41 112.202V64.5376C466.41 63.4874 465.505 62.636 464.389 62.636Z" fill="white"/>
<path d="M108.999 110.924H7.94892C3.835 110.924 0.5 114.061 0.5 117.931V169.477C0.5 173.346 3.835 176.483 7.94892 176.483H108.999C113.113 176.483 116.448 173.346 116.448 169.477V117.931C116.448 114.061 113.113 110.924 108.999 110.924Z" fill="white"/>
<path opacity="0.3" d="M108.999 110.924H7.94892C3.835 110.924 0.5 114.061 0.5 117.931V169.477C0.5 173.346 3.835 176.483 7.94892 176.483H108.999C113.113 176.483 116.448 173.346 116.448 169.477V117.931C116.448 114.061 113.113 110.924 108.999 110.924Z" fill="#0F233B"/>
<path d="M84.5101 146.077H75.5622C75.0176 146.077 74.5762 146.492 74.5762 147.004V165.659C74.5762 166.171 75.0176 166.587 75.5622 166.587H84.5101C85.0546 166.587 85.4961 166.171 85.4961 165.659V147.004C85.4961 146.492 85.0546 146.077 84.5101 146.077Z" fill="white"/>
<path d="M106.072 130.125H97.1237C96.5792 130.125 96.1377 130.541 96.1377 131.053V165.659C96.1377 166.171 96.5792 166.586 97.1237 166.586H106.072C106.616 166.586 107.058 166.171 107.058 165.659V131.053C107.058 130.541 106.616 130.125 106.072 130.125Z" fill="white"/>
<path d="M19.824 146.077H10.8761C10.3316 146.077 9.89014 146.492 9.89014 147.004V165.659C9.89014 166.171 10.3316 166.587 10.8761 166.587H19.824C20.3686 166.587 20.8101 166.171 20.8101 165.659V147.004C20.8101 146.492 20.3686 146.077 19.824 146.077Z" fill="white"/>
<path d="M41.3861 122.873H32.4382C31.8936 122.873 31.4521 123.288 31.4521 123.801V165.659C31.4521 166.171 31.8936 166.587 32.4382 166.587H41.3861C41.9306 166.587 42.3721 166.171 42.3721 165.659V123.801C42.3721 123.288 41.9306 122.873 41.3861 122.873Z" fill="white"/>
<path d="M62.9476 141.479H53.9997C53.4551 141.479 53.0137 141.894 53.0137 142.407V165.659C53.0137 166.171 53.4551 166.586 53.9997 166.586H62.9476C63.4921 166.586 63.9336 166.171 63.9336 165.659V142.407C63.9336 141.894 63.4921 141.479 62.9476 141.479Z" fill="white"/>
<path d="M96.8381 343.295L504.967 343.295C514.989 343.295 523.114 335.653 523.114 326.225V45.1565C523.114 35.7291 514.989 28.0867 504.967 28.0867L96.8381 28.0867C86.8155 28.0867 78.6906 35.7291 78.6906 45.1565L78.6906 326.225C78.6906 335.653 86.8155 343.295 96.8381 343.295Z" fill="white"/>
<path d="M78.085 326.225V45.1565C78.0906 40.48 80.0681 35.9966 83.5836 32.6898C87.0991 29.383 91.8656 27.523 96.8373 27.5177H504.966C509.938 27.523 514.704 29.383 518.22 32.6898C521.735 35.9966 523.713 40.48 523.718 45.1565V326.225C523.713 330.902 521.735 335.385 518.22 338.692C514.704 341.999 509.938 343.859 504.966 343.864H96.8373C91.8656 343.859 87.0991 341.999 83.5836 338.692C80.0681 335.385 78.0906 330.902 78.085 326.225V326.225ZM96.8373 28.6557C92.1864 28.6608 87.7276 30.4009 84.4389 33.4943C81.1502 36.5877 79.3002 40.7818 79.2948 45.1565V326.225C79.3001 330.6 81.15 334.794 84.4387 337.888C87.7274 340.981 92.1864 342.721 96.8373 342.726H504.966C509.617 342.721 514.076 340.981 517.365 337.888C520.654 334.794 522.503 330.6 522.509 326.225V45.1565C522.503 40.7817 520.653 36.5876 517.365 33.4942C514.076 30.4007 509.617 28.6607 504.966 28.6557H96.8373Z" fill="#292A2E"/>
<path d="M78.6904 45.1548V62.331H523.112V45.1548C523.112 40.6276 521.2 36.2858 517.796 33.0846C514.393 29.8834 509.777 28.085 504.964 28.085H96.8379C92.0249 28.085 87.409 29.8834 84.0057 33.0846C80.6024 36.2858 78.6904 40.6276 78.6904 45.1548Z" fill="#292A2E"/>
<path d="M499.101 78.6526H325.933C321.683 78.6526 318.237 81.8937 318.237 85.8919V201.118C318.237 205.116 321.683 208.357 325.933 208.357H499.101C503.351 208.357 506.797 205.116 506.797 201.118V85.8919C506.797 81.8937 503.351 78.6526 499.101 78.6526Z" fill="white"/>
<path opacity="0.15" d="M499.101 78.6526H325.933C321.683 78.6526 318.237 81.8937 318.237 85.8919V201.118C318.237 205.116 321.683 208.357 325.933 208.357H499.101C503.351 208.357 506.797 205.116 506.797 201.118V85.8919C506.797 81.8937 503.351 78.6526 499.101 78.6526Z" fill="#0F233B"/>
<path d="M352.082 94.8376H337.116C336.421 94.8376 335.857 95.3677 335.857 96.0217V190.988C335.857 191.642 336.421 192.172 337.116 192.172H352.082C352.778 192.172 353.341 191.642 353.341 190.988V96.0217C353.341 95.3677 352.778 94.8376 352.082 94.8376Z" fill="#FAFAFA"/>
<path opacity="0.6" d="M335.857 142.549H353.339V190.988C353.339 191.302 353.207 191.603 352.971 191.825C352.735 192.047 352.414 192.172 352.081 192.172H337.116C336.782 192.172 336.462 192.047 336.226 191.825C335.99 191.603 335.857 191.302 335.857 190.988V142.549Z" fill="#0F233B"/>
<path d="M386.041 94.8376H371.075C370.38 94.8376 369.816 95.3677 369.816 96.0217V190.988C369.816 191.642 370.38 192.172 371.075 192.172H386.041C386.736 192.172 387.3 191.642 387.3 190.988V96.0217C387.3 95.3677 386.736 94.8376 386.041 94.8376Z" fill="#FAFAFA"/>
<path opacity="0.6" d="M369.816 129.059H387.298V190.987C387.298 191.301 387.165 191.603 386.929 191.825C386.693 192.047 386.373 192.171 386.039 192.171H371.075C370.741 192.171 370.421 192.047 370.185 191.825C369.949 191.603 369.816 191.301 369.816 190.987V129.059Z" fill="#0F233B"/>
<path d="M487.918 94.8376H472.952C472.256 94.8376 471.693 95.3677 471.693 96.0217V190.988C471.693 191.642 472.256 192.172 472.952 192.172H487.918C488.613 192.172 489.177 191.642 489.177 190.988V96.0217C489.177 95.3677 488.613 94.8376 487.918 94.8376Z" fill="#FAFAFA"/>
<path opacity="0.6" d="M471.693 115.449H489.175V190.988C489.175 191.302 489.042 191.604 488.806 191.826C488.57 192.048 488.25 192.172 487.916 192.172H472.952C472.618 192.172 472.298 192.048 472.062 191.826C471.826 191.604 471.693 191.302 471.693 190.988V115.449H471.693Z" fill="#0F233B"/>
<path d="M420 94.8376H405.034C404.339 94.8376 403.775 95.3677 403.775 96.0217V190.988C403.775 191.642 404.339 192.172 405.034 192.172H420C420.696 192.172 421.259 191.642 421.259 190.988V96.0217C421.259 95.3677 420.696 94.8376 420 94.8376Z" fill="#FAFAFA"/>
<path opacity="0.6" d="M403.775 164.369H421.257V190.988C421.257 191.302 421.125 191.603 420.889 191.825C420.653 192.047 420.332 192.172 419.999 192.172H405.034C404.7 192.172 404.38 192.047 404.144 191.825C403.908 191.603 403.775 191.302 403.775 190.988V164.369Z" fill="#0F233B"/>
<path d="M453.959 94.8376H438.993C438.298 94.8376 437.734 95.3677 437.734 96.0217V190.988C437.734 191.642 438.298 192.172 438.993 192.172H453.959C454.655 192.172 455.218 191.642 455.218 190.988V96.0217C455.218 95.3677 454.655 94.8376 453.959 94.8376Z" fill="#FAFAFA"/>
<path opacity="0.6" d="M437.732 147.36H455.214V190.987C455.214 191.301 455.082 191.603 454.846 191.825C454.61 192.047 454.29 192.171 453.956 192.171H438.993C438.828 192.171 438.664 192.141 438.511 192.081C438.359 192.022 438.22 191.935 438.103 191.825C437.986 191.715 437.893 191.584 437.83 191.44C437.767 191.297 437.734 191.143 437.734 190.987V147.36H437.732Z" fill="#0F233B"/>
<path opacity="0.15" d="M495.78 221.053H327.171C321.086 221.053 316.153 225.693 316.153 231.416V317.295C316.153 323.018 321.086 327.658 327.171 327.658H495.78C501.864 327.658 506.797 323.018 506.797 317.295V231.416C506.797 225.693 501.864 221.053 495.78 221.053Z" fill="#0F233B"/>
<path d="M430.193 247.681C432.455 247.681 434.289 245.957 434.289 243.829C434.289 241.702 432.455 239.977 430.193 239.977C427.932 239.977 426.098 241.702 426.098 243.829C426.098 245.957 427.932 247.681 430.193 247.681Z" fill="#0F233B"/>
<path d="M430.193 267.318C432.455 267.318 434.289 265.593 434.289 263.466C434.289 261.338 432.455 259.614 430.193 259.614C427.932 259.614 426.098 261.338 426.098 263.466C426.098 265.593 427.932 267.318 430.193 267.318Z" fill="#262626"/>
<path d="M430.193 286.955C432.455 286.955 434.289 285.23 434.289 283.103C434.289 280.975 432.455 279.251 430.193 279.251C427.932 279.251 426.098 280.975 426.098 283.103C426.098 285.23 427.932 286.955 430.193 286.955Z" fill="white"/>
<path opacity="0.5" d="M430.193 306.591C432.455 306.591 434.289 304.867 434.289 302.739C434.289 300.612 432.455 298.887 430.193 298.887C427.932 298.887 426.098 300.612 426.098 302.739C426.098 304.867 427.932 306.591 430.193 306.591Z" fill="#0F233B"/>
<path d="M487.026 243.827C487.026 244.405 486.782 244.96 486.347 245.368C485.913 245.777 485.324 246.007 484.709 246.007H445.345C444.797 246.016 444.263 245.848 443.831 245.531C443.399 245.214 443.096 244.768 442.973 244.266C442.904 243.949 442.911 243.621 442.994 243.307C443.076 242.993 443.232 242.7 443.449 242.45C443.667 242.199 443.941 241.997 444.252 241.859C444.563 241.72 444.902 241.648 445.246 241.648H484.709C485.013 241.648 485.315 241.704 485.596 241.814C485.877 241.923 486.132 242.084 486.348 242.286C486.563 242.489 486.733 242.729 486.85 242.993C486.966 243.258 487.026 243.541 487.026 243.827V243.827Z" fill="white"/>
<path d="M487.026 263.465C487.026 264.043 486.782 264.597 486.347 265.006C485.913 265.415 485.323 265.644 484.709 265.644H445.368C445.047 265.649 444.728 265.593 444.43 265.479C444.132 265.366 443.862 265.197 443.634 264.984C443.407 264.77 443.228 264.516 443.107 264.236C442.986 263.956 442.926 263.656 442.93 263.354C442.961 262.796 443.218 262.27 443.649 261.885C444.08 261.501 444.652 261.286 445.246 261.286H484.709C485.013 261.286 485.314 261.343 485.596 261.452C485.877 261.562 486.132 261.722 486.347 261.924C486.562 262.127 486.733 262.367 486.849 262.631C486.966 262.896 487.026 263.179 487.026 263.465V263.465Z" fill="white"/>
<path d="M487.026 283.103C487.026 283.681 486.782 284.235 486.348 284.644C485.913 285.053 485.324 285.282 484.709 285.282H445.008C444.456 285.282 443.926 285.076 443.536 284.709C443.146 284.342 442.927 283.844 442.927 283.325V282.882C442.927 282.362 443.146 281.865 443.536 281.497C443.926 281.13 444.456 280.924 445.008 280.924H484.709C485.014 280.924 485.315 280.98 485.596 281.09C485.877 281.199 486.132 281.36 486.348 281.562C486.563 281.764 486.733 282.005 486.85 282.269C486.966 282.533 487.026 282.817 487.026 283.103Z" fill="white"/>
<path d="M487.026 302.741C487.026 303.319 486.782 303.873 486.348 304.282C485.913 304.69 485.324 304.92 484.709 304.92H445.354C444.806 304.93 444.27 304.762 443.837 304.446C443.404 304.129 443.099 303.683 442.973 303.18C442.904 302.864 442.911 302.536 442.994 302.222C443.076 301.908 443.231 301.615 443.449 301.365C443.666 301.114 443.94 300.912 444.251 300.774C444.562 300.635 444.901 300.563 445.245 300.563H484.708C485.012 300.563 485.314 300.619 485.595 300.728C485.876 300.838 486.131 300.998 486.347 301.2C486.562 301.402 486.733 301.643 486.849 301.907C486.966 302.171 487.026 302.454 487.026 302.741Z" fill="white"/>
<path d="M353.354 273.284C353.355 277.98 354.904 282.559 357.787 286.393C360.671 290.226 364.747 293.123 369.454 294.687L362.834 309.874C353.729 306.646 346.116 300.516 341.323 292.552C336.529 284.587 334.858 275.293 336.601 266.289C338.344 257.285 343.39 249.141 350.861 243.277C358.331 237.412 367.752 234.199 377.482 234.198V250.593C371.083 250.592 364.947 252.983 360.422 257.238C355.897 261.494 353.355 267.265 353.354 273.284V273.284Z" fill="#0F233B"/>
<path d="M419.04 273.284H401.609C401.609 267.265 399.068 261.493 394.543 257.237C390.018 252.981 383.881 250.59 377.482 250.589V234.194C388.504 234.194 399.075 238.313 406.868 245.644C414.662 252.974 419.04 262.917 419.04 273.284V273.284Z" fill="#262626"/>
<path d="M419.04 273.284C419.039 282.142 415.841 290.736 409.97 297.661C404.099 304.586 395.903 309.431 386.723 311.403L383.77 295.197C388.89 293.896 393.412 291.045 396.637 287.084C399.861 283.123 401.609 278.273 401.61 273.284H419.04Z" fill="white"/>
<path opacity="0.5" d="M386.722 311.403C378.771 313.098 370.467 312.566 362.834 309.872L369.454 294.687C374.062 296.209 379.052 296.387 383.769 295.199L386.722 311.403Z" fill="#0F233B"/>
<path opacity="0.15" d="M291.962 78.6526H105.873C99.8593 78.6526 94.9844 83.238 94.9844 88.8945V317.416C94.9844 323.072 99.8593 327.658 105.873 327.658H291.962C297.976 327.658 302.851 323.072 302.851 317.416V88.8945C302.851 83.238 297.976 78.6526 291.962 78.6526Z" fill="#0F233B"/>
<path d="M255.157 175.834C255.157 187.197 251.576 198.304 244.865 207.751C238.154 217.199 228.615 224.562 217.455 228.91C206.295 233.259 194.015 234.396 182.167 232.18C170.32 229.963 159.437 224.492 150.896 216.457C142.354 208.423 136.537 198.187 134.18 187.043C131.824 175.899 133.033 164.348 137.656 153.851C142.278 143.353 150.107 134.381 160.15 128.068C170.194 121.756 182.003 118.387 194.082 118.387V175.834H255.157Z" fill="#FAFAFA"/>
<path opacity="0.6" d="M262.645 168.372H201.573V110.924C217.771 110.925 233.305 116.978 244.758 127.751C256.211 138.525 262.645 153.136 262.645 168.372V168.372Z" fill="#0F233B"/>
<path opacity="0.6" d="M130.751 265.872C133.013 265.872 134.846 264.147 134.846 262.02C134.846 259.892 133.013 258.168 130.751 258.168C128.489 258.168 126.656 259.892 126.656 262.02C126.656 264.147 128.489 265.872 130.751 265.872Z" fill="#0F233B"/>
<path d="M130.751 285.509C133.013 285.509 134.846 283.784 134.846 281.657C134.846 279.53 133.013 277.805 130.751 277.805C128.489 277.805 126.656 279.53 126.656 281.657C126.656 283.784 128.489 285.509 130.751 285.509Z" fill="#FAFAFA"/>
<path opacity="0.6" d="M271.061 262.022C271.061 262.6 270.817 263.154 270.383 263.563C269.948 263.971 269.359 264.201 268.744 264.201H145.902C145.355 264.21 144.82 264.042 144.388 263.725C143.956 263.408 143.653 262.961 143.53 262.459C143.461 262.142 143.469 261.815 143.551 261.501C143.634 261.187 143.789 260.894 144.007 260.643C144.225 260.393 144.499 260.191 144.809 260.052C145.12 259.914 145.46 259.842 145.804 259.842H268.744C269.049 259.842 269.35 259.898 269.631 260.008C269.912 260.117 270.168 260.278 270.383 260.48C270.598 260.683 270.769 260.923 270.885 261.187C271.001 261.452 271.061 261.735 271.061 262.022V262.022Z" fill="#0F233B"/>
<path d="M271.061 281.657C271.061 282.235 270.817 282.789 270.383 283.197C269.948 283.606 269.359 283.836 268.744 283.836H145.926C145.605 283.84 145.286 283.784 144.988 283.671C144.69 283.557 144.419 283.389 144.192 283.175C143.965 282.962 143.785 282.707 143.664 282.427C143.543 282.147 143.483 281.847 143.487 281.545C143.518 280.987 143.776 280.461 144.207 280.076C144.638 279.692 145.21 279.477 145.804 279.477H268.744C269.049 279.477 269.35 279.534 269.631 279.643C269.912 279.753 270.167 279.913 270.383 280.116C270.598 280.318 270.768 280.558 270.885 280.823C271.001 281.087 271.061 281.37 271.061 281.657V281.657Z" fill="white"/>
<path d="M543.392 549H47.108C46.9957 549 46.888 548.958 46.8086 548.883C46.7292 548.809 46.6846 548.707 46.6846 548.602C46.6846 548.496 46.7292 548.395 46.8086 548.32C46.888 548.245 46.9957 548.203 47.108 548.203H543.392C543.504 548.203 543.612 548.245 543.691 548.32C543.77 548.395 543.815 548.496 543.815 548.602C543.815 548.707 543.77 548.809 543.691 548.883C543.612 548.958 543.504 549 543.392 549Z" fill="#292A2E"/>
<path d="M173.369 523.467C173.369 523.467 176.101 536.784 189.354 537.529C202.608 538.273 199.735 548.203 199.735 548.203H149.082V524.396L173.369 523.467Z" fill="#0F233B"/>
<path d="M145.647 280.546C145.647 280.546 149.435 276.544 149.402 285.624C149.276 319.496 146.847 531.966 146.847 531.966L180.133 531.703L200.296 279.17L145.647 280.546Z" fill="#262626"/>
<path d="M230.208 523.467C230.208 523.467 232.939 536.784 246.194 537.526C259.45 538.268 256.575 548.201 256.575 548.201H205.92V524.396L230.208 523.467Z" fill="#0F233B"/>
<path d="M236.646 283.177C236.646 283.177 240.804 398.942 240.372 404.6L236.462 531.088L203.726 531.657L198.448 400.023C198.448 400.023 194.987 363.713 185.66 329.995C180.888 312.69 178.016 294.971 177.09 277.114V277.114L236.646 283.177Z" fill="#262626"/>
<path d="M193.46 365.254L196.189 325.989C196.189 325.989 198.993 342.312 198.993 356.382C198.993 363.26 197.487 390.489 197.487 390.489L193.46 365.254Z" fill="#0A0A0A"/>
<path d="M145.284 280.543L145.176 280.549C145.176 280.549 145.255 278.574 145.284 280.543Z" fill="#333333"/>
<path d="M145.421 280.543L145.313 280.549C145.313 280.549 145.391 278.574 145.421 280.543Z" fill="#333333"/>
<path d="M327.819 186.58C327.619 186.207 327.3 185.901 326.907 185.705C326.514 185.51 326.066 185.433 325.625 185.487C325.628 185.451 325.62 185.414 325.6 185.382C325.58 185.357 325.553 185.337 325.522 185.326C325.491 185.314 325.457 185.31 325.424 185.314L326.912 184.31C327.358 184.024 327.678 183.595 327.814 183.103C327.949 182.611 327.891 182.09 327.649 181.636C327.396 181.194 326.977 180.857 326.474 180.69C325.971 180.523 325.419 180.537 324.927 180.731C324.931 180.711 324.917 180.692 324.914 180.674L325.525 180.262C325.944 179.99 326.249 179.59 326.391 179.131C326.532 178.671 326.5 178.18 326.301 177.74C326.17 177.467 325.976 177.224 325.733 177.03C325.49 176.836 325.204 176.694 324.896 176.617C324.588 176.539 324.266 176.526 323.952 176.579C323.638 176.633 323.341 176.751 323.082 176.926L321.67 177.878C321.666 177.87 321.67 177.861 321.665 177.853C321.659 177.846 321.644 177.843 321.636 177.835C321.96 177.492 322.15 177.056 322.176 176.597C322.202 176.139 322.061 175.686 321.777 175.313C321.112 174.305 319.574 174.512 318.661 175.127L310.354 180.524L311.839 178.172C312.137 177.72 312.242 177.178 312.132 176.655C312.023 176.133 311.707 175.668 311.248 175.356C311.004 175.204 310.731 175.099 310.443 175.049C310.156 174.998 309.86 175.004 309.575 175.065C309.29 175.125 309.02 175.24 308.784 175.402C308.547 175.564 308.348 175.769 308.199 176.006L300.093 188.843C299.142 190.349 298.852 192.145 299.286 193.849C299.72 195.552 300.843 197.029 302.416 197.967V197.967C304.241 199.054 306.37 199.603 308.529 199.545C310.688 199.486 312.779 198.823 314.535 197.639L327.079 189.181C327.496 188.89 327.796 188.474 327.93 188.002C328.065 187.53 328.025 187.029 327.819 186.58V186.58Z" fill="#E98862"/>
<g opacity="0.25">
<path d="M313.45 183.211C313.481 183.25 313.526 183.277 313.578 183.285C313.629 183.294 313.681 183.283 313.724 183.255L321.617 178.113C321.638 178.099 321.656 178.081 321.671 178.06C321.685 178.04 321.694 178.017 321.699 177.992C321.704 177.968 321.703 177.944 321.698 177.92C321.692 177.896 321.682 177.873 321.667 177.853C321.652 177.833 321.633 177.815 321.611 177.802C321.589 177.789 321.565 177.78 321.539 177.775C321.513 177.771 321.487 177.771 321.462 177.776C321.436 177.782 321.412 177.791 321.39 177.805L313.498 182.947C313.454 182.976 313.425 183.019 313.415 183.068C313.406 183.116 313.417 183.167 313.447 183.207L313.45 183.211Z" fill="#0C0C0C"/>
</g>
<g opacity="0.25">
<path d="M315.765 186.548C315.796 186.588 315.842 186.614 315.893 186.622C315.944 186.63 315.996 186.619 316.039 186.591L324.848 180.853C324.891 180.825 324.92 180.781 324.929 180.733C324.939 180.684 324.927 180.634 324.897 180.593C324.866 180.554 324.82 180.527 324.769 180.518C324.717 180.509 324.665 180.519 324.621 180.546L315.813 186.284C315.769 186.312 315.74 186.356 315.73 186.405C315.721 186.453 315.732 186.504 315.762 186.545L315.765 186.548Z" fill="#0C0C0C"/>
</g>
<g opacity="0.25">
<path d="M318.25 190.175C318.281 190.215 318.326 190.242 318.377 190.25C318.428 190.258 318.481 190.247 318.524 190.219L325.55 185.642C325.594 185.613 325.623 185.57 325.633 185.521C325.642 185.473 325.63 185.422 325.6 185.382C325.57 185.341 325.524 185.313 325.473 185.304C325.421 185.295 325.367 185.306 325.324 185.334L318.297 189.912C318.254 189.94 318.225 189.983 318.215 190.032C318.206 190.081 318.217 190.131 318.247 190.172L318.25 190.175Z" fill="#0C0C0C"/>
</g>
<path d="M295.309 185.919L271.502 224.06L242.451 188.218L218.324 208.677L259.524 258.869L259.794 259.226C261.444 261.351 263.641 263.045 266.179 264.15C268.717 265.256 271.512 265.735 274.301 265.543C277.091 265.351 279.782 264.494 282.122 263.053C284.462 261.612 286.373 259.634 287.676 257.306L321.532 199.637L295.309 185.919Z" fill="#0F233B"/>
<path d="M269.167 228.647C269.115 228.647 269.064 228.634 269.019 228.611C268.973 228.587 268.935 228.552 268.908 228.511C268.881 228.469 268.866 228.422 268.864 228.373C268.862 228.324 268.873 228.276 268.897 228.233L271.231 223.93C271.268 223.863 271.331 223.812 271.408 223.789C271.484 223.766 271.567 223.772 271.639 223.807C271.71 223.841 271.764 223.901 271.788 223.973C271.813 224.045 271.806 224.123 271.77 224.19L269.436 228.491C269.411 228.538 269.372 228.577 269.325 228.605C269.277 228.632 269.223 228.647 269.167 228.647Z" fill="#0C0C0C"/>
<path d="M240.774 223.842L240.047 235.889L240.651 235.921L241.378 223.875L240.774 223.842Z" fill="#0C0C0C"/>
<path d="M164.057 136.659C164.057 136.659 162.942 150.068 159.672 154.902C150.259 168.817 147.388 184.556 156.54 192.894C165.691 201.232 224.711 201.993 229.416 183.091C233.376 167.18 225.319 165.378 223.515 152.194C222.699 146.23 220.407 133.719 220.407 133.719" fill="#0A0A0A"/>
<path d="M214.391 180.07C214.289 180.058 213.158 197.704 191.364 196.166C176.276 195.102 170.896 180.045 170.551 180.045C172.177 179.72 174.917 179.248 175.639 178.884C178.015 177.684 180.955 176.434 181.721 172.094C182.162 169.591 181.413 156.797 181.644 154.266L204.803 159.128C204.48 164.473 202.215 176.864 210.153 179.057C211.474 179.42 212.897 179.753 214.391 180.07Z" fill="#E98862"/>
<path d="M205.128 173.993C204.765 172.894 204.531 171.76 204.431 170.612C204.176 167.994 204.227 165.356 204.582 162.748C199.875 162.15 195.441 160.323 191.782 157.473C191.352 158.967 188.987 165.496 189.642 166.914C190.88 169.598 196.697 173.993 205.128 173.993Z" fill="#0C0C0C"/>
<path d="M202.058 168.439C192.917 169.17 181.146 165.607 178.84 154.143L176.758 143.8C174.452 132.336 178.983 121.904 190.458 119.861C201.933 117.818 212.38 125.584 214.686 137.048L215.608 141.627C216.493 146.025 218.367 167.134 202.058 168.439Z" fill="#E98862"/>
<path d="M212.338 142.126C213.132 142.126 213.776 141.52 213.776 140.773C213.776 140.026 213.132 139.42 212.338 139.42C211.543 139.42 210.899 140.026 210.899 140.773C210.899 141.52 211.543 142.126 212.338 142.126Z" fill="#0C0C0C"/>
<path d="M197.601 143.978C198.396 143.978 199.04 143.372 199.04 142.625C199.04 141.878 198.396 141.272 197.601 141.272C196.807 141.272 196.163 141.878 196.163 142.625C196.163 143.372 196.807 143.978 197.601 143.978Z" fill="#0C0C0C"/>
<path d="M205.687 152.547L205.71 152.544C206.174 152.458 206.634 152.348 207.086 152.214C207.76 152.01 208.644 151.673 208.529 151.099C208.398 150.446 205.077 143.737 204.699 142.974C204.683 142.941 204.66 142.911 204.632 142.886C204.603 142.861 204.57 142.842 204.533 142.829C204.497 142.817 204.458 142.811 204.419 142.812C204.38 142.814 204.342 142.823 204.307 142.838C204.272 142.854 204.24 142.875 204.214 142.902C204.188 142.929 204.167 142.961 204.154 142.995C204.141 143.03 204.135 143.066 204.137 143.103C204.139 143.139 204.149 143.175 204.165 143.208C205.581 146.066 207.861 150.762 207.95 151.202C207.874 151.406 206.754 151.793 205.6 151.999C205.524 152.011 205.457 152.051 205.412 152.11C205.367 152.168 205.348 152.241 205.359 152.313C205.371 152.384 205.411 152.449 205.473 152.492C205.534 152.536 205.611 152.556 205.687 152.547V152.547Z" fill="#0C0C0C"/>
<path d="M203.989 157.494C205.861 157.265 207.65 156.626 209.21 155.628C209.276 155.588 209.322 155.525 209.338 155.453C209.354 155.381 209.339 155.306 209.296 155.244C209.254 155.183 209.187 155.14 209.11 155.124C209.034 155.109 208.954 155.123 208.889 155.164C205.511 157.234 202.154 157.569 199.182 156.131C199.122 156.1 199.06 156.072 198.997 156.048C198.923 156.023 198.842 156.026 198.772 156.058C198.701 156.089 198.646 156.145 198.62 156.214C198.593 156.284 198.597 156.36 198.63 156.426C198.663 156.493 198.723 156.545 198.797 156.569C198.82 156.579 198.857 156.598 198.912 156.626C200.475 157.384 202.243 157.686 203.989 157.494V157.494Z" fill="#0C0C0C"/>
<path d="M167.578 147.404L177.865 145.631C185.655 142.665 188.011 129.98 188.011 129.98C188.011 129.98 197.474 138.655 220.405 133.721C220.405 133.721 215.808 103.639 181.929 112.384C171.005 115.204 163.165 125.559 164.142 139.397C164.827 149.098 167.578 147.404 167.578 147.404Z" fill="#0A0A0A"/>
<path d="M180.256 157.509C176.769 158.13 173.236 155.124 172.573 151.843C171.911 148.563 174.376 146.251 177.864 145.631L180.102 147.508L183.251 156.975L180.256 157.509Z" fill="#E98862"/>
<path d="M206.802 137.489C207.819 136.871 208.994 136.522 210.204 136.479C210.8 136.454 211.396 136.513 211.973 136.655C212.544 136.793 213.095 136.998 213.611 137.265C213.684 137.299 213.74 137.358 213.766 137.431C213.793 137.503 213.788 137.582 213.753 137.651C213.718 137.72 213.655 137.773 213.578 137.798C213.502 137.824 213.417 137.82 213.344 137.787L213.322 137.777C212.844 137.557 212.339 137.393 211.818 137.291C211.303 137.187 210.774 137.157 210.25 137.202C209.209 137.284 208.211 137.623 207.355 138.186L207.327 138.205C207.278 138.239 207.222 138.263 207.163 138.276C207.104 138.29 207.042 138.292 206.982 138.283C206.922 138.274 206.865 138.254 206.813 138.224C206.761 138.194 206.716 138.155 206.68 138.109C206.645 138.063 206.619 138.01 206.605 137.955C206.59 137.899 206.588 137.841 206.597 137.785C206.607 137.729 206.628 137.674 206.66 137.626C206.692 137.577 206.733 137.534 206.783 137.501L206.802 137.489Z" fill="#0C0C0C"/>
<path d="M197.628 139.521C196.614 139.287 195.552 139.31 194.551 139.587C194.044 139.723 193.562 139.931 193.122 140.202C192.675 140.476 192.267 140.801 191.907 141.17L191.89 141.185C191.834 141.238 191.758 141.269 191.678 141.27C191.598 141.271 191.521 141.244 191.462 141.192C191.404 141.141 191.369 141.07 191.365 140.995C191.361 140.92 191.388 140.847 191.44 140.79C191.819 140.365 192.254 139.987 192.734 139.664C193.217 139.336 193.75 139.078 194.315 138.899C195.46 138.529 196.69 138.455 197.876 138.685C197.997 138.709 198.102 138.777 198.169 138.875C198.236 138.972 198.259 139.09 198.233 139.203C198.207 139.316 198.134 139.415 198.031 139.478C197.928 139.541 197.802 139.563 197.682 139.538L197.663 139.534L197.628 139.521Z" fill="#0C0C0C"/>
<path d="M204.387 160.097C204.726 160.06 205.061 159.997 205.389 159.907C205.464 159.887 205.527 159.839 205.565 159.775C205.603 159.711 205.612 159.635 205.591 159.564C205.569 159.493 205.519 159.434 205.45 159.398C205.382 159.362 205.301 159.354 205.226 159.374C203.253 159.908 202.132 159.203 202.085 159.17C202.021 159.128 201.942 159.112 201.865 159.124C201.787 159.137 201.719 159.178 201.674 159.239C201.629 159.299 201.611 159.374 201.625 159.446C201.639 159.519 201.682 159.583 201.747 159.626C202.542 160.065 203.475 160.231 204.387 160.097V160.097Z" fill="#0C0C0C"/>
<path d="M177.888 145.508L177.786 145.24C190.819 140.839 187.632 128.809 187.598 128.688L187.891 128.615C187.925 128.739 191.185 141.018 177.888 145.508Z" fill="#0C0C0C"/>
<path opacity="0.1" d="M196.392 153.344C197.897 153.192 199.02 152.227 198.901 151.189C198.782 150.151 197.466 149.433 195.962 149.585C194.458 149.738 193.335 150.703 193.453 151.741C193.572 152.779 194.888 153.497 196.392 153.344Z" fill="#0C0C0C"/>
<path opacity="0.1" d="M212.367 149.418C212.488 150.454 213.805 151.171 215.31 151.021C215.57 150.994 215.826 150.943 216.075 150.866C216.16 149.633 216.178 148.446 216.153 147.346C215.738 147.243 215.305 147.215 214.878 147.262C213.373 147.411 212.25 148.377 212.367 149.418Z" fill="#0C0C0C"/>
<path d="M241.469 218.919C240.782 226.505 237.443 273.833 236.783 283.177H149.45C148.936 274.749 142.999 237.899 141.051 221.419C139.191 205.693 135.541 197.82 138.216 193.171C142.587 185.572 154.532 181.181 162.677 180.144C167.65 179.511 175.13 179.057 175.13 179.057C175.13 179.057 175.763 191.109 190.866 191.779C211.424 192.69 210.051 179.057 210.153 179.057C213.483 179.057 232.509 181.04 237.164 183.635C249.846 190.701 242.926 202.846 241.469 218.919Z" fill="#0F233B"/>
<path d="M298.156 224.219L289.737 262.704C289.567 263.486 289.117 264.189 288.463 264.696C287.808 265.204 286.989 265.485 286.141 265.493L228.174 265.957C227.621 265.961 227.074 265.849 226.573 265.629C226.072 265.409 225.63 265.086 225.279 264.684C224.927 264.283 224.676 263.812 224.543 263.307C224.41 262.802 224.399 262.276 224.511 261.766L232.929 223.279C233.1 222.498 233.55 221.795 234.206 221.289C234.861 220.782 235.681 220.502 236.529 220.495L294.496 220.03C295.048 220.027 295.595 220.139 296.095 220.359C296.595 220.579 297.037 220.902 297.388 221.303C297.739 221.705 297.99 222.175 298.123 222.679C298.256 223.184 298.267 223.71 298.156 224.219Z" fill="#292A2E"/>
<path d="M244.103 251.556C244.134 252.063 243.969 252.563 243.639 252.964C243.309 253.366 242.836 253.642 242.307 253.741L240.522 254.111C240.554 254.121 240.583 254.138 240.606 254.161C240.629 254.184 240.646 254.211 240.655 254.242C240.66 254.277 240.651 254.314 240.631 254.344C241.06 254.458 241.441 254.694 241.721 255.02C242 255.346 242.165 255.747 242.192 256.165C242.194 256.653 242.022 257.127 241.703 257.511C241.383 257.895 240.935 258.167 240.432 258.282L225.363 261.428C224.593 261.591 223.806 261.673 223.016 261.673C221.257 261.673 219.525 261.27 217.969 260.5C216.412 259.73 215.078 258.615 214.082 257.252C213.025 255.81 212.608 254.036 212.92 252.31C213.232 250.583 214.247 249.039 215.751 248.006L228.569 239.192C228.851 238.998 229.179 238.871 229.525 238.822L228.345 244.21L228.66 244.142L228.727 244.131L238.556 242.247C239.651 242.02 241.151 242.395 241.345 243.567C241.449 244.016 241.388 244.485 241.173 244.897C240.958 245.309 240.6 245.641 240.159 245.838C240.165 245.843 240.178 245.849 240.178 245.86C240.178 245.872 240.172 245.878 240.172 245.889L241.871 245.536C242.182 245.471 242.505 245.472 242.815 245.539C243.126 245.605 243.417 245.736 243.668 245.921C243.918 246.106 244.122 246.341 244.264 246.609C244.407 246.877 244.484 247.171 244.491 247.471C244.491 247.949 244.315 248.413 243.993 248.783C243.671 249.153 243.223 249.407 242.724 249.502L241.992 249.656C241.986 249.678 241.992 249.701 241.98 249.718C242.514 249.722 243.026 249.912 243.419 250.252C243.811 250.592 244.055 251.056 244.103 251.556V251.556Z" fill="#E98862"/>
<g opacity="0.25">
<path d="M230.387 247.757C230.398 247.805 230.429 247.846 230.473 247.872C230.516 247.899 230.569 247.908 230.62 247.898L240.025 246.084C240.051 246.079 240.075 246.069 240.097 246.055C240.118 246.041 240.137 246.024 240.151 246.003C240.165 245.983 240.175 245.96 240.18 245.936C240.185 245.912 240.185 245.887 240.18 245.863C240.175 245.839 240.164 245.816 240.15 245.796C240.135 245.776 240.116 245.758 240.095 245.745C240.073 245.731 240.049 245.722 240.023 245.717C239.997 245.713 239.971 245.713 239.945 245.718L230.54 247.532C230.489 247.542 230.443 247.57 230.414 247.612C230.385 247.653 230.375 247.704 230.385 247.752L230.387 247.757Z" fill="#0C0C0C"/>
</g>
<g opacity="0.25">
<path d="M231.123 251.681C231.134 251.728 231.165 251.77 231.209 251.796C231.253 251.822 231.305 251.832 231.356 251.822L241.853 249.797C241.904 249.787 241.949 249.758 241.978 249.717C242.007 249.676 242.018 249.625 242.007 249.577C241.995 249.529 241.964 249.487 241.921 249.46C241.877 249.433 241.824 249.423 241.773 249.431L231.275 251.456C231.25 251.461 231.225 251.47 231.204 251.484C231.182 251.498 231.164 251.515 231.149 251.536C231.135 251.556 231.125 251.579 231.12 251.603C231.115 251.627 231.115 251.652 231.12 251.676L231.123 251.681Z" fill="#0C0C0C"/>
</g>
<g opacity="0.25">
<path d="M231.894 255.933C231.906 255.981 231.937 256.022 231.98 256.049C232.024 256.075 232.077 256.084 232.127 256.075L240.5 254.459C240.526 254.454 240.55 254.445 240.571 254.431C240.593 254.417 240.611 254.399 240.626 254.379C240.64 254.359 240.65 254.336 240.655 254.312C240.66 254.287 240.66 254.263 240.655 254.239C240.649 254.215 240.639 254.192 240.625 254.172C240.61 254.151 240.591 254.134 240.569 254.12C240.548 254.107 240.523 254.097 240.498 254.093C240.472 254.088 240.446 254.088 240.42 254.093L232.048 255.708C231.996 255.718 231.951 255.747 231.922 255.788C231.893 255.83 231.882 255.88 231.893 255.929L231.894 255.933Z" fill="#0C0C0C"/>
</g>
<path d="M224.43 267.036L142.679 280.933C140.128 281.193 137.548 280.895 135.141 280.06C132.733 279.225 130.564 277.877 128.804 276.121C127.043 274.365 125.739 272.25 124.994 269.941C124.248 267.631 124.082 265.191 124.507 262.811L135.949 198.824C136.309 196.799 137.09 194.862 138.247 193.121C139.404 191.381 140.914 189.872 142.691 188.681C144.468 187.49 146.477 186.64 148.604 186.18C150.73 185.719 152.932 185.658 155.084 185.998C157.236 186.339 159.295 187.075 161.145 188.164C162.994 189.254 164.597 190.675 165.862 192.348C167.127 194.02 168.029 195.911 168.516 197.911C169.004 199.912 169.068 201.983 168.704 204.007L160.901 248.056L220.837 240.976L224.43 267.036Z" fill="#0F233B"/>
<path d="M142.679 281.217C142.603 281.217 142.531 281.19 142.475 281.142C142.419 281.094 142.385 281.029 142.378 280.958C142.371 280.887 142.393 280.817 142.439 280.76C142.485 280.704 142.551 280.665 142.626 280.653L224.094 266.805L220.575 241.293L160.939 248.338C160.892 248.344 160.844 248.339 160.8 248.324C160.755 248.31 160.715 248.285 160.683 248.253C160.65 248.221 160.626 248.182 160.612 248.14C160.598 248.098 160.595 248.053 160.602 248.009L165.563 219.856C165.569 219.819 165.583 219.784 165.604 219.752C165.624 219.72 165.652 219.692 165.684 219.671C165.717 219.649 165.753 219.633 165.792 219.625C165.831 219.617 165.871 219.616 165.911 219.623C165.95 219.629 165.987 219.642 166.021 219.662C166.055 219.681 166.084 219.707 166.107 219.738C166.13 219.768 166.147 219.802 166.156 219.839C166.165 219.875 166.166 219.913 166.16 219.95L161.265 247.726L220.798 240.693C220.877 240.684 220.958 240.704 221.021 240.75C221.084 240.796 221.125 240.864 221.136 240.939L224.73 266.999C224.74 267.071 224.72 267.144 224.674 267.203C224.628 267.262 224.56 267.302 224.484 267.315L142.733 281.213C142.715 281.216 142.697 281.217 142.679 281.217V281.217Z" fill="#0C0C0C"/>
<path d="M160.854 247.775L155.596 248.567L155.691 249.129L160.95 248.338L160.854 247.775Z" fill="#0C0C0C"/>
<path d="M568.439 314.797H389.533C382.102 314.797 376.078 320.464 376.078 327.454V385.073C376.078 392.063 382.102 397.73 389.533 397.73H568.439C575.871 397.73 581.895 392.063 581.895 385.073V327.454C581.895 320.464 575.871 314.797 568.439 314.797Z" fill="white"/>
<path opacity="0.4" d="M568.439 314.797H389.533C382.102 314.797 376.078 320.464 376.078 327.454V385.073C376.078 392.063 382.102 397.73 389.533 397.73H568.439C575.871 397.73 581.895 392.063 581.895 385.073V327.454C581.895 320.464 575.871 314.797 568.439 314.797Z" fill="#0F233B"/>
<path d="M568.439 398.296H389.533C385.805 398.292 382.232 396.897 379.596 394.417C376.96 391.938 375.477 388.576 375.473 385.07V327.456C375.477 323.95 376.96 320.588 379.596 318.108C382.232 315.629 385.805 314.234 389.533 314.23H568.439C572.167 314.234 575.741 315.629 578.377 318.108C581.013 320.588 582.496 323.95 582.5 327.456V385.072C582.495 388.578 581.012 391.939 578.376 394.418C575.74 396.897 572.167 398.292 568.439 398.296V398.296ZM389.533 315.366C386.126 315.37 382.859 316.645 380.45 318.911C378.041 321.178 376.686 324.251 376.682 327.456V385.072C376.687 388.277 378.042 391.348 380.451 393.614C382.861 395.88 386.127 397.154 389.533 397.158H568.439C571.846 397.154 575.113 395.879 577.522 393.613C579.931 391.347 581.286 388.275 581.29 385.07V327.456C581.286 324.251 579.931 321.179 577.522 318.913C575.113 316.647 571.846 315.372 568.439 315.368L389.533 315.366Z" fill="#292A2E"/>
<path d="M394.533 380.059C394.37 380.059 394.211 380.018 394.07 379.939C393.93 379.861 393.815 379.749 393.737 379.614C393.659 379.48 393.621 379.328 393.627 379.175C393.632 379.022 393.682 378.873 393.77 378.744C393.967 378.459 413.739 350.022 445.161 350.022C461.579 350.022 471.527 355.981 481.148 361.743C490.053 367.078 498.465 372.117 511.481 372.117C538.093 372.117 559.531 335.763 559.744 335.396C559.86 335.198 560.054 335.05 560.285 334.986C560.516 334.923 560.765 334.948 560.976 335.056C561.187 335.165 561.344 335.348 561.411 335.565C561.479 335.783 561.452 336.016 561.337 336.215C560.445 337.751 539.159 373.825 511.481 373.825C497.936 373.825 489.308 368.657 480.173 363.185C470.771 357.552 461.05 351.73 445.161 351.73C414.743 351.73 395.489 379.388 395.297 379.667C395.215 379.788 395.102 379.886 394.969 379.955C394.835 380.023 394.685 380.059 394.533 380.059V380.059Z" fill="white"/>
<path d="M560.795 339.147C562.756 339.147 564.346 337.652 564.346 335.807C564.346 333.962 562.756 332.467 560.795 332.467C558.834 332.467 557.244 333.962 557.244 335.807C557.244 337.652 558.834 339.147 560.795 339.147Z" fill="white"/>
</g>
<defs>
<clipPath id="clip0_604_3023">
<rect width="582" height="549" fill="white" transform="translate(0.5)"/>
</clipPath>
</defs>
</svg>
